%TF.GenerationSoftware,KiCad,Pcbnew,7.0.9*%
%TF.CreationDate,2024-01-13T12:33:37-06:00*%
%TF.ProjectId,SillyTinySCSI,53696c6c-7954-4696-9e79-534353492e6b,V2.0*%
%TF.SameCoordinates,Original*%
%TF.FileFunction,Legend,Bot*%
%TF.FilePolarity,Positive*%
%FSLAX46Y46*%
G04 Gerber Fmt 4.6, Leading zero omitted, Abs format (unit mm)*
G04 Created by KiCad (PCBNEW 7.0.9) date 2024-01-13 12:33:37*
%MOMM*%
%LPD*%
G01*
G04 APERTURE LIST*
%ADD10C,0.150000*%
%ADD11C,0.125000*%
%ADD12C,0.153000*%
%ADD13C,0.254000*%
%ADD14C,0.120000*%
%ADD15C,0.100000*%
%ADD16C,0.200000*%
%TA.AperFunction,Profile*%
%ADD17C,0.150000*%
%TD*%
G04 APERTURE END LIST*
D10*
X159500000Y-51700000D02*
X159000000Y-51700000D01*
X159500000Y-52200000D02*
X159500000Y-51200000D01*
D11*
D12*
X96034663Y-53557142D02*
X95558472Y-53223809D01*
X96034663Y-52985714D02*
X95034663Y-52985714D01*
X95034663Y-52985714D02*
X95034663Y-53366666D01*
X95034663Y-53366666D02*
X95082282Y-53461904D01*
X95082282Y-53461904D02*
X95129901Y-53509523D01*
X95129901Y-53509523D02*
X95225139Y-53557142D01*
X95225139Y-53557142D02*
X95367996Y-53557142D01*
X95367996Y-53557142D02*
X95463234Y-53509523D01*
X95463234Y-53509523D02*
X95510853Y-53461904D01*
X95510853Y-53461904D02*
X95558472Y-53366666D01*
X95558472Y-53366666D02*
X95558472Y-52985714D01*
X96034663Y-54509523D02*
X96034663Y-53938095D01*
X96034663Y-54223809D02*
X95034663Y-54223809D01*
X95034663Y-54223809D02*
X95177520Y-54128571D01*
X95177520Y-54128571D02*
X95272758Y-54033333D01*
X95272758Y-54033333D02*
X95320377Y-53938095D01*
X95034663Y-55414285D02*
X95034663Y-54938095D01*
X95034663Y-54938095D02*
X95510853Y-54890476D01*
X95510853Y-54890476D02*
X95463234Y-54938095D01*
X95463234Y-54938095D02*
X95415615Y-55033333D01*
X95415615Y-55033333D02*
X95415615Y-55271428D01*
X95415615Y-55271428D02*
X95463234Y-55366666D01*
X95463234Y-55366666D02*
X95510853Y-55414285D01*
X95510853Y-55414285D02*
X95606091Y-55461904D01*
X95606091Y-55461904D02*
X95844186Y-55461904D01*
X95844186Y-55461904D02*
X95939424Y-55414285D01*
X95939424Y-55414285D02*
X95987044Y-55366666D01*
X95987044Y-55366666D02*
X96034663Y-55271428D01*
X96034663Y-55271428D02*
X96034663Y-55033333D01*
X96034663Y-55033333D02*
X95987044Y-54938095D01*
X95987044Y-54938095D02*
X95939424Y-54890476D01*
X125369424Y-70803333D02*
X125417044Y-70755714D01*
X125417044Y-70755714D02*
X125464663Y-70612857D01*
X125464663Y-70612857D02*
X125464663Y-70517619D01*
X125464663Y-70517619D02*
X125417044Y-70374762D01*
X125417044Y-70374762D02*
X125321805Y-70279524D01*
X125321805Y-70279524D02*
X125226567Y-70231905D01*
X125226567Y-70231905D02*
X125036091Y-70184286D01*
X125036091Y-70184286D02*
X124893234Y-70184286D01*
X124893234Y-70184286D02*
X124702758Y-70231905D01*
X124702758Y-70231905D02*
X124607520Y-70279524D01*
X124607520Y-70279524D02*
X124512282Y-70374762D01*
X124512282Y-70374762D02*
X124464663Y-70517619D01*
X124464663Y-70517619D02*
X124464663Y-70612857D01*
X124464663Y-70612857D02*
X124512282Y-70755714D01*
X124512282Y-70755714D02*
X124559901Y-70803333D01*
X124797996Y-71660476D02*
X125464663Y-71660476D01*
X124417044Y-71422381D02*
X125131329Y-71184286D01*
X125131329Y-71184286D02*
X125131329Y-71803333D01*
X107652857Y-72694663D02*
X107986190Y-72218472D01*
X108224285Y-72694663D02*
X108224285Y-71694663D01*
X108224285Y-71694663D02*
X107843333Y-71694663D01*
X107843333Y-71694663D02*
X107748095Y-71742282D01*
X107748095Y-71742282D02*
X107700476Y-71789901D01*
X107700476Y-71789901D02*
X107652857Y-71885139D01*
X107652857Y-71885139D02*
X107652857Y-72027996D01*
X107652857Y-72027996D02*
X107700476Y-72123234D01*
X107700476Y-72123234D02*
X107748095Y-72170853D01*
X107748095Y-72170853D02*
X107843333Y-72218472D01*
X107843333Y-72218472D02*
X108224285Y-72218472D01*
X106700476Y-72694663D02*
X107271904Y-72694663D01*
X106986190Y-72694663D02*
X106986190Y-71694663D01*
X106986190Y-71694663D02*
X107081428Y-71837520D01*
X107081428Y-71837520D02*
X107176666Y-71932758D01*
X107176666Y-71932758D02*
X107271904Y-71980377D01*
X106319523Y-71789901D02*
X106271904Y-71742282D01*
X106271904Y-71742282D02*
X106176666Y-71694663D01*
X106176666Y-71694663D02*
X105938571Y-71694663D01*
X105938571Y-71694663D02*
X105843333Y-71742282D01*
X105843333Y-71742282D02*
X105795714Y-71789901D01*
X105795714Y-71789901D02*
X105748095Y-71885139D01*
X105748095Y-71885139D02*
X105748095Y-71980377D01*
X105748095Y-71980377D02*
X105795714Y-72123234D01*
X105795714Y-72123234D02*
X106367142Y-72694663D01*
X106367142Y-72694663D02*
X105748095Y-72694663D01*
X132766666Y-51439424D02*
X132814285Y-51487044D01*
X132814285Y-51487044D02*
X132957142Y-51534663D01*
X132957142Y-51534663D02*
X133052380Y-51534663D01*
X133052380Y-51534663D02*
X133195237Y-51487044D01*
X133195237Y-51487044D02*
X133290475Y-51391805D01*
X133290475Y-51391805D02*
X133338094Y-51296567D01*
X133338094Y-51296567D02*
X133385713Y-51106091D01*
X133385713Y-51106091D02*
X133385713Y-50963234D01*
X133385713Y-50963234D02*
X133338094Y-50772758D01*
X133338094Y-50772758D02*
X133290475Y-50677520D01*
X133290475Y-50677520D02*
X133195237Y-50582282D01*
X133195237Y-50582282D02*
X133052380Y-50534663D01*
X133052380Y-50534663D02*
X132957142Y-50534663D01*
X132957142Y-50534663D02*
X132814285Y-50582282D01*
X132814285Y-50582282D02*
X132766666Y-50629901D01*
X131861904Y-50534663D02*
X132338094Y-50534663D01*
X132338094Y-50534663D02*
X132385713Y-51010853D01*
X132385713Y-51010853D02*
X132338094Y-50963234D01*
X132338094Y-50963234D02*
X132242856Y-50915615D01*
X132242856Y-50915615D02*
X132004761Y-50915615D01*
X132004761Y-50915615D02*
X131909523Y-50963234D01*
X131909523Y-50963234D02*
X131861904Y-51010853D01*
X131861904Y-51010853D02*
X131814285Y-51106091D01*
X131814285Y-51106091D02*
X131814285Y-51344186D01*
X131814285Y-51344186D02*
X131861904Y-51439424D01*
X131861904Y-51439424D02*
X131909523Y-51487044D01*
X131909523Y-51487044D02*
X132004761Y-51534663D01*
X132004761Y-51534663D02*
X132242856Y-51534663D01*
X132242856Y-51534663D02*
X132338094Y-51487044D01*
X132338094Y-51487044D02*
X132385713Y-51439424D01*
X142674663Y-66697142D02*
X142198472Y-66363809D01*
X142674663Y-66125714D02*
X141674663Y-66125714D01*
X141674663Y-66125714D02*
X141674663Y-66506666D01*
X141674663Y-66506666D02*
X141722282Y-66601904D01*
X141722282Y-66601904D02*
X141769901Y-66649523D01*
X141769901Y-66649523D02*
X141865139Y-66697142D01*
X141865139Y-66697142D02*
X142007996Y-66697142D01*
X142007996Y-66697142D02*
X142103234Y-66649523D01*
X142103234Y-66649523D02*
X142150853Y-66601904D01*
X142150853Y-66601904D02*
X142198472Y-66506666D01*
X142198472Y-66506666D02*
X142198472Y-66125714D01*
X142674663Y-67649523D02*
X142674663Y-67078095D01*
X142674663Y-67363809D02*
X141674663Y-67363809D01*
X141674663Y-67363809D02*
X141817520Y-67268571D01*
X141817520Y-67268571D02*
X141912758Y-67173333D01*
X141912758Y-67173333D02*
X141960377Y-67078095D01*
X141674663Y-67982857D02*
X141674663Y-68601904D01*
X141674663Y-68601904D02*
X142055615Y-68268571D01*
X142055615Y-68268571D02*
X142055615Y-68411428D01*
X142055615Y-68411428D02*
X142103234Y-68506666D01*
X142103234Y-68506666D02*
X142150853Y-68554285D01*
X142150853Y-68554285D02*
X142246091Y-68601904D01*
X142246091Y-68601904D02*
X142484186Y-68601904D01*
X142484186Y-68601904D02*
X142579424Y-68554285D01*
X142579424Y-68554285D02*
X142627044Y-68506666D01*
X142627044Y-68506666D02*
X142674663Y-68411428D01*
X142674663Y-68411428D02*
X142674663Y-68125714D01*
X142674663Y-68125714D02*
X142627044Y-68030476D01*
X142627044Y-68030476D02*
X142579424Y-67982857D01*
X109619424Y-70093333D02*
X109667044Y-70045714D01*
X109667044Y-70045714D02*
X109714663Y-69902857D01*
X109714663Y-69902857D02*
X109714663Y-69807619D01*
X109714663Y-69807619D02*
X109667044Y-69664762D01*
X109667044Y-69664762D02*
X109571805Y-69569524D01*
X109571805Y-69569524D02*
X109476567Y-69521905D01*
X109476567Y-69521905D02*
X109286091Y-69474286D01*
X109286091Y-69474286D02*
X109143234Y-69474286D01*
X109143234Y-69474286D02*
X108952758Y-69521905D01*
X108952758Y-69521905D02*
X108857520Y-69569524D01*
X108857520Y-69569524D02*
X108762282Y-69664762D01*
X108762282Y-69664762D02*
X108714663Y-69807619D01*
X108714663Y-69807619D02*
X108714663Y-69902857D01*
X108714663Y-69902857D02*
X108762282Y-70045714D01*
X108762282Y-70045714D02*
X108809901Y-70093333D01*
X108714663Y-70426667D02*
X108714663Y-71045714D01*
X108714663Y-71045714D02*
X109095615Y-70712381D01*
X109095615Y-70712381D02*
X109095615Y-70855238D01*
X109095615Y-70855238D02*
X109143234Y-70950476D01*
X109143234Y-70950476D02*
X109190853Y-70998095D01*
X109190853Y-70998095D02*
X109286091Y-71045714D01*
X109286091Y-71045714D02*
X109524186Y-71045714D01*
X109524186Y-71045714D02*
X109619424Y-70998095D01*
X109619424Y-70998095D02*
X109667044Y-70950476D01*
X109667044Y-70950476D02*
X109714663Y-70855238D01*
X109714663Y-70855238D02*
X109714663Y-70569524D01*
X109714663Y-70569524D02*
X109667044Y-70474286D01*
X109667044Y-70474286D02*
X109619424Y-70426667D01*
X166012857Y-69989424D02*
X166060476Y-70037044D01*
X166060476Y-70037044D02*
X166203333Y-70084663D01*
X166203333Y-70084663D02*
X166298571Y-70084663D01*
X166298571Y-70084663D02*
X166441428Y-70037044D01*
X166441428Y-70037044D02*
X166536666Y-69941805D01*
X166536666Y-69941805D02*
X166584285Y-69846567D01*
X166584285Y-69846567D02*
X166631904Y-69656091D01*
X166631904Y-69656091D02*
X166631904Y-69513234D01*
X166631904Y-69513234D02*
X166584285Y-69322758D01*
X166584285Y-69322758D02*
X166536666Y-69227520D01*
X166536666Y-69227520D02*
X166441428Y-69132282D01*
X166441428Y-69132282D02*
X166298571Y-69084663D01*
X166298571Y-69084663D02*
X166203333Y-69084663D01*
X166203333Y-69084663D02*
X166060476Y-69132282D01*
X166060476Y-69132282D02*
X166012857Y-69179901D01*
X165060476Y-70084663D02*
X165631904Y-70084663D01*
X165346190Y-70084663D02*
X165346190Y-69084663D01*
X165346190Y-69084663D02*
X165441428Y-69227520D01*
X165441428Y-69227520D02*
X165536666Y-69322758D01*
X165536666Y-69322758D02*
X165631904Y-69370377D01*
X164727142Y-69084663D02*
X164108095Y-69084663D01*
X164108095Y-69084663D02*
X164441428Y-69465615D01*
X164441428Y-69465615D02*
X164298571Y-69465615D01*
X164298571Y-69465615D02*
X164203333Y-69513234D01*
X164203333Y-69513234D02*
X164155714Y-69560853D01*
X164155714Y-69560853D02*
X164108095Y-69656091D01*
X164108095Y-69656091D02*
X164108095Y-69894186D01*
X164108095Y-69894186D02*
X164155714Y-69989424D01*
X164155714Y-69989424D02*
X164203333Y-70037044D01*
X164203333Y-70037044D02*
X164298571Y-70084663D01*
X164298571Y-70084663D02*
X164584285Y-70084663D01*
X164584285Y-70084663D02*
X164679523Y-70037044D01*
X164679523Y-70037044D02*
X164727142Y-69989424D01*
X174622857Y-68189424D02*
X174670476Y-68237044D01*
X174670476Y-68237044D02*
X174813333Y-68284663D01*
X174813333Y-68284663D02*
X174908571Y-68284663D01*
X174908571Y-68284663D02*
X175051428Y-68237044D01*
X175051428Y-68237044D02*
X175146666Y-68141805D01*
X175146666Y-68141805D02*
X175194285Y-68046567D01*
X175194285Y-68046567D02*
X175241904Y-67856091D01*
X175241904Y-67856091D02*
X175241904Y-67713234D01*
X175241904Y-67713234D02*
X175194285Y-67522758D01*
X175194285Y-67522758D02*
X175146666Y-67427520D01*
X175146666Y-67427520D02*
X175051428Y-67332282D01*
X175051428Y-67332282D02*
X174908571Y-67284663D01*
X174908571Y-67284663D02*
X174813333Y-67284663D01*
X174813333Y-67284663D02*
X174670476Y-67332282D01*
X174670476Y-67332282D02*
X174622857Y-67379901D01*
X173670476Y-68284663D02*
X174241904Y-68284663D01*
X173956190Y-68284663D02*
X173956190Y-67284663D01*
X173956190Y-67284663D02*
X174051428Y-67427520D01*
X174051428Y-67427520D02*
X174146666Y-67522758D01*
X174146666Y-67522758D02*
X174241904Y-67570377D01*
X173289523Y-67379901D02*
X173241904Y-67332282D01*
X173241904Y-67332282D02*
X173146666Y-67284663D01*
X173146666Y-67284663D02*
X172908571Y-67284663D01*
X172908571Y-67284663D02*
X172813333Y-67332282D01*
X172813333Y-67332282D02*
X172765714Y-67379901D01*
X172765714Y-67379901D02*
X172718095Y-67475139D01*
X172718095Y-67475139D02*
X172718095Y-67570377D01*
X172718095Y-67570377D02*
X172765714Y-67713234D01*
X172765714Y-67713234D02*
X173337142Y-68284663D01*
X173337142Y-68284663D02*
X172718095Y-68284663D01*
X155454663Y-53983333D02*
X154978472Y-53650000D01*
X155454663Y-53411905D02*
X154454663Y-53411905D01*
X154454663Y-53411905D02*
X154454663Y-53792857D01*
X154454663Y-53792857D02*
X154502282Y-53888095D01*
X154502282Y-53888095D02*
X154549901Y-53935714D01*
X154549901Y-53935714D02*
X154645139Y-53983333D01*
X154645139Y-53983333D02*
X154787996Y-53983333D01*
X154787996Y-53983333D02*
X154883234Y-53935714D01*
X154883234Y-53935714D02*
X154930853Y-53888095D01*
X154930853Y-53888095D02*
X154978472Y-53792857D01*
X154978472Y-53792857D02*
X154978472Y-53411905D01*
X154549901Y-54364286D02*
X154502282Y-54411905D01*
X154502282Y-54411905D02*
X154454663Y-54507143D01*
X154454663Y-54507143D02*
X154454663Y-54745238D01*
X154454663Y-54745238D02*
X154502282Y-54840476D01*
X154502282Y-54840476D02*
X154549901Y-54888095D01*
X154549901Y-54888095D02*
X154645139Y-54935714D01*
X154645139Y-54935714D02*
X154740377Y-54935714D01*
X154740377Y-54935714D02*
X154883234Y-54888095D01*
X154883234Y-54888095D02*
X155454663Y-54316667D01*
X155454663Y-54316667D02*
X155454663Y-54935714D01*
X96048094Y-58664663D02*
X96048094Y-57664663D01*
X96048094Y-57664663D02*
X95809999Y-57664663D01*
X95809999Y-57664663D02*
X95667142Y-57712282D01*
X95667142Y-57712282D02*
X95571904Y-57807520D01*
X95571904Y-57807520D02*
X95524285Y-57902758D01*
X95524285Y-57902758D02*
X95476666Y-58093234D01*
X95476666Y-58093234D02*
X95476666Y-58236091D01*
X95476666Y-58236091D02*
X95524285Y-58426567D01*
X95524285Y-58426567D02*
X95571904Y-58521805D01*
X95571904Y-58521805D02*
X95667142Y-58617044D01*
X95667142Y-58617044D02*
X95809999Y-58664663D01*
X95809999Y-58664663D02*
X96048094Y-58664663D01*
X95143332Y-57664663D02*
X94524285Y-57664663D01*
X94524285Y-57664663D02*
X94857618Y-58045615D01*
X94857618Y-58045615D02*
X94714761Y-58045615D01*
X94714761Y-58045615D02*
X94619523Y-58093234D01*
X94619523Y-58093234D02*
X94571904Y-58140853D01*
X94571904Y-58140853D02*
X94524285Y-58236091D01*
X94524285Y-58236091D02*
X94524285Y-58474186D01*
X94524285Y-58474186D02*
X94571904Y-58569424D01*
X94571904Y-58569424D02*
X94619523Y-58617044D01*
X94619523Y-58617044D02*
X94714761Y-58664663D01*
X94714761Y-58664663D02*
X95000475Y-58664663D01*
X95000475Y-58664663D02*
X95095713Y-58617044D01*
X95095713Y-58617044D02*
X95143332Y-58569424D01*
X128432857Y-52739424D02*
X128480476Y-52787044D01*
X128480476Y-52787044D02*
X128623333Y-52834663D01*
X128623333Y-52834663D02*
X128718571Y-52834663D01*
X128718571Y-52834663D02*
X128861428Y-52787044D01*
X128861428Y-52787044D02*
X128956666Y-52691805D01*
X128956666Y-52691805D02*
X129004285Y-52596567D01*
X129004285Y-52596567D02*
X129051904Y-52406091D01*
X129051904Y-52406091D02*
X129051904Y-52263234D01*
X129051904Y-52263234D02*
X129004285Y-52072758D01*
X129004285Y-52072758D02*
X128956666Y-51977520D01*
X128956666Y-51977520D02*
X128861428Y-51882282D01*
X128861428Y-51882282D02*
X128718571Y-51834663D01*
X128718571Y-51834663D02*
X128623333Y-51834663D01*
X128623333Y-51834663D02*
X128480476Y-51882282D01*
X128480476Y-51882282D02*
X128432857Y-51929901D01*
X127480476Y-52834663D02*
X128051904Y-52834663D01*
X127766190Y-52834663D02*
X127766190Y-51834663D01*
X127766190Y-51834663D02*
X127861428Y-51977520D01*
X127861428Y-51977520D02*
X127956666Y-52072758D01*
X127956666Y-52072758D02*
X128051904Y-52120377D01*
X126861428Y-51834663D02*
X126766190Y-51834663D01*
X126766190Y-51834663D02*
X126670952Y-51882282D01*
X126670952Y-51882282D02*
X126623333Y-51929901D01*
X126623333Y-51929901D02*
X126575714Y-52025139D01*
X126575714Y-52025139D02*
X126528095Y-52215615D01*
X126528095Y-52215615D02*
X126528095Y-52453710D01*
X126528095Y-52453710D02*
X126575714Y-52644186D01*
X126575714Y-52644186D02*
X126623333Y-52739424D01*
X126623333Y-52739424D02*
X126670952Y-52787044D01*
X126670952Y-52787044D02*
X126766190Y-52834663D01*
X126766190Y-52834663D02*
X126861428Y-52834663D01*
X126861428Y-52834663D02*
X126956666Y-52787044D01*
X126956666Y-52787044D02*
X127004285Y-52739424D01*
X127004285Y-52739424D02*
X127051904Y-52644186D01*
X127051904Y-52644186D02*
X127099523Y-52453710D01*
X127099523Y-52453710D02*
X127099523Y-52215615D01*
X127099523Y-52215615D02*
X127051904Y-52025139D01*
X127051904Y-52025139D02*
X127004285Y-51929901D01*
X127004285Y-51929901D02*
X126956666Y-51882282D01*
X126956666Y-51882282D02*
X126861428Y-51834663D01*
X160576666Y-51609424D02*
X160624285Y-51657044D01*
X160624285Y-51657044D02*
X160767142Y-51704663D01*
X160767142Y-51704663D02*
X160862380Y-51704663D01*
X160862380Y-51704663D02*
X161005237Y-51657044D01*
X161005237Y-51657044D02*
X161100475Y-51561805D01*
X161100475Y-51561805D02*
X161148094Y-51466567D01*
X161148094Y-51466567D02*
X161195713Y-51276091D01*
X161195713Y-51276091D02*
X161195713Y-51133234D01*
X161195713Y-51133234D02*
X161148094Y-50942758D01*
X161148094Y-50942758D02*
X161100475Y-50847520D01*
X161100475Y-50847520D02*
X161005237Y-50752282D01*
X161005237Y-50752282D02*
X160862380Y-50704663D01*
X160862380Y-50704663D02*
X160767142Y-50704663D01*
X160767142Y-50704663D02*
X160624285Y-50752282D01*
X160624285Y-50752282D02*
X160576666Y-50799901D01*
X160195713Y-50799901D02*
X160148094Y-50752282D01*
X160148094Y-50752282D02*
X160052856Y-50704663D01*
X160052856Y-50704663D02*
X159814761Y-50704663D01*
X159814761Y-50704663D02*
X159719523Y-50752282D01*
X159719523Y-50752282D02*
X159671904Y-50799901D01*
X159671904Y-50799901D02*
X159624285Y-50895139D01*
X159624285Y-50895139D02*
X159624285Y-50990377D01*
X159624285Y-50990377D02*
X159671904Y-51133234D01*
X159671904Y-51133234D02*
X160243332Y-51704663D01*
X160243332Y-51704663D02*
X159624285Y-51704663D01*
D10*
X119124819Y-58251905D02*
X118124819Y-58251905D01*
X118124819Y-58251905D02*
X118124819Y-58490000D01*
X118124819Y-58490000D02*
X118172438Y-58632857D01*
X118172438Y-58632857D02*
X118267676Y-58728095D01*
X118267676Y-58728095D02*
X118362914Y-58775714D01*
X118362914Y-58775714D02*
X118553390Y-58823333D01*
X118553390Y-58823333D02*
X118696247Y-58823333D01*
X118696247Y-58823333D02*
X118886723Y-58775714D01*
X118886723Y-58775714D02*
X118981961Y-58728095D01*
X118981961Y-58728095D02*
X119077200Y-58632857D01*
X119077200Y-58632857D02*
X119124819Y-58490000D01*
X119124819Y-58490000D02*
X119124819Y-58251905D01*
X118220057Y-59204286D02*
X118172438Y-59251905D01*
X118172438Y-59251905D02*
X118124819Y-59347143D01*
X118124819Y-59347143D02*
X118124819Y-59585238D01*
X118124819Y-59585238D02*
X118172438Y-59680476D01*
X118172438Y-59680476D02*
X118220057Y-59728095D01*
X118220057Y-59728095D02*
X118315295Y-59775714D01*
X118315295Y-59775714D02*
X118410533Y-59775714D01*
X118410533Y-59775714D02*
X118553390Y-59728095D01*
X118553390Y-59728095D02*
X119124819Y-59156667D01*
X119124819Y-59156667D02*
X119124819Y-59775714D01*
D12*
X157026666Y-51579424D02*
X157074285Y-51627044D01*
X157074285Y-51627044D02*
X157217142Y-51674663D01*
X157217142Y-51674663D02*
X157312380Y-51674663D01*
X157312380Y-51674663D02*
X157455237Y-51627044D01*
X157455237Y-51627044D02*
X157550475Y-51531805D01*
X157550475Y-51531805D02*
X157598094Y-51436567D01*
X157598094Y-51436567D02*
X157645713Y-51246091D01*
X157645713Y-51246091D02*
X157645713Y-51103234D01*
X157645713Y-51103234D02*
X157598094Y-50912758D01*
X157598094Y-50912758D02*
X157550475Y-50817520D01*
X157550475Y-50817520D02*
X157455237Y-50722282D01*
X157455237Y-50722282D02*
X157312380Y-50674663D01*
X157312380Y-50674663D02*
X157217142Y-50674663D01*
X157217142Y-50674663D02*
X157074285Y-50722282D01*
X157074285Y-50722282D02*
X157026666Y-50769901D01*
X156074285Y-51674663D02*
X156645713Y-51674663D01*
X156359999Y-51674663D02*
X156359999Y-50674663D01*
X156359999Y-50674663D02*
X156455237Y-50817520D01*
X156455237Y-50817520D02*
X156550475Y-50912758D01*
X156550475Y-50912758D02*
X156645713Y-50960377D01*
X141966666Y-74519424D02*
X142014285Y-74567044D01*
X142014285Y-74567044D02*
X142157142Y-74614663D01*
X142157142Y-74614663D02*
X142252380Y-74614663D01*
X142252380Y-74614663D02*
X142395237Y-74567044D01*
X142395237Y-74567044D02*
X142490475Y-74471805D01*
X142490475Y-74471805D02*
X142538094Y-74376567D01*
X142538094Y-74376567D02*
X142585713Y-74186091D01*
X142585713Y-74186091D02*
X142585713Y-74043234D01*
X142585713Y-74043234D02*
X142538094Y-73852758D01*
X142538094Y-73852758D02*
X142490475Y-73757520D01*
X142490475Y-73757520D02*
X142395237Y-73662282D01*
X142395237Y-73662282D02*
X142252380Y-73614663D01*
X142252380Y-73614663D02*
X142157142Y-73614663D01*
X142157142Y-73614663D02*
X142014285Y-73662282D01*
X142014285Y-73662282D02*
X141966666Y-73709901D01*
X141109523Y-73614663D02*
X141299999Y-73614663D01*
X141299999Y-73614663D02*
X141395237Y-73662282D01*
X141395237Y-73662282D02*
X141442856Y-73709901D01*
X141442856Y-73709901D02*
X141538094Y-73852758D01*
X141538094Y-73852758D02*
X141585713Y-74043234D01*
X141585713Y-74043234D02*
X141585713Y-74424186D01*
X141585713Y-74424186D02*
X141538094Y-74519424D01*
X141538094Y-74519424D02*
X141490475Y-74567044D01*
X141490475Y-74567044D02*
X141395237Y-74614663D01*
X141395237Y-74614663D02*
X141204761Y-74614663D01*
X141204761Y-74614663D02*
X141109523Y-74567044D01*
X141109523Y-74567044D02*
X141061904Y-74519424D01*
X141061904Y-74519424D02*
X141014285Y-74424186D01*
X141014285Y-74424186D02*
X141014285Y-74186091D01*
X141014285Y-74186091D02*
X141061904Y-74090853D01*
X141061904Y-74090853D02*
X141109523Y-74043234D01*
X141109523Y-74043234D02*
X141204761Y-73995615D01*
X141204761Y-73995615D02*
X141395237Y-73995615D01*
X141395237Y-73995615D02*
X141490475Y-74043234D01*
X141490475Y-74043234D02*
X141538094Y-74090853D01*
X141538094Y-74090853D02*
X141585713Y-74186091D01*
X143176666Y-58024663D02*
X143509999Y-57548472D01*
X143748094Y-58024663D02*
X143748094Y-57024663D01*
X143748094Y-57024663D02*
X143367142Y-57024663D01*
X143367142Y-57024663D02*
X143271904Y-57072282D01*
X143271904Y-57072282D02*
X143224285Y-57119901D01*
X143224285Y-57119901D02*
X143176666Y-57215139D01*
X143176666Y-57215139D02*
X143176666Y-57357996D01*
X143176666Y-57357996D02*
X143224285Y-57453234D01*
X143224285Y-57453234D02*
X143271904Y-57500853D01*
X143271904Y-57500853D02*
X143367142Y-57548472D01*
X143367142Y-57548472D02*
X143748094Y-57548472D01*
X142224285Y-58024663D02*
X142795713Y-58024663D01*
X142509999Y-58024663D02*
X142509999Y-57024663D01*
X142509999Y-57024663D02*
X142605237Y-57167520D01*
X142605237Y-57167520D02*
X142700475Y-57262758D01*
X142700475Y-57262758D02*
X142795713Y-57310377D01*
X133196666Y-68899663D02*
X133529999Y-68423472D01*
X133768094Y-68899663D02*
X133768094Y-67899663D01*
X133768094Y-67899663D02*
X133387142Y-67899663D01*
X133387142Y-67899663D02*
X133291904Y-67947282D01*
X133291904Y-67947282D02*
X133244285Y-67994901D01*
X133244285Y-67994901D02*
X133196666Y-68090139D01*
X133196666Y-68090139D02*
X133196666Y-68232996D01*
X133196666Y-68232996D02*
X133244285Y-68328234D01*
X133244285Y-68328234D02*
X133291904Y-68375853D01*
X133291904Y-68375853D02*
X133387142Y-68423472D01*
X133387142Y-68423472D02*
X133768094Y-68423472D01*
X132291904Y-67899663D02*
X132768094Y-67899663D01*
X132768094Y-67899663D02*
X132815713Y-68375853D01*
X132815713Y-68375853D02*
X132768094Y-68328234D01*
X132768094Y-68328234D02*
X132672856Y-68280615D01*
X132672856Y-68280615D02*
X132434761Y-68280615D01*
X132434761Y-68280615D02*
X132339523Y-68328234D01*
X132339523Y-68328234D02*
X132291904Y-68375853D01*
X132291904Y-68375853D02*
X132244285Y-68471091D01*
X132244285Y-68471091D02*
X132244285Y-68709186D01*
X132244285Y-68709186D02*
X132291904Y-68804424D01*
X132291904Y-68804424D02*
X132339523Y-68852044D01*
X132339523Y-68852044D02*
X132434761Y-68899663D01*
X132434761Y-68899663D02*
X132672856Y-68899663D01*
X132672856Y-68899663D02*
X132768094Y-68852044D01*
X132768094Y-68852044D02*
X132815713Y-68804424D01*
X146416666Y-71664663D02*
X146749999Y-71188472D01*
X146988094Y-71664663D02*
X146988094Y-70664663D01*
X146988094Y-70664663D02*
X146607142Y-70664663D01*
X146607142Y-70664663D02*
X146511904Y-70712282D01*
X146511904Y-70712282D02*
X146464285Y-70759901D01*
X146464285Y-70759901D02*
X146416666Y-70855139D01*
X146416666Y-70855139D02*
X146416666Y-70997996D01*
X146416666Y-70997996D02*
X146464285Y-71093234D01*
X146464285Y-71093234D02*
X146511904Y-71140853D01*
X146511904Y-71140853D02*
X146607142Y-71188472D01*
X146607142Y-71188472D02*
X146988094Y-71188472D01*
X145559523Y-70997996D02*
X145559523Y-71664663D01*
X145797618Y-70617044D02*
X146035713Y-71331329D01*
X146035713Y-71331329D02*
X145416666Y-71331329D01*
X144906666Y-73714663D02*
X145239999Y-73238472D01*
X145478094Y-73714663D02*
X145478094Y-72714663D01*
X145478094Y-72714663D02*
X145097142Y-72714663D01*
X145097142Y-72714663D02*
X145001904Y-72762282D01*
X145001904Y-72762282D02*
X144954285Y-72809901D01*
X144954285Y-72809901D02*
X144906666Y-72905139D01*
X144906666Y-72905139D02*
X144906666Y-73047996D01*
X144906666Y-73047996D02*
X144954285Y-73143234D01*
X144954285Y-73143234D02*
X145001904Y-73190853D01*
X145001904Y-73190853D02*
X145097142Y-73238472D01*
X145097142Y-73238472D02*
X145478094Y-73238472D01*
X144049523Y-72714663D02*
X144239999Y-72714663D01*
X144239999Y-72714663D02*
X144335237Y-72762282D01*
X144335237Y-72762282D02*
X144382856Y-72809901D01*
X144382856Y-72809901D02*
X144478094Y-72952758D01*
X144478094Y-72952758D02*
X144525713Y-73143234D01*
X144525713Y-73143234D02*
X144525713Y-73524186D01*
X144525713Y-73524186D02*
X144478094Y-73619424D01*
X144478094Y-73619424D02*
X144430475Y-73667044D01*
X144430475Y-73667044D02*
X144335237Y-73714663D01*
X144335237Y-73714663D02*
X144144761Y-73714663D01*
X144144761Y-73714663D02*
X144049523Y-73667044D01*
X144049523Y-73667044D02*
X144001904Y-73619424D01*
X144001904Y-73619424D02*
X143954285Y-73524186D01*
X143954285Y-73524186D02*
X143954285Y-73286091D01*
X143954285Y-73286091D02*
X144001904Y-73190853D01*
X144001904Y-73190853D02*
X144049523Y-73143234D01*
X144049523Y-73143234D02*
X144144761Y-73095615D01*
X144144761Y-73095615D02*
X144335237Y-73095615D01*
X144335237Y-73095615D02*
X144430475Y-73143234D01*
X144430475Y-73143234D02*
X144478094Y-73190853D01*
X144478094Y-73190853D02*
X144525713Y-73286091D01*
X131446666Y-53244663D02*
X131779999Y-52768472D01*
X132018094Y-53244663D02*
X132018094Y-52244663D01*
X132018094Y-52244663D02*
X131637142Y-52244663D01*
X131637142Y-52244663D02*
X131541904Y-52292282D01*
X131541904Y-52292282D02*
X131494285Y-52339901D01*
X131494285Y-52339901D02*
X131446666Y-52435139D01*
X131446666Y-52435139D02*
X131446666Y-52577996D01*
X131446666Y-52577996D02*
X131494285Y-52673234D01*
X131494285Y-52673234D02*
X131541904Y-52720853D01*
X131541904Y-52720853D02*
X131637142Y-52768472D01*
X131637142Y-52768472D02*
X132018094Y-52768472D01*
X131113332Y-52244663D02*
X130446666Y-52244663D01*
X130446666Y-52244663D02*
X130875237Y-53244663D01*
X145264663Y-52313333D02*
X144788472Y-51980000D01*
X145264663Y-51741905D02*
X144264663Y-51741905D01*
X144264663Y-51741905D02*
X144264663Y-52122857D01*
X144264663Y-52122857D02*
X144312282Y-52218095D01*
X144312282Y-52218095D02*
X144359901Y-52265714D01*
X144359901Y-52265714D02*
X144455139Y-52313333D01*
X144455139Y-52313333D02*
X144597996Y-52313333D01*
X144597996Y-52313333D02*
X144693234Y-52265714D01*
X144693234Y-52265714D02*
X144740853Y-52218095D01*
X144740853Y-52218095D02*
X144788472Y-52122857D01*
X144788472Y-52122857D02*
X144788472Y-51741905D01*
X145264663Y-52789524D02*
X145264663Y-52980000D01*
X145264663Y-52980000D02*
X145217044Y-53075238D01*
X145217044Y-53075238D02*
X145169424Y-53122857D01*
X145169424Y-53122857D02*
X145026567Y-53218095D01*
X145026567Y-53218095D02*
X144836091Y-53265714D01*
X144836091Y-53265714D02*
X144455139Y-53265714D01*
X144455139Y-53265714D02*
X144359901Y-53218095D01*
X144359901Y-53218095D02*
X144312282Y-53170476D01*
X144312282Y-53170476D02*
X144264663Y-53075238D01*
X144264663Y-53075238D02*
X144264663Y-52884762D01*
X144264663Y-52884762D02*
X144312282Y-52789524D01*
X144312282Y-52789524D02*
X144359901Y-52741905D01*
X144359901Y-52741905D02*
X144455139Y-52694286D01*
X144455139Y-52694286D02*
X144693234Y-52694286D01*
X144693234Y-52694286D02*
X144788472Y-52741905D01*
X144788472Y-52741905D02*
X144836091Y-52789524D01*
X144836091Y-52789524D02*
X144883710Y-52884762D01*
X144883710Y-52884762D02*
X144883710Y-53075238D01*
X144883710Y-53075238D02*
X144836091Y-53170476D01*
X144836091Y-53170476D02*
X144788472Y-53218095D01*
X144788472Y-53218095D02*
X144693234Y-53265714D01*
X150541904Y-58569663D02*
X150541904Y-59379186D01*
X150541904Y-59379186D02*
X150494285Y-59474424D01*
X150494285Y-59474424D02*
X150446666Y-59522044D01*
X150446666Y-59522044D02*
X150351428Y-59569663D01*
X150351428Y-59569663D02*
X150160952Y-59569663D01*
X150160952Y-59569663D02*
X150065714Y-59522044D01*
X150065714Y-59522044D02*
X150018095Y-59474424D01*
X150018095Y-59474424D02*
X149970476Y-59379186D01*
X149970476Y-59379186D02*
X149970476Y-58569663D01*
X149541904Y-58664901D02*
X149494285Y-58617282D01*
X149494285Y-58617282D02*
X149399047Y-58569663D01*
X149399047Y-58569663D02*
X149160952Y-58569663D01*
X149160952Y-58569663D02*
X149065714Y-58617282D01*
X149065714Y-58617282D02*
X149018095Y-58664901D01*
X149018095Y-58664901D02*
X148970476Y-58760139D01*
X148970476Y-58760139D02*
X148970476Y-58855377D01*
X148970476Y-58855377D02*
X149018095Y-58998234D01*
X149018095Y-58998234D02*
X149589523Y-59569663D01*
X149589523Y-59569663D02*
X148970476Y-59569663D01*
X119951904Y-70394663D02*
X119951904Y-71204186D01*
X119951904Y-71204186D02*
X119904285Y-71299424D01*
X119904285Y-71299424D02*
X119856666Y-71347044D01*
X119856666Y-71347044D02*
X119761428Y-71394663D01*
X119761428Y-71394663D02*
X119570952Y-71394663D01*
X119570952Y-71394663D02*
X119475714Y-71347044D01*
X119475714Y-71347044D02*
X119428095Y-71299424D01*
X119428095Y-71299424D02*
X119380476Y-71204186D01*
X119380476Y-71204186D02*
X119380476Y-70394663D01*
X118475714Y-70727996D02*
X118475714Y-71394663D01*
X118713809Y-70347044D02*
X118951904Y-71061329D01*
X118951904Y-71061329D02*
X118332857Y-71061329D01*
D10*
X134092857Y-59064819D02*
X134426190Y-58588628D01*
X134664285Y-59064819D02*
X134664285Y-58064819D01*
X134664285Y-58064819D02*
X134283333Y-58064819D01*
X134283333Y-58064819D02*
X134188095Y-58112438D01*
X134188095Y-58112438D02*
X134140476Y-58160057D01*
X134140476Y-58160057D02*
X134092857Y-58255295D01*
X134092857Y-58255295D02*
X134092857Y-58398152D01*
X134092857Y-58398152D02*
X134140476Y-58493390D01*
X134140476Y-58493390D02*
X134188095Y-58541009D01*
X134188095Y-58541009D02*
X134283333Y-58588628D01*
X134283333Y-58588628D02*
X134664285Y-58588628D01*
X133711904Y-58160057D02*
X133664285Y-58112438D01*
X133664285Y-58112438D02*
X133569047Y-58064819D01*
X133569047Y-58064819D02*
X133330952Y-58064819D01*
X133330952Y-58064819D02*
X133235714Y-58112438D01*
X133235714Y-58112438D02*
X133188095Y-58160057D01*
X133188095Y-58160057D02*
X133140476Y-58255295D01*
X133140476Y-58255295D02*
X133140476Y-58350533D01*
X133140476Y-58350533D02*
X133188095Y-58493390D01*
X133188095Y-58493390D02*
X133759523Y-59064819D01*
X133759523Y-59064819D02*
X133140476Y-59064819D01*
X132521428Y-58064819D02*
X132426190Y-58064819D01*
X132426190Y-58064819D02*
X132330952Y-58112438D01*
X132330952Y-58112438D02*
X132283333Y-58160057D01*
X132283333Y-58160057D02*
X132235714Y-58255295D01*
X132235714Y-58255295D02*
X132188095Y-58445771D01*
X132188095Y-58445771D02*
X132188095Y-58683866D01*
X132188095Y-58683866D02*
X132235714Y-58874342D01*
X132235714Y-58874342D02*
X132283333Y-58969580D01*
X132283333Y-58969580D02*
X132330952Y-59017200D01*
X132330952Y-59017200D02*
X132426190Y-59064819D01*
X132426190Y-59064819D02*
X132521428Y-59064819D01*
X132521428Y-59064819D02*
X132616666Y-59017200D01*
X132616666Y-59017200D02*
X132664285Y-58969580D01*
X132664285Y-58969580D02*
X132711904Y-58874342D01*
X132711904Y-58874342D02*
X132759523Y-58683866D01*
X132759523Y-58683866D02*
X132759523Y-58445771D01*
X132759523Y-58445771D02*
X132711904Y-58255295D01*
X132711904Y-58255295D02*
X132664285Y-58160057D01*
X132664285Y-58160057D02*
X132616666Y-58112438D01*
X132616666Y-58112438D02*
X132521428Y-58064819D01*
X157872295Y-56115714D02*
X157491342Y-55849047D01*
X157872295Y-55658571D02*
X157072295Y-55658571D01*
X157072295Y-55658571D02*
X157072295Y-55963333D01*
X157072295Y-55963333D02*
X157110390Y-56039523D01*
X157110390Y-56039523D02*
X157148485Y-56077618D01*
X157148485Y-56077618D02*
X157224676Y-56115714D01*
X157224676Y-56115714D02*
X157338961Y-56115714D01*
X157338961Y-56115714D02*
X157415152Y-56077618D01*
X157415152Y-56077618D02*
X157453247Y-56039523D01*
X157453247Y-56039523D02*
X157491342Y-55963333D01*
X157491342Y-55963333D02*
X157491342Y-55658571D01*
X157872295Y-56877618D02*
X157872295Y-56420475D01*
X157872295Y-56649047D02*
X157072295Y-56649047D01*
X157072295Y-56649047D02*
X157186580Y-56572856D01*
X157186580Y-56572856D02*
X157262771Y-56496666D01*
X157262771Y-56496666D02*
X157300866Y-56420475D01*
X157415152Y-57334761D02*
X157377057Y-57258571D01*
X157377057Y-57258571D02*
X157338961Y-57220476D01*
X157338961Y-57220476D02*
X157262771Y-57182380D01*
X157262771Y-57182380D02*
X157224676Y-57182380D01*
X157224676Y-57182380D02*
X157148485Y-57220476D01*
X157148485Y-57220476D02*
X157110390Y-57258571D01*
X157110390Y-57258571D02*
X157072295Y-57334761D01*
X157072295Y-57334761D02*
X157072295Y-57487142D01*
X157072295Y-57487142D02*
X157110390Y-57563333D01*
X157110390Y-57563333D02*
X157148485Y-57601428D01*
X157148485Y-57601428D02*
X157224676Y-57639523D01*
X157224676Y-57639523D02*
X157262771Y-57639523D01*
X157262771Y-57639523D02*
X157338961Y-57601428D01*
X157338961Y-57601428D02*
X157377057Y-57563333D01*
X157377057Y-57563333D02*
X157415152Y-57487142D01*
X157415152Y-57487142D02*
X157415152Y-57334761D01*
X157415152Y-57334761D02*
X157453247Y-57258571D01*
X157453247Y-57258571D02*
X157491342Y-57220476D01*
X157491342Y-57220476D02*
X157567533Y-57182380D01*
X157567533Y-57182380D02*
X157719914Y-57182380D01*
X157719914Y-57182380D02*
X157796104Y-57220476D01*
X157796104Y-57220476D02*
X157834200Y-57258571D01*
X157834200Y-57258571D02*
X157872295Y-57334761D01*
X157872295Y-57334761D02*
X157872295Y-57487142D01*
X157872295Y-57487142D02*
X157834200Y-57563333D01*
X157834200Y-57563333D02*
X157796104Y-57601428D01*
X157796104Y-57601428D02*
X157719914Y-57639523D01*
X157719914Y-57639523D02*
X157567533Y-57639523D01*
X157567533Y-57639523D02*
X157491342Y-57601428D01*
X157491342Y-57601428D02*
X157453247Y-57563333D01*
X157453247Y-57563333D02*
X157415152Y-57487142D01*
X160594819Y-55317142D02*
X160118628Y-54983809D01*
X160594819Y-54745714D02*
X159594819Y-54745714D01*
X159594819Y-54745714D02*
X159594819Y-55126666D01*
X159594819Y-55126666D02*
X159642438Y-55221904D01*
X159642438Y-55221904D02*
X159690057Y-55269523D01*
X159690057Y-55269523D02*
X159785295Y-55317142D01*
X159785295Y-55317142D02*
X159928152Y-55317142D01*
X159928152Y-55317142D02*
X160023390Y-55269523D01*
X160023390Y-55269523D02*
X160071009Y-55221904D01*
X160071009Y-55221904D02*
X160118628Y-55126666D01*
X160118628Y-55126666D02*
X160118628Y-54745714D01*
X160594819Y-56269523D02*
X160594819Y-55698095D01*
X160594819Y-55983809D02*
X159594819Y-55983809D01*
X159594819Y-55983809D02*
X159737676Y-55888571D01*
X159737676Y-55888571D02*
X159832914Y-55793333D01*
X159832914Y-55793333D02*
X159880533Y-55698095D01*
X160594819Y-56745714D02*
X160594819Y-56936190D01*
X160594819Y-56936190D02*
X160547200Y-57031428D01*
X160547200Y-57031428D02*
X160499580Y-57079047D01*
X160499580Y-57079047D02*
X160356723Y-57174285D01*
X160356723Y-57174285D02*
X160166247Y-57221904D01*
X160166247Y-57221904D02*
X159785295Y-57221904D01*
X159785295Y-57221904D02*
X159690057Y-57174285D01*
X159690057Y-57174285D02*
X159642438Y-57126666D01*
X159642438Y-57126666D02*
X159594819Y-57031428D01*
X159594819Y-57031428D02*
X159594819Y-56840952D01*
X159594819Y-56840952D02*
X159642438Y-56745714D01*
X159642438Y-56745714D02*
X159690057Y-56698095D01*
X159690057Y-56698095D02*
X159785295Y-56650476D01*
X159785295Y-56650476D02*
X160023390Y-56650476D01*
X160023390Y-56650476D02*
X160118628Y-56698095D01*
X160118628Y-56698095D02*
X160166247Y-56745714D01*
X160166247Y-56745714D02*
X160213866Y-56840952D01*
X160213866Y-56840952D02*
X160213866Y-57031428D01*
X160213866Y-57031428D02*
X160166247Y-57126666D01*
X160166247Y-57126666D02*
X160118628Y-57174285D01*
X160118628Y-57174285D02*
X160023390Y-57221904D01*
X102206666Y-55294819D02*
X102682856Y-55294819D01*
X102682856Y-55294819D02*
X102682856Y-54294819D01*
X101349523Y-55294819D02*
X101920951Y-55294819D01*
X101635237Y-55294819D02*
X101635237Y-54294819D01*
X101635237Y-54294819D02*
X101730475Y-54437676D01*
X101730475Y-54437676D02*
X101825713Y-54532914D01*
X101825713Y-54532914D02*
X101920951Y-54580533D01*
X95852857Y-68929580D02*
X95900476Y-68977200D01*
X95900476Y-68977200D02*
X96043333Y-69024819D01*
X96043333Y-69024819D02*
X96138571Y-69024819D01*
X96138571Y-69024819D02*
X96281428Y-68977200D01*
X96281428Y-68977200D02*
X96376666Y-68881961D01*
X96376666Y-68881961D02*
X96424285Y-68786723D01*
X96424285Y-68786723D02*
X96471904Y-68596247D01*
X96471904Y-68596247D02*
X96471904Y-68453390D01*
X96471904Y-68453390D02*
X96424285Y-68262914D01*
X96424285Y-68262914D02*
X96376666Y-68167676D01*
X96376666Y-68167676D02*
X96281428Y-68072438D01*
X96281428Y-68072438D02*
X96138571Y-68024819D01*
X96138571Y-68024819D02*
X96043333Y-68024819D01*
X96043333Y-68024819D02*
X95900476Y-68072438D01*
X95900476Y-68072438D02*
X95852857Y-68120057D01*
X94900476Y-69024819D02*
X95471904Y-69024819D01*
X95186190Y-69024819D02*
X95186190Y-68024819D01*
X95186190Y-68024819D02*
X95281428Y-68167676D01*
X95281428Y-68167676D02*
X95376666Y-68262914D01*
X95376666Y-68262914D02*
X95471904Y-68310533D01*
X93995714Y-68024819D02*
X94471904Y-68024819D01*
X94471904Y-68024819D02*
X94519523Y-68501009D01*
X94519523Y-68501009D02*
X94471904Y-68453390D01*
X94471904Y-68453390D02*
X94376666Y-68405771D01*
X94376666Y-68405771D02*
X94138571Y-68405771D01*
X94138571Y-68405771D02*
X94043333Y-68453390D01*
X94043333Y-68453390D02*
X93995714Y-68501009D01*
X93995714Y-68501009D02*
X93948095Y-68596247D01*
X93948095Y-68596247D02*
X93948095Y-68834342D01*
X93948095Y-68834342D02*
X93995714Y-68929580D01*
X93995714Y-68929580D02*
X94043333Y-68977200D01*
X94043333Y-68977200D02*
X94138571Y-69024819D01*
X94138571Y-69024819D02*
X94376666Y-69024819D01*
X94376666Y-69024819D02*
X94471904Y-68977200D01*
X94471904Y-68977200D02*
X94519523Y-68929580D01*
X107702857Y-71214819D02*
X108036190Y-70738628D01*
X108274285Y-71214819D02*
X108274285Y-70214819D01*
X108274285Y-70214819D02*
X107893333Y-70214819D01*
X107893333Y-70214819D02*
X107798095Y-70262438D01*
X107798095Y-70262438D02*
X107750476Y-70310057D01*
X107750476Y-70310057D02*
X107702857Y-70405295D01*
X107702857Y-70405295D02*
X107702857Y-70548152D01*
X107702857Y-70548152D02*
X107750476Y-70643390D01*
X107750476Y-70643390D02*
X107798095Y-70691009D01*
X107798095Y-70691009D02*
X107893333Y-70738628D01*
X107893333Y-70738628D02*
X108274285Y-70738628D01*
X107369523Y-70214819D02*
X106750476Y-70214819D01*
X106750476Y-70214819D02*
X107083809Y-70595771D01*
X107083809Y-70595771D02*
X106940952Y-70595771D01*
X106940952Y-70595771D02*
X106845714Y-70643390D01*
X106845714Y-70643390D02*
X106798095Y-70691009D01*
X106798095Y-70691009D02*
X106750476Y-70786247D01*
X106750476Y-70786247D02*
X106750476Y-71024342D01*
X106750476Y-71024342D02*
X106798095Y-71119580D01*
X106798095Y-71119580D02*
X106845714Y-71167200D01*
X106845714Y-71167200D02*
X106940952Y-71214819D01*
X106940952Y-71214819D02*
X107226666Y-71214819D01*
X107226666Y-71214819D02*
X107321904Y-71167200D01*
X107321904Y-71167200D02*
X107369523Y-71119580D01*
X105798095Y-71214819D02*
X106369523Y-71214819D01*
X106083809Y-71214819D02*
X106083809Y-70214819D01*
X106083809Y-70214819D02*
X106179047Y-70357676D01*
X106179047Y-70357676D02*
X106274285Y-70452914D01*
X106274285Y-70452914D02*
X106369523Y-70500533D01*
X151524819Y-70042142D02*
X151048628Y-69708809D01*
X151524819Y-69470714D02*
X150524819Y-69470714D01*
X150524819Y-69470714D02*
X150524819Y-69851666D01*
X150524819Y-69851666D02*
X150572438Y-69946904D01*
X150572438Y-69946904D02*
X150620057Y-69994523D01*
X150620057Y-69994523D02*
X150715295Y-70042142D01*
X150715295Y-70042142D02*
X150858152Y-70042142D01*
X150858152Y-70042142D02*
X150953390Y-69994523D01*
X150953390Y-69994523D02*
X151001009Y-69946904D01*
X151001009Y-69946904D02*
X151048628Y-69851666D01*
X151048628Y-69851666D02*
X151048628Y-69470714D01*
X151524819Y-70994523D02*
X151524819Y-70423095D01*
X151524819Y-70708809D02*
X150524819Y-70708809D01*
X150524819Y-70708809D02*
X150667676Y-70613571D01*
X150667676Y-70613571D02*
X150762914Y-70518333D01*
X150762914Y-70518333D02*
X150810533Y-70423095D01*
X150858152Y-71851666D02*
X151524819Y-71851666D01*
X150477200Y-71613571D02*
X151191485Y-71375476D01*
X151191485Y-71375476D02*
X151191485Y-71994523D01*
D13*
X135093332Y-62287318D02*
X135093332Y-63194461D01*
X135093332Y-63194461D02*
X135153809Y-63375889D01*
X135153809Y-63375889D02*
X135274761Y-63496842D01*
X135274761Y-63496842D02*
X135456190Y-63557318D01*
X135456190Y-63557318D02*
X135577142Y-63557318D01*
X133823332Y-63557318D02*
X134549047Y-63557318D01*
X134186190Y-63557318D02*
X134186190Y-62287318D01*
X134186190Y-62287318D02*
X134307142Y-62468746D01*
X134307142Y-62468746D02*
X134428094Y-62589699D01*
X134428094Y-62589699D02*
X134549047Y-62650175D01*
D10*
X107517857Y-65429819D02*
X107851190Y-64953628D01*
X108089285Y-65429819D02*
X108089285Y-64429819D01*
X108089285Y-64429819D02*
X107708333Y-64429819D01*
X107708333Y-64429819D02*
X107613095Y-64477438D01*
X107613095Y-64477438D02*
X107565476Y-64525057D01*
X107565476Y-64525057D02*
X107517857Y-64620295D01*
X107517857Y-64620295D02*
X107517857Y-64763152D01*
X107517857Y-64763152D02*
X107565476Y-64858390D01*
X107565476Y-64858390D02*
X107613095Y-64906009D01*
X107613095Y-64906009D02*
X107708333Y-64953628D01*
X107708333Y-64953628D02*
X108089285Y-64953628D01*
X107136904Y-64525057D02*
X107089285Y-64477438D01*
X107089285Y-64477438D02*
X106994047Y-64429819D01*
X106994047Y-64429819D02*
X106755952Y-64429819D01*
X106755952Y-64429819D02*
X106660714Y-64477438D01*
X106660714Y-64477438D02*
X106613095Y-64525057D01*
X106613095Y-64525057D02*
X106565476Y-64620295D01*
X106565476Y-64620295D02*
X106565476Y-64715533D01*
X106565476Y-64715533D02*
X106613095Y-64858390D01*
X106613095Y-64858390D02*
X107184523Y-65429819D01*
X107184523Y-65429819D02*
X106565476Y-65429819D01*
X106232142Y-64429819D02*
X105565476Y-64429819D01*
X105565476Y-64429819D02*
X105994047Y-65429819D01*
X128478094Y-58744819D02*
X128478094Y-57744819D01*
X128478094Y-57744819D02*
X128239999Y-57744819D01*
X128239999Y-57744819D02*
X128097142Y-57792438D01*
X128097142Y-57792438D02*
X128001904Y-57887676D01*
X128001904Y-57887676D02*
X127954285Y-57982914D01*
X127954285Y-57982914D02*
X127906666Y-58173390D01*
X127906666Y-58173390D02*
X127906666Y-58316247D01*
X127906666Y-58316247D02*
X127954285Y-58506723D01*
X127954285Y-58506723D02*
X128001904Y-58601961D01*
X128001904Y-58601961D02*
X128097142Y-58697200D01*
X128097142Y-58697200D02*
X128239999Y-58744819D01*
X128239999Y-58744819D02*
X128478094Y-58744819D01*
X126954285Y-58744819D02*
X127525713Y-58744819D01*
X127239999Y-58744819D02*
X127239999Y-57744819D01*
X127239999Y-57744819D02*
X127335237Y-57887676D01*
X127335237Y-57887676D02*
X127430475Y-57982914D01*
X127430475Y-57982914D02*
X127525713Y-58030533D01*
X158892295Y-67085714D02*
X158511342Y-66819047D01*
X158892295Y-66628571D02*
X158092295Y-66628571D01*
X158092295Y-66628571D02*
X158092295Y-66933333D01*
X158092295Y-66933333D02*
X158130390Y-67009523D01*
X158130390Y-67009523D02*
X158168485Y-67047618D01*
X158168485Y-67047618D02*
X158244676Y-67085714D01*
X158244676Y-67085714D02*
X158358961Y-67085714D01*
X158358961Y-67085714D02*
X158435152Y-67047618D01*
X158435152Y-67047618D02*
X158473247Y-67009523D01*
X158473247Y-67009523D02*
X158511342Y-66933333D01*
X158511342Y-66933333D02*
X158511342Y-66628571D01*
X158892295Y-67847618D02*
X158892295Y-67390475D01*
X158892295Y-67619047D02*
X158092295Y-67619047D01*
X158092295Y-67619047D02*
X158206580Y-67542856D01*
X158206580Y-67542856D02*
X158282771Y-67466666D01*
X158282771Y-67466666D02*
X158320866Y-67390475D01*
X158092295Y-68342857D02*
X158092295Y-68419047D01*
X158092295Y-68419047D02*
X158130390Y-68495238D01*
X158130390Y-68495238D02*
X158168485Y-68533333D01*
X158168485Y-68533333D02*
X158244676Y-68571428D01*
X158244676Y-68571428D02*
X158397057Y-68609523D01*
X158397057Y-68609523D02*
X158587533Y-68609523D01*
X158587533Y-68609523D02*
X158739914Y-68571428D01*
X158739914Y-68571428D02*
X158816104Y-68533333D01*
X158816104Y-68533333D02*
X158854200Y-68495238D01*
X158854200Y-68495238D02*
X158892295Y-68419047D01*
X158892295Y-68419047D02*
X158892295Y-68342857D01*
X158892295Y-68342857D02*
X158854200Y-68266666D01*
X158854200Y-68266666D02*
X158816104Y-68228571D01*
X158816104Y-68228571D02*
X158739914Y-68190476D01*
X158739914Y-68190476D02*
X158587533Y-68152380D01*
X158587533Y-68152380D02*
X158397057Y-68152380D01*
X158397057Y-68152380D02*
X158244676Y-68190476D01*
X158244676Y-68190476D02*
X158168485Y-68228571D01*
X158168485Y-68228571D02*
X158130390Y-68266666D01*
X158130390Y-68266666D02*
X158092295Y-68342857D01*
X107642857Y-60774819D02*
X107976190Y-60298628D01*
X108214285Y-60774819D02*
X108214285Y-59774819D01*
X108214285Y-59774819D02*
X107833333Y-59774819D01*
X107833333Y-59774819D02*
X107738095Y-59822438D01*
X107738095Y-59822438D02*
X107690476Y-59870057D01*
X107690476Y-59870057D02*
X107642857Y-59965295D01*
X107642857Y-59965295D02*
X107642857Y-60108152D01*
X107642857Y-60108152D02*
X107690476Y-60203390D01*
X107690476Y-60203390D02*
X107738095Y-60251009D01*
X107738095Y-60251009D02*
X107833333Y-60298628D01*
X107833333Y-60298628D02*
X108214285Y-60298628D01*
X107261904Y-59870057D02*
X107214285Y-59822438D01*
X107214285Y-59822438D02*
X107119047Y-59774819D01*
X107119047Y-59774819D02*
X106880952Y-59774819D01*
X106880952Y-59774819D02*
X106785714Y-59822438D01*
X106785714Y-59822438D02*
X106738095Y-59870057D01*
X106738095Y-59870057D02*
X106690476Y-59965295D01*
X106690476Y-59965295D02*
X106690476Y-60060533D01*
X106690476Y-60060533D02*
X106738095Y-60203390D01*
X106738095Y-60203390D02*
X107309523Y-60774819D01*
X107309523Y-60774819D02*
X106690476Y-60774819D01*
X105833333Y-60108152D02*
X105833333Y-60774819D01*
X106071428Y-59727200D02*
X106309523Y-60441485D01*
X106309523Y-60441485D02*
X105690476Y-60441485D01*
X112406666Y-52779580D02*
X112454285Y-52827200D01*
X112454285Y-52827200D02*
X112597142Y-52874819D01*
X112597142Y-52874819D02*
X112692380Y-52874819D01*
X112692380Y-52874819D02*
X112835237Y-52827200D01*
X112835237Y-52827200D02*
X112930475Y-52731961D01*
X112930475Y-52731961D02*
X112978094Y-52636723D01*
X112978094Y-52636723D02*
X113025713Y-52446247D01*
X113025713Y-52446247D02*
X113025713Y-52303390D01*
X113025713Y-52303390D02*
X112978094Y-52112914D01*
X112978094Y-52112914D02*
X112930475Y-52017676D01*
X112930475Y-52017676D02*
X112835237Y-51922438D01*
X112835237Y-51922438D02*
X112692380Y-51874819D01*
X112692380Y-51874819D02*
X112597142Y-51874819D01*
X112597142Y-51874819D02*
X112454285Y-51922438D01*
X112454285Y-51922438D02*
X112406666Y-51970057D01*
X111835237Y-52303390D02*
X111930475Y-52255771D01*
X111930475Y-52255771D02*
X111978094Y-52208152D01*
X111978094Y-52208152D02*
X112025713Y-52112914D01*
X112025713Y-52112914D02*
X112025713Y-52065295D01*
X112025713Y-52065295D02*
X111978094Y-51970057D01*
X111978094Y-51970057D02*
X111930475Y-51922438D01*
X111930475Y-51922438D02*
X111835237Y-51874819D01*
X111835237Y-51874819D02*
X111644761Y-51874819D01*
X111644761Y-51874819D02*
X111549523Y-51922438D01*
X111549523Y-51922438D02*
X111501904Y-51970057D01*
X111501904Y-51970057D02*
X111454285Y-52065295D01*
X111454285Y-52065295D02*
X111454285Y-52112914D01*
X111454285Y-52112914D02*
X111501904Y-52208152D01*
X111501904Y-52208152D02*
X111549523Y-52255771D01*
X111549523Y-52255771D02*
X111644761Y-52303390D01*
X111644761Y-52303390D02*
X111835237Y-52303390D01*
X111835237Y-52303390D02*
X111930475Y-52351009D01*
X111930475Y-52351009D02*
X111978094Y-52398628D01*
X111978094Y-52398628D02*
X112025713Y-52493866D01*
X112025713Y-52493866D02*
X112025713Y-52684342D01*
X112025713Y-52684342D02*
X111978094Y-52779580D01*
X111978094Y-52779580D02*
X111930475Y-52827200D01*
X111930475Y-52827200D02*
X111835237Y-52874819D01*
X111835237Y-52874819D02*
X111644761Y-52874819D01*
X111644761Y-52874819D02*
X111549523Y-52827200D01*
X111549523Y-52827200D02*
X111501904Y-52779580D01*
X111501904Y-52779580D02*
X111454285Y-52684342D01*
X111454285Y-52684342D02*
X111454285Y-52493866D01*
X111454285Y-52493866D02*
X111501904Y-52398628D01*
X111501904Y-52398628D02*
X111549523Y-52351009D01*
X111549523Y-52351009D02*
X111644761Y-52303390D01*
X106276666Y-52009580D02*
X106324285Y-52057200D01*
X106324285Y-52057200D02*
X106467142Y-52104819D01*
X106467142Y-52104819D02*
X106562380Y-52104819D01*
X106562380Y-52104819D02*
X106705237Y-52057200D01*
X106705237Y-52057200D02*
X106800475Y-51961961D01*
X106800475Y-51961961D02*
X106848094Y-51866723D01*
X106848094Y-51866723D02*
X106895713Y-51676247D01*
X106895713Y-51676247D02*
X106895713Y-51533390D01*
X106895713Y-51533390D02*
X106848094Y-51342914D01*
X106848094Y-51342914D02*
X106800475Y-51247676D01*
X106800475Y-51247676D02*
X106705237Y-51152438D01*
X106705237Y-51152438D02*
X106562380Y-51104819D01*
X106562380Y-51104819D02*
X106467142Y-51104819D01*
X106467142Y-51104819D02*
X106324285Y-51152438D01*
X106324285Y-51152438D02*
X106276666Y-51200057D01*
X105943332Y-51104819D02*
X105276666Y-51104819D01*
X105276666Y-51104819D02*
X105705237Y-52104819D01*
X153534819Y-70003333D02*
X153058628Y-69670000D01*
X153534819Y-69431905D02*
X152534819Y-69431905D01*
X152534819Y-69431905D02*
X152534819Y-69812857D01*
X152534819Y-69812857D02*
X152582438Y-69908095D01*
X152582438Y-69908095D02*
X152630057Y-69955714D01*
X152630057Y-69955714D02*
X152725295Y-70003333D01*
X152725295Y-70003333D02*
X152868152Y-70003333D01*
X152868152Y-70003333D02*
X152963390Y-69955714D01*
X152963390Y-69955714D02*
X153011009Y-69908095D01*
X153011009Y-69908095D02*
X153058628Y-69812857D01*
X153058628Y-69812857D02*
X153058628Y-69431905D01*
X152534819Y-70336667D02*
X152534819Y-70955714D01*
X152534819Y-70955714D02*
X152915771Y-70622381D01*
X152915771Y-70622381D02*
X152915771Y-70765238D01*
X152915771Y-70765238D02*
X152963390Y-70860476D01*
X152963390Y-70860476D02*
X153011009Y-70908095D01*
X153011009Y-70908095D02*
X153106247Y-70955714D01*
X153106247Y-70955714D02*
X153344342Y-70955714D01*
X153344342Y-70955714D02*
X153439580Y-70908095D01*
X153439580Y-70908095D02*
X153487200Y-70860476D01*
X153487200Y-70860476D02*
X153534819Y-70765238D01*
X153534819Y-70765238D02*
X153534819Y-70479524D01*
X153534819Y-70479524D02*
X153487200Y-70384286D01*
X153487200Y-70384286D02*
X153439580Y-70336667D01*
X116261904Y-58154819D02*
X116261904Y-58964342D01*
X116261904Y-58964342D02*
X116214285Y-59059580D01*
X116214285Y-59059580D02*
X116166666Y-59107200D01*
X116166666Y-59107200D02*
X116071428Y-59154819D01*
X116071428Y-59154819D02*
X115880952Y-59154819D01*
X115880952Y-59154819D02*
X115785714Y-59107200D01*
X115785714Y-59107200D02*
X115738095Y-59059580D01*
X115738095Y-59059580D02*
X115690476Y-58964342D01*
X115690476Y-58964342D02*
X115690476Y-58154819D01*
X114738095Y-58154819D02*
X115214285Y-58154819D01*
X115214285Y-58154819D02*
X115261904Y-58631009D01*
X115261904Y-58631009D02*
X115214285Y-58583390D01*
X115214285Y-58583390D02*
X115119047Y-58535771D01*
X115119047Y-58535771D02*
X114880952Y-58535771D01*
X114880952Y-58535771D02*
X114785714Y-58583390D01*
X114785714Y-58583390D02*
X114738095Y-58631009D01*
X114738095Y-58631009D02*
X114690476Y-58726247D01*
X114690476Y-58726247D02*
X114690476Y-58964342D01*
X114690476Y-58964342D02*
X114738095Y-59059580D01*
X114738095Y-59059580D02*
X114785714Y-59107200D01*
X114785714Y-59107200D02*
X114880952Y-59154819D01*
X114880952Y-59154819D02*
X115119047Y-59154819D01*
X115119047Y-59154819D02*
X115214285Y-59107200D01*
X115214285Y-59107200D02*
X115261904Y-59059580D01*
X95054819Y-72236666D02*
X95769104Y-72236666D01*
X95769104Y-72236666D02*
X95911961Y-72189047D01*
X95911961Y-72189047D02*
X96007200Y-72093809D01*
X96007200Y-72093809D02*
X96054819Y-71950952D01*
X96054819Y-71950952D02*
X96054819Y-71855714D01*
X96054819Y-72712857D02*
X95054819Y-72712857D01*
X95054819Y-72712857D02*
X95054819Y-73093809D01*
X95054819Y-73093809D02*
X95102438Y-73189047D01*
X95102438Y-73189047D02*
X95150057Y-73236666D01*
X95150057Y-73236666D02*
X95245295Y-73284285D01*
X95245295Y-73284285D02*
X95388152Y-73284285D01*
X95388152Y-73284285D02*
X95483390Y-73236666D01*
X95483390Y-73236666D02*
X95531009Y-73189047D01*
X95531009Y-73189047D02*
X95578628Y-73093809D01*
X95578628Y-73093809D02*
X95578628Y-72712857D01*
X96054819Y-74236666D02*
X96054819Y-73665238D01*
X96054819Y-73950952D02*
X95054819Y-73950952D01*
X95054819Y-73950952D02*
X95197676Y-73855714D01*
X95197676Y-73855714D02*
X95292914Y-73760476D01*
X95292914Y-73760476D02*
X95340533Y-73665238D01*
X149454819Y-72827142D02*
X148978628Y-72493809D01*
X149454819Y-72255714D02*
X148454819Y-72255714D01*
X148454819Y-72255714D02*
X148454819Y-72636666D01*
X148454819Y-72636666D02*
X148502438Y-72731904D01*
X148502438Y-72731904D02*
X148550057Y-72779523D01*
X148550057Y-72779523D02*
X148645295Y-72827142D01*
X148645295Y-72827142D02*
X148788152Y-72827142D01*
X148788152Y-72827142D02*
X148883390Y-72779523D01*
X148883390Y-72779523D02*
X148931009Y-72731904D01*
X148931009Y-72731904D02*
X148978628Y-72636666D01*
X148978628Y-72636666D02*
X148978628Y-72255714D01*
X149454819Y-73779523D02*
X149454819Y-73208095D01*
X149454819Y-73493809D02*
X148454819Y-73493809D01*
X148454819Y-73493809D02*
X148597676Y-73398571D01*
X148597676Y-73398571D02*
X148692914Y-73303333D01*
X148692914Y-73303333D02*
X148740533Y-73208095D01*
X148454819Y-74636666D02*
X148454819Y-74446190D01*
X148454819Y-74446190D02*
X148502438Y-74350952D01*
X148502438Y-74350952D02*
X148550057Y-74303333D01*
X148550057Y-74303333D02*
X148692914Y-74208095D01*
X148692914Y-74208095D02*
X148883390Y-74160476D01*
X148883390Y-74160476D02*
X149264342Y-74160476D01*
X149264342Y-74160476D02*
X149359580Y-74208095D01*
X149359580Y-74208095D02*
X149407200Y-74255714D01*
X149407200Y-74255714D02*
X149454819Y-74350952D01*
X149454819Y-74350952D02*
X149454819Y-74541428D01*
X149454819Y-74541428D02*
X149407200Y-74636666D01*
X149407200Y-74636666D02*
X149359580Y-74684285D01*
X149359580Y-74684285D02*
X149264342Y-74731904D01*
X149264342Y-74731904D02*
X149026247Y-74731904D01*
X149026247Y-74731904D02*
X148931009Y-74684285D01*
X148931009Y-74684285D02*
X148883390Y-74636666D01*
X148883390Y-74636666D02*
X148835771Y-74541428D01*
X148835771Y-74541428D02*
X148835771Y-74350952D01*
X148835771Y-74350952D02*
X148883390Y-74255714D01*
X148883390Y-74255714D02*
X148931009Y-74208095D01*
X148931009Y-74208095D02*
X149026247Y-74160476D01*
X107692857Y-62374819D02*
X108026190Y-61898628D01*
X108264285Y-62374819D02*
X108264285Y-61374819D01*
X108264285Y-61374819D02*
X107883333Y-61374819D01*
X107883333Y-61374819D02*
X107788095Y-61422438D01*
X107788095Y-61422438D02*
X107740476Y-61470057D01*
X107740476Y-61470057D02*
X107692857Y-61565295D01*
X107692857Y-61565295D02*
X107692857Y-61708152D01*
X107692857Y-61708152D02*
X107740476Y-61803390D01*
X107740476Y-61803390D02*
X107788095Y-61851009D01*
X107788095Y-61851009D02*
X107883333Y-61898628D01*
X107883333Y-61898628D02*
X108264285Y-61898628D01*
X107311904Y-61470057D02*
X107264285Y-61422438D01*
X107264285Y-61422438D02*
X107169047Y-61374819D01*
X107169047Y-61374819D02*
X106930952Y-61374819D01*
X106930952Y-61374819D02*
X106835714Y-61422438D01*
X106835714Y-61422438D02*
X106788095Y-61470057D01*
X106788095Y-61470057D02*
X106740476Y-61565295D01*
X106740476Y-61565295D02*
X106740476Y-61660533D01*
X106740476Y-61660533D02*
X106788095Y-61803390D01*
X106788095Y-61803390D02*
X107359523Y-62374819D01*
X107359523Y-62374819D02*
X106740476Y-62374819D01*
X105835714Y-61374819D02*
X106311904Y-61374819D01*
X106311904Y-61374819D02*
X106359523Y-61851009D01*
X106359523Y-61851009D02*
X106311904Y-61803390D01*
X106311904Y-61803390D02*
X106216666Y-61755771D01*
X106216666Y-61755771D02*
X105978571Y-61755771D01*
X105978571Y-61755771D02*
X105883333Y-61803390D01*
X105883333Y-61803390D02*
X105835714Y-61851009D01*
X105835714Y-61851009D02*
X105788095Y-61946247D01*
X105788095Y-61946247D02*
X105788095Y-62184342D01*
X105788095Y-62184342D02*
X105835714Y-62279580D01*
X105835714Y-62279580D02*
X105883333Y-62327200D01*
X105883333Y-62327200D02*
X105978571Y-62374819D01*
X105978571Y-62374819D02*
X106216666Y-62374819D01*
X106216666Y-62374819D02*
X106311904Y-62327200D01*
X106311904Y-62327200D02*
X106359523Y-62279580D01*
X107652857Y-66854819D02*
X107986190Y-66378628D01*
X108224285Y-66854819D02*
X108224285Y-65854819D01*
X108224285Y-65854819D02*
X107843333Y-65854819D01*
X107843333Y-65854819D02*
X107748095Y-65902438D01*
X107748095Y-65902438D02*
X107700476Y-65950057D01*
X107700476Y-65950057D02*
X107652857Y-66045295D01*
X107652857Y-66045295D02*
X107652857Y-66188152D01*
X107652857Y-66188152D02*
X107700476Y-66283390D01*
X107700476Y-66283390D02*
X107748095Y-66331009D01*
X107748095Y-66331009D02*
X107843333Y-66378628D01*
X107843333Y-66378628D02*
X108224285Y-66378628D01*
X107271904Y-65950057D02*
X107224285Y-65902438D01*
X107224285Y-65902438D02*
X107129047Y-65854819D01*
X107129047Y-65854819D02*
X106890952Y-65854819D01*
X106890952Y-65854819D02*
X106795714Y-65902438D01*
X106795714Y-65902438D02*
X106748095Y-65950057D01*
X106748095Y-65950057D02*
X106700476Y-66045295D01*
X106700476Y-66045295D02*
X106700476Y-66140533D01*
X106700476Y-66140533D02*
X106748095Y-66283390D01*
X106748095Y-66283390D02*
X107319523Y-66854819D01*
X107319523Y-66854819D02*
X106700476Y-66854819D01*
X106129047Y-66283390D02*
X106224285Y-66235771D01*
X106224285Y-66235771D02*
X106271904Y-66188152D01*
X106271904Y-66188152D02*
X106319523Y-66092914D01*
X106319523Y-66092914D02*
X106319523Y-66045295D01*
X106319523Y-66045295D02*
X106271904Y-65950057D01*
X106271904Y-65950057D02*
X106224285Y-65902438D01*
X106224285Y-65902438D02*
X106129047Y-65854819D01*
X106129047Y-65854819D02*
X105938571Y-65854819D01*
X105938571Y-65854819D02*
X105843333Y-65902438D01*
X105843333Y-65902438D02*
X105795714Y-65950057D01*
X105795714Y-65950057D02*
X105748095Y-66045295D01*
X105748095Y-66045295D02*
X105748095Y-66092914D01*
X105748095Y-66092914D02*
X105795714Y-66188152D01*
X105795714Y-66188152D02*
X105843333Y-66235771D01*
X105843333Y-66235771D02*
X105938571Y-66283390D01*
X105938571Y-66283390D02*
X106129047Y-66283390D01*
X106129047Y-66283390D02*
X106224285Y-66331009D01*
X106224285Y-66331009D02*
X106271904Y-66378628D01*
X106271904Y-66378628D02*
X106319523Y-66473866D01*
X106319523Y-66473866D02*
X106319523Y-66664342D01*
X106319523Y-66664342D02*
X106271904Y-66759580D01*
X106271904Y-66759580D02*
X106224285Y-66807200D01*
X106224285Y-66807200D02*
X106129047Y-66854819D01*
X106129047Y-66854819D02*
X105938571Y-66854819D01*
X105938571Y-66854819D02*
X105843333Y-66807200D01*
X105843333Y-66807200D02*
X105795714Y-66759580D01*
X105795714Y-66759580D02*
X105748095Y-66664342D01*
X105748095Y-66664342D02*
X105748095Y-66473866D01*
X105748095Y-66473866D02*
X105795714Y-66378628D01*
X105795714Y-66378628D02*
X105843333Y-66331009D01*
X105843333Y-66331009D02*
X105938571Y-66283390D01*
X107637857Y-69939819D02*
X107971190Y-69463628D01*
X108209285Y-69939819D02*
X108209285Y-68939819D01*
X108209285Y-68939819D02*
X107828333Y-68939819D01*
X107828333Y-68939819D02*
X107733095Y-68987438D01*
X107733095Y-68987438D02*
X107685476Y-69035057D01*
X107685476Y-69035057D02*
X107637857Y-69130295D01*
X107637857Y-69130295D02*
X107637857Y-69273152D01*
X107637857Y-69273152D02*
X107685476Y-69368390D01*
X107685476Y-69368390D02*
X107733095Y-69416009D01*
X107733095Y-69416009D02*
X107828333Y-69463628D01*
X107828333Y-69463628D02*
X108209285Y-69463628D01*
X107304523Y-68939819D02*
X106685476Y-68939819D01*
X106685476Y-68939819D02*
X107018809Y-69320771D01*
X107018809Y-69320771D02*
X106875952Y-69320771D01*
X106875952Y-69320771D02*
X106780714Y-69368390D01*
X106780714Y-69368390D02*
X106733095Y-69416009D01*
X106733095Y-69416009D02*
X106685476Y-69511247D01*
X106685476Y-69511247D02*
X106685476Y-69749342D01*
X106685476Y-69749342D02*
X106733095Y-69844580D01*
X106733095Y-69844580D02*
X106780714Y-69892200D01*
X106780714Y-69892200D02*
X106875952Y-69939819D01*
X106875952Y-69939819D02*
X107161666Y-69939819D01*
X107161666Y-69939819D02*
X107256904Y-69892200D01*
X107256904Y-69892200D02*
X107304523Y-69844580D01*
X106066428Y-68939819D02*
X105971190Y-68939819D01*
X105971190Y-68939819D02*
X105875952Y-68987438D01*
X105875952Y-68987438D02*
X105828333Y-69035057D01*
X105828333Y-69035057D02*
X105780714Y-69130295D01*
X105780714Y-69130295D02*
X105733095Y-69320771D01*
X105733095Y-69320771D02*
X105733095Y-69558866D01*
X105733095Y-69558866D02*
X105780714Y-69749342D01*
X105780714Y-69749342D02*
X105828333Y-69844580D01*
X105828333Y-69844580D02*
X105875952Y-69892200D01*
X105875952Y-69892200D02*
X105971190Y-69939819D01*
X105971190Y-69939819D02*
X106066428Y-69939819D01*
X106066428Y-69939819D02*
X106161666Y-69892200D01*
X106161666Y-69892200D02*
X106209285Y-69844580D01*
X106209285Y-69844580D02*
X106256904Y-69749342D01*
X106256904Y-69749342D02*
X106304523Y-69558866D01*
X106304523Y-69558866D02*
X106304523Y-69320771D01*
X106304523Y-69320771D02*
X106256904Y-69130295D01*
X106256904Y-69130295D02*
X106209285Y-69035057D01*
X106209285Y-69035057D02*
X106161666Y-68987438D01*
X106161666Y-68987438D02*
X106066428Y-68939819D01*
X159194819Y-70237142D02*
X158718628Y-69903809D01*
X159194819Y-69665714D02*
X158194819Y-69665714D01*
X158194819Y-69665714D02*
X158194819Y-70046666D01*
X158194819Y-70046666D02*
X158242438Y-70141904D01*
X158242438Y-70141904D02*
X158290057Y-70189523D01*
X158290057Y-70189523D02*
X158385295Y-70237142D01*
X158385295Y-70237142D02*
X158528152Y-70237142D01*
X158528152Y-70237142D02*
X158623390Y-70189523D01*
X158623390Y-70189523D02*
X158671009Y-70141904D01*
X158671009Y-70141904D02*
X158718628Y-70046666D01*
X158718628Y-70046666D02*
X158718628Y-69665714D01*
X158194819Y-70570476D02*
X158194819Y-71189523D01*
X158194819Y-71189523D02*
X158575771Y-70856190D01*
X158575771Y-70856190D02*
X158575771Y-70999047D01*
X158575771Y-70999047D02*
X158623390Y-71094285D01*
X158623390Y-71094285D02*
X158671009Y-71141904D01*
X158671009Y-71141904D02*
X158766247Y-71189523D01*
X158766247Y-71189523D02*
X159004342Y-71189523D01*
X159004342Y-71189523D02*
X159099580Y-71141904D01*
X159099580Y-71141904D02*
X159147200Y-71094285D01*
X159147200Y-71094285D02*
X159194819Y-70999047D01*
X159194819Y-70999047D02*
X159194819Y-70713333D01*
X159194819Y-70713333D02*
X159147200Y-70618095D01*
X159147200Y-70618095D02*
X159099580Y-70570476D01*
X158290057Y-71570476D02*
X158242438Y-71618095D01*
X158242438Y-71618095D02*
X158194819Y-71713333D01*
X158194819Y-71713333D02*
X158194819Y-71951428D01*
X158194819Y-71951428D02*
X158242438Y-72046666D01*
X158242438Y-72046666D02*
X158290057Y-72094285D01*
X158290057Y-72094285D02*
X158385295Y-72141904D01*
X158385295Y-72141904D02*
X158480533Y-72141904D01*
X158480533Y-72141904D02*
X158623390Y-72094285D01*
X158623390Y-72094285D02*
X159194819Y-71522857D01*
X159194819Y-71522857D02*
X159194819Y-72141904D01*
X171116666Y-70769580D02*
X171164285Y-70817200D01*
X171164285Y-70817200D02*
X171307142Y-70864819D01*
X171307142Y-70864819D02*
X171402380Y-70864819D01*
X171402380Y-70864819D02*
X171545237Y-70817200D01*
X171545237Y-70817200D02*
X171640475Y-70721961D01*
X171640475Y-70721961D02*
X171688094Y-70626723D01*
X171688094Y-70626723D02*
X171735713Y-70436247D01*
X171735713Y-70436247D02*
X171735713Y-70293390D01*
X171735713Y-70293390D02*
X171688094Y-70102914D01*
X171688094Y-70102914D02*
X171640475Y-70007676D01*
X171640475Y-70007676D02*
X171545237Y-69912438D01*
X171545237Y-69912438D02*
X171402380Y-69864819D01*
X171402380Y-69864819D02*
X171307142Y-69864819D01*
X171307142Y-69864819D02*
X171164285Y-69912438D01*
X171164285Y-69912438D02*
X171116666Y-69960057D01*
X170640475Y-70864819D02*
X170449999Y-70864819D01*
X170449999Y-70864819D02*
X170354761Y-70817200D01*
X170354761Y-70817200D02*
X170307142Y-70769580D01*
X170307142Y-70769580D02*
X170211904Y-70626723D01*
X170211904Y-70626723D02*
X170164285Y-70436247D01*
X170164285Y-70436247D02*
X170164285Y-70055295D01*
X170164285Y-70055295D02*
X170211904Y-69960057D01*
X170211904Y-69960057D02*
X170259523Y-69912438D01*
X170259523Y-69912438D02*
X170354761Y-69864819D01*
X170354761Y-69864819D02*
X170545237Y-69864819D01*
X170545237Y-69864819D02*
X170640475Y-69912438D01*
X170640475Y-69912438D02*
X170688094Y-69960057D01*
X170688094Y-69960057D02*
X170735713Y-70055295D01*
X170735713Y-70055295D02*
X170735713Y-70293390D01*
X170735713Y-70293390D02*
X170688094Y-70388628D01*
X170688094Y-70388628D02*
X170640475Y-70436247D01*
X170640475Y-70436247D02*
X170545237Y-70483866D01*
X170545237Y-70483866D02*
X170354761Y-70483866D01*
X170354761Y-70483866D02*
X170259523Y-70436247D01*
X170259523Y-70436247D02*
X170211904Y-70388628D01*
X170211904Y-70388628D02*
X170164285Y-70293390D01*
X126694819Y-54847142D02*
X126218628Y-54513809D01*
X126694819Y-54275714D02*
X125694819Y-54275714D01*
X125694819Y-54275714D02*
X125694819Y-54656666D01*
X125694819Y-54656666D02*
X125742438Y-54751904D01*
X125742438Y-54751904D02*
X125790057Y-54799523D01*
X125790057Y-54799523D02*
X125885295Y-54847142D01*
X125885295Y-54847142D02*
X126028152Y-54847142D01*
X126028152Y-54847142D02*
X126123390Y-54799523D01*
X126123390Y-54799523D02*
X126171009Y-54751904D01*
X126171009Y-54751904D02*
X126218628Y-54656666D01*
X126218628Y-54656666D02*
X126218628Y-54275714D01*
X126694819Y-55799523D02*
X126694819Y-55228095D01*
X126694819Y-55513809D02*
X125694819Y-55513809D01*
X125694819Y-55513809D02*
X125837676Y-55418571D01*
X125837676Y-55418571D02*
X125932914Y-55323333D01*
X125932914Y-55323333D02*
X125980533Y-55228095D01*
X125694819Y-56132857D02*
X125694819Y-56799523D01*
X125694819Y-56799523D02*
X126694819Y-56370952D01*
X168323333Y-53964819D02*
X168323333Y-54679104D01*
X168323333Y-54679104D02*
X168370952Y-54821961D01*
X168370952Y-54821961D02*
X168466190Y-54917200D01*
X168466190Y-54917200D02*
X168609047Y-54964819D01*
X168609047Y-54964819D02*
X168704285Y-54964819D01*
X167847142Y-54964819D02*
X167847142Y-53964819D01*
X167847142Y-53964819D02*
X167466190Y-53964819D01*
X167466190Y-53964819D02*
X167370952Y-54012438D01*
X167370952Y-54012438D02*
X167323333Y-54060057D01*
X167323333Y-54060057D02*
X167275714Y-54155295D01*
X167275714Y-54155295D02*
X167275714Y-54298152D01*
X167275714Y-54298152D02*
X167323333Y-54393390D01*
X167323333Y-54393390D02*
X167370952Y-54441009D01*
X167370952Y-54441009D02*
X167466190Y-54488628D01*
X167466190Y-54488628D02*
X167847142Y-54488628D01*
X166894761Y-54060057D02*
X166847142Y-54012438D01*
X166847142Y-54012438D02*
X166751904Y-53964819D01*
X166751904Y-53964819D02*
X166513809Y-53964819D01*
X166513809Y-53964819D02*
X166418571Y-54012438D01*
X166418571Y-54012438D02*
X166370952Y-54060057D01*
X166370952Y-54060057D02*
X166323333Y-54155295D01*
X166323333Y-54155295D02*
X166323333Y-54250533D01*
X166323333Y-54250533D02*
X166370952Y-54393390D01*
X166370952Y-54393390D02*
X166942380Y-54964819D01*
X166942380Y-54964819D02*
X166323333Y-54964819D01*
D12*
X121042857Y-53159424D02*
X121090476Y-53207044D01*
X121090476Y-53207044D02*
X121233333Y-53254663D01*
X121233333Y-53254663D02*
X121328571Y-53254663D01*
X121328571Y-53254663D02*
X121471428Y-53207044D01*
X121471428Y-53207044D02*
X121566666Y-53111805D01*
X121566666Y-53111805D02*
X121614285Y-53016567D01*
X121614285Y-53016567D02*
X121661904Y-52826091D01*
X121661904Y-52826091D02*
X121661904Y-52683234D01*
X121661904Y-52683234D02*
X121614285Y-52492758D01*
X121614285Y-52492758D02*
X121566666Y-52397520D01*
X121566666Y-52397520D02*
X121471428Y-52302282D01*
X121471428Y-52302282D02*
X121328571Y-52254663D01*
X121328571Y-52254663D02*
X121233333Y-52254663D01*
X121233333Y-52254663D02*
X121090476Y-52302282D01*
X121090476Y-52302282D02*
X121042857Y-52349901D01*
X120090476Y-53254663D02*
X120661904Y-53254663D01*
X120376190Y-53254663D02*
X120376190Y-52254663D01*
X120376190Y-52254663D02*
X120471428Y-52397520D01*
X120471428Y-52397520D02*
X120566666Y-52492758D01*
X120566666Y-52492758D02*
X120661904Y-52540377D01*
X119138095Y-53254663D02*
X119709523Y-53254663D01*
X119423809Y-53254663D02*
X119423809Y-52254663D01*
X119423809Y-52254663D02*
X119519047Y-52397520D01*
X119519047Y-52397520D02*
X119614285Y-52492758D01*
X119614285Y-52492758D02*
X119709523Y-52540377D01*
D10*
X164839580Y-51947142D02*
X164887200Y-51899523D01*
X164887200Y-51899523D02*
X164934819Y-51756666D01*
X164934819Y-51756666D02*
X164934819Y-51661428D01*
X164934819Y-51661428D02*
X164887200Y-51518571D01*
X164887200Y-51518571D02*
X164791961Y-51423333D01*
X164791961Y-51423333D02*
X164696723Y-51375714D01*
X164696723Y-51375714D02*
X164506247Y-51328095D01*
X164506247Y-51328095D02*
X164363390Y-51328095D01*
X164363390Y-51328095D02*
X164172914Y-51375714D01*
X164172914Y-51375714D02*
X164077676Y-51423333D01*
X164077676Y-51423333D02*
X163982438Y-51518571D01*
X163982438Y-51518571D02*
X163934819Y-51661428D01*
X163934819Y-51661428D02*
X163934819Y-51756666D01*
X163934819Y-51756666D02*
X163982438Y-51899523D01*
X163982438Y-51899523D02*
X164030057Y-51947142D01*
X164934819Y-52899523D02*
X164934819Y-52328095D01*
X164934819Y-52613809D02*
X163934819Y-52613809D01*
X163934819Y-52613809D02*
X164077676Y-52518571D01*
X164077676Y-52518571D02*
X164172914Y-52423333D01*
X164172914Y-52423333D02*
X164220533Y-52328095D01*
X164268152Y-53756666D02*
X164934819Y-53756666D01*
X163887200Y-53518571D02*
X164601485Y-53280476D01*
X164601485Y-53280476D02*
X164601485Y-53899523D01*
X141544819Y-53367142D02*
X141068628Y-53033809D01*
X141544819Y-52795714D02*
X140544819Y-52795714D01*
X140544819Y-52795714D02*
X140544819Y-53176666D01*
X140544819Y-53176666D02*
X140592438Y-53271904D01*
X140592438Y-53271904D02*
X140640057Y-53319523D01*
X140640057Y-53319523D02*
X140735295Y-53367142D01*
X140735295Y-53367142D02*
X140878152Y-53367142D01*
X140878152Y-53367142D02*
X140973390Y-53319523D01*
X140973390Y-53319523D02*
X141021009Y-53271904D01*
X141021009Y-53271904D02*
X141068628Y-53176666D01*
X141068628Y-53176666D02*
X141068628Y-52795714D01*
X140544819Y-53700476D02*
X140544819Y-54319523D01*
X140544819Y-54319523D02*
X140925771Y-53986190D01*
X140925771Y-53986190D02*
X140925771Y-54129047D01*
X140925771Y-54129047D02*
X140973390Y-54224285D01*
X140973390Y-54224285D02*
X141021009Y-54271904D01*
X141021009Y-54271904D02*
X141116247Y-54319523D01*
X141116247Y-54319523D02*
X141354342Y-54319523D01*
X141354342Y-54319523D02*
X141449580Y-54271904D01*
X141449580Y-54271904D02*
X141497200Y-54224285D01*
X141497200Y-54224285D02*
X141544819Y-54129047D01*
X141544819Y-54129047D02*
X141544819Y-53843333D01*
X141544819Y-53843333D02*
X141497200Y-53748095D01*
X141497200Y-53748095D02*
X141449580Y-53700476D01*
X140544819Y-55176666D02*
X140544819Y-54986190D01*
X140544819Y-54986190D02*
X140592438Y-54890952D01*
X140592438Y-54890952D02*
X140640057Y-54843333D01*
X140640057Y-54843333D02*
X140782914Y-54748095D01*
X140782914Y-54748095D02*
X140973390Y-54700476D01*
X140973390Y-54700476D02*
X141354342Y-54700476D01*
X141354342Y-54700476D02*
X141449580Y-54748095D01*
X141449580Y-54748095D02*
X141497200Y-54795714D01*
X141497200Y-54795714D02*
X141544819Y-54890952D01*
X141544819Y-54890952D02*
X141544819Y-55081428D01*
X141544819Y-55081428D02*
X141497200Y-55176666D01*
X141497200Y-55176666D02*
X141449580Y-55224285D01*
X141449580Y-55224285D02*
X141354342Y-55271904D01*
X141354342Y-55271904D02*
X141116247Y-55271904D01*
X141116247Y-55271904D02*
X141021009Y-55224285D01*
X141021009Y-55224285D02*
X140973390Y-55176666D01*
X140973390Y-55176666D02*
X140925771Y-55081428D01*
X140925771Y-55081428D02*
X140925771Y-54890952D01*
X140925771Y-54890952D02*
X140973390Y-54795714D01*
X140973390Y-54795714D02*
X141021009Y-54748095D01*
X141021009Y-54748095D02*
X141116247Y-54700476D01*
X145672857Y-66754819D02*
X146006190Y-66278628D01*
X146244285Y-66754819D02*
X146244285Y-65754819D01*
X146244285Y-65754819D02*
X145863333Y-65754819D01*
X145863333Y-65754819D02*
X145768095Y-65802438D01*
X145768095Y-65802438D02*
X145720476Y-65850057D01*
X145720476Y-65850057D02*
X145672857Y-65945295D01*
X145672857Y-65945295D02*
X145672857Y-66088152D01*
X145672857Y-66088152D02*
X145720476Y-66183390D01*
X145720476Y-66183390D02*
X145768095Y-66231009D01*
X145768095Y-66231009D02*
X145863333Y-66278628D01*
X145863333Y-66278628D02*
X146244285Y-66278628D01*
X145291904Y-65850057D02*
X145244285Y-65802438D01*
X145244285Y-65802438D02*
X145149047Y-65754819D01*
X145149047Y-65754819D02*
X144910952Y-65754819D01*
X144910952Y-65754819D02*
X144815714Y-65802438D01*
X144815714Y-65802438D02*
X144768095Y-65850057D01*
X144768095Y-65850057D02*
X144720476Y-65945295D01*
X144720476Y-65945295D02*
X144720476Y-66040533D01*
X144720476Y-66040533D02*
X144768095Y-66183390D01*
X144768095Y-66183390D02*
X145339523Y-66754819D01*
X145339523Y-66754819D02*
X144720476Y-66754819D01*
X144339523Y-65850057D02*
X144291904Y-65802438D01*
X144291904Y-65802438D02*
X144196666Y-65754819D01*
X144196666Y-65754819D02*
X143958571Y-65754819D01*
X143958571Y-65754819D02*
X143863333Y-65802438D01*
X143863333Y-65802438D02*
X143815714Y-65850057D01*
X143815714Y-65850057D02*
X143768095Y-65945295D01*
X143768095Y-65945295D02*
X143768095Y-66040533D01*
X143768095Y-66040533D02*
X143815714Y-66183390D01*
X143815714Y-66183390D02*
X144387142Y-66754819D01*
X144387142Y-66754819D02*
X143768095Y-66754819D01*
X107522857Y-63874819D02*
X107856190Y-63398628D01*
X108094285Y-63874819D02*
X108094285Y-62874819D01*
X108094285Y-62874819D02*
X107713333Y-62874819D01*
X107713333Y-62874819D02*
X107618095Y-62922438D01*
X107618095Y-62922438D02*
X107570476Y-62970057D01*
X107570476Y-62970057D02*
X107522857Y-63065295D01*
X107522857Y-63065295D02*
X107522857Y-63208152D01*
X107522857Y-63208152D02*
X107570476Y-63303390D01*
X107570476Y-63303390D02*
X107618095Y-63351009D01*
X107618095Y-63351009D02*
X107713333Y-63398628D01*
X107713333Y-63398628D02*
X108094285Y-63398628D01*
X107141904Y-62970057D02*
X107094285Y-62922438D01*
X107094285Y-62922438D02*
X106999047Y-62874819D01*
X106999047Y-62874819D02*
X106760952Y-62874819D01*
X106760952Y-62874819D02*
X106665714Y-62922438D01*
X106665714Y-62922438D02*
X106618095Y-62970057D01*
X106618095Y-62970057D02*
X106570476Y-63065295D01*
X106570476Y-63065295D02*
X106570476Y-63160533D01*
X106570476Y-63160533D02*
X106618095Y-63303390D01*
X106618095Y-63303390D02*
X107189523Y-63874819D01*
X107189523Y-63874819D02*
X106570476Y-63874819D01*
X105713333Y-62874819D02*
X105903809Y-62874819D01*
X105903809Y-62874819D02*
X105999047Y-62922438D01*
X105999047Y-62922438D02*
X106046666Y-62970057D01*
X106046666Y-62970057D02*
X106141904Y-63112914D01*
X106141904Y-63112914D02*
X106189523Y-63303390D01*
X106189523Y-63303390D02*
X106189523Y-63684342D01*
X106189523Y-63684342D02*
X106141904Y-63779580D01*
X106141904Y-63779580D02*
X106094285Y-63827200D01*
X106094285Y-63827200D02*
X105999047Y-63874819D01*
X105999047Y-63874819D02*
X105808571Y-63874819D01*
X105808571Y-63874819D02*
X105713333Y-63827200D01*
X105713333Y-63827200D02*
X105665714Y-63779580D01*
X105665714Y-63779580D02*
X105618095Y-63684342D01*
X105618095Y-63684342D02*
X105618095Y-63446247D01*
X105618095Y-63446247D02*
X105665714Y-63351009D01*
X105665714Y-63351009D02*
X105713333Y-63303390D01*
X105713333Y-63303390D02*
X105808571Y-63255771D01*
X105808571Y-63255771D02*
X105999047Y-63255771D01*
X105999047Y-63255771D02*
X106094285Y-63303390D01*
X106094285Y-63303390D02*
X106141904Y-63351009D01*
X106141904Y-63351009D02*
X106189523Y-63446247D01*
X137121904Y-53364819D02*
X137121904Y-54174342D01*
X137121904Y-54174342D02*
X137074285Y-54269580D01*
X137074285Y-54269580D02*
X137026666Y-54317200D01*
X137026666Y-54317200D02*
X136931428Y-54364819D01*
X136931428Y-54364819D02*
X136740952Y-54364819D01*
X136740952Y-54364819D02*
X136645714Y-54317200D01*
X136645714Y-54317200D02*
X136598095Y-54269580D01*
X136598095Y-54269580D02*
X136550476Y-54174342D01*
X136550476Y-54174342D02*
X136550476Y-53364819D01*
X135550476Y-54364819D02*
X136121904Y-54364819D01*
X135836190Y-54364819D02*
X135836190Y-53364819D01*
X135836190Y-53364819D02*
X135931428Y-53507676D01*
X135931428Y-53507676D02*
X136026666Y-53602914D01*
X136026666Y-53602914D02*
X136121904Y-53650533D01*
X149544819Y-69992142D02*
X149068628Y-69658809D01*
X149544819Y-69420714D02*
X148544819Y-69420714D01*
X148544819Y-69420714D02*
X148544819Y-69801666D01*
X148544819Y-69801666D02*
X148592438Y-69896904D01*
X148592438Y-69896904D02*
X148640057Y-69944523D01*
X148640057Y-69944523D02*
X148735295Y-69992142D01*
X148735295Y-69992142D02*
X148878152Y-69992142D01*
X148878152Y-69992142D02*
X148973390Y-69944523D01*
X148973390Y-69944523D02*
X149021009Y-69896904D01*
X149021009Y-69896904D02*
X149068628Y-69801666D01*
X149068628Y-69801666D02*
X149068628Y-69420714D01*
X148640057Y-70373095D02*
X148592438Y-70420714D01*
X148592438Y-70420714D02*
X148544819Y-70515952D01*
X148544819Y-70515952D02*
X148544819Y-70754047D01*
X148544819Y-70754047D02*
X148592438Y-70849285D01*
X148592438Y-70849285D02*
X148640057Y-70896904D01*
X148640057Y-70896904D02*
X148735295Y-70944523D01*
X148735295Y-70944523D02*
X148830533Y-70944523D01*
X148830533Y-70944523D02*
X148973390Y-70896904D01*
X148973390Y-70896904D02*
X149544819Y-70325476D01*
X149544819Y-70325476D02*
X149544819Y-70944523D01*
X149544819Y-71896904D02*
X149544819Y-71325476D01*
X149544819Y-71611190D02*
X148544819Y-71611190D01*
X148544819Y-71611190D02*
X148687676Y-71515952D01*
X148687676Y-71515952D02*
X148782914Y-71420714D01*
X148782914Y-71420714D02*
X148830533Y-71325476D01*
X165402857Y-57444819D02*
X165736190Y-56968628D01*
X165974285Y-57444819D02*
X165974285Y-56444819D01*
X165974285Y-56444819D02*
X165593333Y-56444819D01*
X165593333Y-56444819D02*
X165498095Y-56492438D01*
X165498095Y-56492438D02*
X165450476Y-56540057D01*
X165450476Y-56540057D02*
X165402857Y-56635295D01*
X165402857Y-56635295D02*
X165402857Y-56778152D01*
X165402857Y-56778152D02*
X165450476Y-56873390D01*
X165450476Y-56873390D02*
X165498095Y-56921009D01*
X165498095Y-56921009D02*
X165593333Y-56968628D01*
X165593333Y-56968628D02*
X165974285Y-56968628D01*
X164450476Y-57444819D02*
X165021904Y-57444819D01*
X164736190Y-57444819D02*
X164736190Y-56444819D01*
X164736190Y-56444819D02*
X164831428Y-56587676D01*
X164831428Y-56587676D02*
X164926666Y-56682914D01*
X164926666Y-56682914D02*
X165021904Y-56730533D01*
X163498095Y-57444819D02*
X164069523Y-57444819D01*
X163783809Y-57444819D02*
X163783809Y-56444819D01*
X163783809Y-56444819D02*
X163879047Y-56587676D01*
X163879047Y-56587676D02*
X163974285Y-56682914D01*
X163974285Y-56682914D02*
X164069523Y-56730533D01*
X162326666Y-60134819D02*
X162659999Y-59658628D01*
X162898094Y-60134819D02*
X162898094Y-59134819D01*
X162898094Y-59134819D02*
X162517142Y-59134819D01*
X162517142Y-59134819D02*
X162421904Y-59182438D01*
X162421904Y-59182438D02*
X162374285Y-59230057D01*
X162374285Y-59230057D02*
X162326666Y-59325295D01*
X162326666Y-59325295D02*
X162326666Y-59468152D01*
X162326666Y-59468152D02*
X162374285Y-59563390D01*
X162374285Y-59563390D02*
X162421904Y-59611009D01*
X162421904Y-59611009D02*
X162517142Y-59658628D01*
X162517142Y-59658628D02*
X162898094Y-59658628D01*
X161755237Y-59563390D02*
X161850475Y-59515771D01*
X161850475Y-59515771D02*
X161898094Y-59468152D01*
X161898094Y-59468152D02*
X161945713Y-59372914D01*
X161945713Y-59372914D02*
X161945713Y-59325295D01*
X161945713Y-59325295D02*
X161898094Y-59230057D01*
X161898094Y-59230057D02*
X161850475Y-59182438D01*
X161850475Y-59182438D02*
X161755237Y-59134819D01*
X161755237Y-59134819D02*
X161564761Y-59134819D01*
X161564761Y-59134819D02*
X161469523Y-59182438D01*
X161469523Y-59182438D02*
X161421904Y-59230057D01*
X161421904Y-59230057D02*
X161374285Y-59325295D01*
X161374285Y-59325295D02*
X161374285Y-59372914D01*
X161374285Y-59372914D02*
X161421904Y-59468152D01*
X161421904Y-59468152D02*
X161469523Y-59515771D01*
X161469523Y-59515771D02*
X161564761Y-59563390D01*
X161564761Y-59563390D02*
X161755237Y-59563390D01*
X161755237Y-59563390D02*
X161850475Y-59611009D01*
X161850475Y-59611009D02*
X161898094Y-59658628D01*
X161898094Y-59658628D02*
X161945713Y-59753866D01*
X161945713Y-59753866D02*
X161945713Y-59944342D01*
X161945713Y-59944342D02*
X161898094Y-60039580D01*
X161898094Y-60039580D02*
X161850475Y-60087200D01*
X161850475Y-60087200D02*
X161755237Y-60134819D01*
X161755237Y-60134819D02*
X161564761Y-60134819D01*
X161564761Y-60134819D02*
X161469523Y-60087200D01*
X161469523Y-60087200D02*
X161421904Y-60039580D01*
X161421904Y-60039580D02*
X161374285Y-59944342D01*
X161374285Y-59944342D02*
X161374285Y-59753866D01*
X161374285Y-59753866D02*
X161421904Y-59658628D01*
X161421904Y-59658628D02*
X161469523Y-59611009D01*
X161469523Y-59611009D02*
X161564761Y-59563390D01*
X146774819Y-68547142D02*
X146298628Y-68213809D01*
X146774819Y-67975714D02*
X145774819Y-67975714D01*
X145774819Y-67975714D02*
X145774819Y-68356666D01*
X145774819Y-68356666D02*
X145822438Y-68451904D01*
X145822438Y-68451904D02*
X145870057Y-68499523D01*
X145870057Y-68499523D02*
X145965295Y-68547142D01*
X145965295Y-68547142D02*
X146108152Y-68547142D01*
X146108152Y-68547142D02*
X146203390Y-68499523D01*
X146203390Y-68499523D02*
X146251009Y-68451904D01*
X146251009Y-68451904D02*
X146298628Y-68356666D01*
X146298628Y-68356666D02*
X146298628Y-67975714D01*
X145774819Y-68880476D02*
X145774819Y-69499523D01*
X145774819Y-69499523D02*
X146155771Y-69166190D01*
X146155771Y-69166190D02*
X146155771Y-69309047D01*
X146155771Y-69309047D02*
X146203390Y-69404285D01*
X146203390Y-69404285D02*
X146251009Y-69451904D01*
X146251009Y-69451904D02*
X146346247Y-69499523D01*
X146346247Y-69499523D02*
X146584342Y-69499523D01*
X146584342Y-69499523D02*
X146679580Y-69451904D01*
X146679580Y-69451904D02*
X146727200Y-69404285D01*
X146727200Y-69404285D02*
X146774819Y-69309047D01*
X146774819Y-69309047D02*
X146774819Y-69023333D01*
X146774819Y-69023333D02*
X146727200Y-68928095D01*
X146727200Y-68928095D02*
X146679580Y-68880476D01*
X145774819Y-70404285D02*
X145774819Y-69928095D01*
X145774819Y-69928095D02*
X146251009Y-69880476D01*
X146251009Y-69880476D02*
X146203390Y-69928095D01*
X146203390Y-69928095D02*
X146155771Y-70023333D01*
X146155771Y-70023333D02*
X146155771Y-70261428D01*
X146155771Y-70261428D02*
X146203390Y-70356666D01*
X146203390Y-70356666D02*
X146251009Y-70404285D01*
X146251009Y-70404285D02*
X146346247Y-70451904D01*
X146346247Y-70451904D02*
X146584342Y-70451904D01*
X146584342Y-70451904D02*
X146679580Y-70404285D01*
X146679580Y-70404285D02*
X146727200Y-70356666D01*
X146727200Y-70356666D02*
X146774819Y-70261428D01*
X146774819Y-70261428D02*
X146774819Y-70023333D01*
X146774819Y-70023333D02*
X146727200Y-69928095D01*
X146727200Y-69928095D02*
X146679580Y-69880476D01*
D12*
X138871904Y-67499663D02*
X138871904Y-68309186D01*
X138871904Y-68309186D02*
X138824285Y-68404424D01*
X138824285Y-68404424D02*
X138776666Y-68452044D01*
X138776666Y-68452044D02*
X138681428Y-68499663D01*
X138681428Y-68499663D02*
X138490952Y-68499663D01*
X138490952Y-68499663D02*
X138395714Y-68452044D01*
X138395714Y-68452044D02*
X138348095Y-68404424D01*
X138348095Y-68404424D02*
X138300476Y-68309186D01*
X138300476Y-68309186D02*
X138300476Y-67499663D01*
X137919523Y-67499663D02*
X137300476Y-67499663D01*
X137300476Y-67499663D02*
X137633809Y-67880615D01*
X137633809Y-67880615D02*
X137490952Y-67880615D01*
X137490952Y-67880615D02*
X137395714Y-67928234D01*
X137395714Y-67928234D02*
X137348095Y-67975853D01*
X137348095Y-67975853D02*
X137300476Y-68071091D01*
X137300476Y-68071091D02*
X137300476Y-68309186D01*
X137300476Y-68309186D02*
X137348095Y-68404424D01*
X137348095Y-68404424D02*
X137395714Y-68452044D01*
X137395714Y-68452044D02*
X137490952Y-68499663D01*
X137490952Y-68499663D02*
X137776666Y-68499663D01*
X137776666Y-68499663D02*
X137871904Y-68452044D01*
X137871904Y-68452044D02*
X137919523Y-68404424D01*
D10*
X155114819Y-70217142D02*
X154638628Y-69883809D01*
X155114819Y-69645714D02*
X154114819Y-69645714D01*
X154114819Y-69645714D02*
X154114819Y-70026666D01*
X154114819Y-70026666D02*
X154162438Y-70121904D01*
X154162438Y-70121904D02*
X154210057Y-70169523D01*
X154210057Y-70169523D02*
X154305295Y-70217142D01*
X154305295Y-70217142D02*
X154448152Y-70217142D01*
X154448152Y-70217142D02*
X154543390Y-70169523D01*
X154543390Y-70169523D02*
X154591009Y-70121904D01*
X154591009Y-70121904D02*
X154638628Y-70026666D01*
X154638628Y-70026666D02*
X154638628Y-69645714D01*
X154114819Y-70550476D02*
X154114819Y-71169523D01*
X154114819Y-71169523D02*
X154495771Y-70836190D01*
X154495771Y-70836190D02*
X154495771Y-70979047D01*
X154495771Y-70979047D02*
X154543390Y-71074285D01*
X154543390Y-71074285D02*
X154591009Y-71121904D01*
X154591009Y-71121904D02*
X154686247Y-71169523D01*
X154686247Y-71169523D02*
X154924342Y-71169523D01*
X154924342Y-71169523D02*
X155019580Y-71121904D01*
X155019580Y-71121904D02*
X155067200Y-71074285D01*
X155067200Y-71074285D02*
X155114819Y-70979047D01*
X155114819Y-70979047D02*
X155114819Y-70693333D01*
X155114819Y-70693333D02*
X155067200Y-70598095D01*
X155067200Y-70598095D02*
X155019580Y-70550476D01*
X154448152Y-72026666D02*
X155114819Y-72026666D01*
X154067200Y-71788571D02*
X154781485Y-71550476D01*
X154781485Y-71550476D02*
X154781485Y-72169523D01*
X156804819Y-70207142D02*
X156328628Y-69873809D01*
X156804819Y-69635714D02*
X155804819Y-69635714D01*
X155804819Y-69635714D02*
X155804819Y-70016666D01*
X155804819Y-70016666D02*
X155852438Y-70111904D01*
X155852438Y-70111904D02*
X155900057Y-70159523D01*
X155900057Y-70159523D02*
X155995295Y-70207142D01*
X155995295Y-70207142D02*
X156138152Y-70207142D01*
X156138152Y-70207142D02*
X156233390Y-70159523D01*
X156233390Y-70159523D02*
X156281009Y-70111904D01*
X156281009Y-70111904D02*
X156328628Y-70016666D01*
X156328628Y-70016666D02*
X156328628Y-69635714D01*
X155804819Y-70540476D02*
X155804819Y-71159523D01*
X155804819Y-71159523D02*
X156185771Y-70826190D01*
X156185771Y-70826190D02*
X156185771Y-70969047D01*
X156185771Y-70969047D02*
X156233390Y-71064285D01*
X156233390Y-71064285D02*
X156281009Y-71111904D01*
X156281009Y-71111904D02*
X156376247Y-71159523D01*
X156376247Y-71159523D02*
X156614342Y-71159523D01*
X156614342Y-71159523D02*
X156709580Y-71111904D01*
X156709580Y-71111904D02*
X156757200Y-71064285D01*
X156757200Y-71064285D02*
X156804819Y-70969047D01*
X156804819Y-70969047D02*
X156804819Y-70683333D01*
X156804819Y-70683333D02*
X156757200Y-70588095D01*
X156757200Y-70588095D02*
X156709580Y-70540476D01*
X155804819Y-71492857D02*
X155804819Y-72111904D01*
X155804819Y-72111904D02*
X156185771Y-71778571D01*
X156185771Y-71778571D02*
X156185771Y-71921428D01*
X156185771Y-71921428D02*
X156233390Y-72016666D01*
X156233390Y-72016666D02*
X156281009Y-72064285D01*
X156281009Y-72064285D02*
X156376247Y-72111904D01*
X156376247Y-72111904D02*
X156614342Y-72111904D01*
X156614342Y-72111904D02*
X156709580Y-72064285D01*
X156709580Y-72064285D02*
X156757200Y-72016666D01*
X156757200Y-72016666D02*
X156804819Y-71921428D01*
X156804819Y-71921428D02*
X156804819Y-71635714D01*
X156804819Y-71635714D02*
X156757200Y-71540476D01*
X156757200Y-71540476D02*
X156709580Y-71492857D01*
X97821009Y-53546666D02*
X97821009Y-53213333D01*
X98344819Y-53213333D02*
X97344819Y-53213333D01*
X97344819Y-53213333D02*
X97344819Y-53689523D01*
X98344819Y-54594285D02*
X98344819Y-54022857D01*
X98344819Y-54308571D02*
X97344819Y-54308571D01*
X97344819Y-54308571D02*
X97487676Y-54213333D01*
X97487676Y-54213333D02*
X97582914Y-54118095D01*
X97582914Y-54118095D02*
X97630533Y-54022857D01*
X156824819Y-67107142D02*
X156348628Y-66773809D01*
X156824819Y-66535714D02*
X155824819Y-66535714D01*
X155824819Y-66535714D02*
X155824819Y-66916666D01*
X155824819Y-66916666D02*
X155872438Y-67011904D01*
X155872438Y-67011904D02*
X155920057Y-67059523D01*
X155920057Y-67059523D02*
X156015295Y-67107142D01*
X156015295Y-67107142D02*
X156158152Y-67107142D01*
X156158152Y-67107142D02*
X156253390Y-67059523D01*
X156253390Y-67059523D02*
X156301009Y-67011904D01*
X156301009Y-67011904D02*
X156348628Y-66916666D01*
X156348628Y-66916666D02*
X156348628Y-66535714D01*
X155920057Y-67488095D02*
X155872438Y-67535714D01*
X155872438Y-67535714D02*
X155824819Y-67630952D01*
X155824819Y-67630952D02*
X155824819Y-67869047D01*
X155824819Y-67869047D02*
X155872438Y-67964285D01*
X155872438Y-67964285D02*
X155920057Y-68011904D01*
X155920057Y-68011904D02*
X156015295Y-68059523D01*
X156015295Y-68059523D02*
X156110533Y-68059523D01*
X156110533Y-68059523D02*
X156253390Y-68011904D01*
X156253390Y-68011904D02*
X156824819Y-67440476D01*
X156824819Y-67440476D02*
X156824819Y-68059523D01*
X155824819Y-68392857D02*
X155824819Y-69011904D01*
X155824819Y-69011904D02*
X156205771Y-68678571D01*
X156205771Y-68678571D02*
X156205771Y-68821428D01*
X156205771Y-68821428D02*
X156253390Y-68916666D01*
X156253390Y-68916666D02*
X156301009Y-68964285D01*
X156301009Y-68964285D02*
X156396247Y-69011904D01*
X156396247Y-69011904D02*
X156634342Y-69011904D01*
X156634342Y-69011904D02*
X156729580Y-68964285D01*
X156729580Y-68964285D02*
X156777200Y-68916666D01*
X156777200Y-68916666D02*
X156824819Y-68821428D01*
X156824819Y-68821428D02*
X156824819Y-68535714D01*
X156824819Y-68535714D02*
X156777200Y-68440476D01*
X156777200Y-68440476D02*
X156729580Y-68392857D01*
X107617857Y-68439819D02*
X107951190Y-67963628D01*
X108189285Y-68439819D02*
X108189285Y-67439819D01*
X108189285Y-67439819D02*
X107808333Y-67439819D01*
X107808333Y-67439819D02*
X107713095Y-67487438D01*
X107713095Y-67487438D02*
X107665476Y-67535057D01*
X107665476Y-67535057D02*
X107617857Y-67630295D01*
X107617857Y-67630295D02*
X107617857Y-67773152D01*
X107617857Y-67773152D02*
X107665476Y-67868390D01*
X107665476Y-67868390D02*
X107713095Y-67916009D01*
X107713095Y-67916009D02*
X107808333Y-67963628D01*
X107808333Y-67963628D02*
X108189285Y-67963628D01*
X107236904Y-67535057D02*
X107189285Y-67487438D01*
X107189285Y-67487438D02*
X107094047Y-67439819D01*
X107094047Y-67439819D02*
X106855952Y-67439819D01*
X106855952Y-67439819D02*
X106760714Y-67487438D01*
X106760714Y-67487438D02*
X106713095Y-67535057D01*
X106713095Y-67535057D02*
X106665476Y-67630295D01*
X106665476Y-67630295D02*
X106665476Y-67725533D01*
X106665476Y-67725533D02*
X106713095Y-67868390D01*
X106713095Y-67868390D02*
X107284523Y-68439819D01*
X107284523Y-68439819D02*
X106665476Y-68439819D01*
X106189285Y-68439819D02*
X105998809Y-68439819D01*
X105998809Y-68439819D02*
X105903571Y-68392200D01*
X105903571Y-68392200D02*
X105855952Y-68344580D01*
X105855952Y-68344580D02*
X105760714Y-68201723D01*
X105760714Y-68201723D02*
X105713095Y-68011247D01*
X105713095Y-68011247D02*
X105713095Y-67630295D01*
X105713095Y-67630295D02*
X105760714Y-67535057D01*
X105760714Y-67535057D02*
X105808333Y-67487438D01*
X105808333Y-67487438D02*
X105903571Y-67439819D01*
X105903571Y-67439819D02*
X106094047Y-67439819D01*
X106094047Y-67439819D02*
X106189285Y-67487438D01*
X106189285Y-67487438D02*
X106236904Y-67535057D01*
X106236904Y-67535057D02*
X106284523Y-67630295D01*
X106284523Y-67630295D02*
X106284523Y-67868390D01*
X106284523Y-67868390D02*
X106236904Y-67963628D01*
X106236904Y-67963628D02*
X106189285Y-68011247D01*
X106189285Y-68011247D02*
X106094047Y-68058866D01*
X106094047Y-68058866D02*
X105903571Y-68058866D01*
X105903571Y-68058866D02*
X105808333Y-68011247D01*
X105808333Y-68011247D02*
X105760714Y-67963628D01*
X105760714Y-67963628D02*
X105713095Y-67868390D01*
D14*
X93657500Y-53607258D02*
X93657500Y-53132742D01*
X94702500Y-53607258D02*
X94702500Y-53132742D01*
X124410000Y-73560580D02*
X124410000Y-73279420D01*
X125430000Y-73560580D02*
X125430000Y-73279420D01*
X104457258Y-72872500D02*
X103982742Y-72872500D01*
X104457258Y-71827500D02*
X103982742Y-71827500D01*
X130379420Y-51120000D02*
X130660580Y-51120000D01*
X130379420Y-52140000D02*
X130660580Y-52140000D01*
X142907500Y-68447258D02*
X142907500Y-67972742D01*
X143952500Y-68447258D02*
X143952500Y-67972742D01*
X107865000Y-73321252D02*
X107865000Y-72798748D01*
X109335000Y-73321252D02*
X109335000Y-72798748D01*
X168279420Y-69390000D02*
X168560580Y-69390000D01*
X168279420Y-70410000D02*
X168560580Y-70410000D01*
X173761252Y-70175000D02*
X173238748Y-70175000D01*
X173761252Y-68705000D02*
X173238748Y-68705000D01*
X155497500Y-54447258D02*
X155497500Y-53972742D01*
X156542500Y-54447258D02*
X156542500Y-53972742D01*
X96675000Y-57220000D02*
X93990000Y-57220000D01*
X96675000Y-55300000D02*
X96675000Y-57220000D01*
X93990000Y-55300000D02*
X96675000Y-55300000D01*
X125005000Y-52591252D02*
X125005000Y-52068748D01*
X126475000Y-52591252D02*
X126475000Y-52068748D01*
X158500000Y-52890580D02*
X158500000Y-52609420D01*
X159520000Y-52890580D02*
X159520000Y-52609420D01*
X117750000Y-58010000D02*
X117750000Y-55350000D01*
X119450000Y-58010000D02*
X117750000Y-58010000D01*
X119450000Y-58010000D02*
X119450000Y-55350000D01*
X156629420Y-51470000D02*
X156910580Y-51470000D01*
X156629420Y-52490000D02*
X156910580Y-52490000D01*
X143700000Y-72969420D02*
X143700000Y-73250580D01*
X142680000Y-72969420D02*
X142680000Y-73250580D01*
X143247258Y-56892500D02*
X142772742Y-56892500D01*
X143247258Y-55847500D02*
X142772742Y-55847500D01*
X133502500Y-70032742D02*
X133502500Y-70507258D01*
X132457500Y-70032742D02*
X132457500Y-70507258D01*
X143782742Y-70357500D02*
X144257258Y-70357500D01*
X143782742Y-71402500D02*
X144257258Y-71402500D01*
X144167500Y-73342258D02*
X144167500Y-72867742D01*
X145212500Y-73342258D02*
X145212500Y-72867742D01*
X129882742Y-53227500D02*
X130357258Y-53227500D01*
X129882742Y-54272500D02*
X130357258Y-54272500D01*
X144192500Y-52162742D02*
X144192500Y-52637258D01*
X143147500Y-52162742D02*
X143147500Y-52637258D01*
X152640000Y-58225000D02*
X152640000Y-57950000D01*
X152640000Y-51080000D02*
X154330000Y-51080000D01*
X152640000Y-50805000D02*
X152640000Y-51080000D01*
X149880000Y-58225000D02*
X152640000Y-58225000D01*
X149880000Y-58225000D02*
X147120000Y-58225000D01*
X149880000Y-50805000D02*
X152640000Y-50805000D01*
X149880000Y-50805000D02*
X147120000Y-50805000D01*
X147120000Y-58225000D02*
X147120000Y-57950000D01*
X147120000Y-50805000D02*
X147120000Y-51080000D01*
X151983553Y-51515000D02*
G75*
G03*
X151983553Y-51515000I-353553J0D01*
G01*
X116510000Y-67185000D02*
X116510000Y-67460000D01*
X116510000Y-74330000D02*
X114820000Y-74330000D01*
X116510000Y-74605000D02*
X116510000Y-74330000D01*
X119270000Y-67185000D02*
X116510000Y-67185000D01*
X119270000Y-67185000D02*
X122030000Y-67185000D01*
X119270000Y-74605000D02*
X116510000Y-74605000D01*
X119270000Y-74605000D02*
X122030000Y-74605000D01*
X122030000Y-67185000D02*
X122030000Y-67460000D01*
X122030000Y-74605000D02*
X122030000Y-74330000D01*
X117873553Y-73895000D02*
G75*
G03*
X117873553Y-73895000I-353553J0D01*
G01*
X136062742Y-57687500D02*
X136537258Y-57687500D01*
X136062742Y-58732500D02*
X136537258Y-58732500D01*
X158032500Y-53972742D02*
X158032500Y-54447258D01*
X156987500Y-53972742D02*
X156987500Y-54447258D01*
X158467500Y-56167258D02*
X158467500Y-55692742D01*
X159512500Y-56167258D02*
X159512500Y-55692742D01*
X102379622Y-53820000D02*
X101580378Y-53820000D01*
X102379622Y-52700000D02*
X101580378Y-52700000D01*
X97121252Y-70855000D02*
X96598748Y-70855000D01*
X97121252Y-69385000D02*
X96598748Y-69385000D01*
X104497258Y-71362500D02*
X104022742Y-71362500D01*
X104497258Y-70317500D02*
X104022742Y-70317500D01*
X150457500Y-68257258D02*
X150457500Y-67782742D01*
X151502500Y-68257258D02*
X151502500Y-67782742D01*
D15*
X93120000Y-61085000D02*
X99670000Y-54935000D01*
X93120000Y-64085000D02*
X93120000Y-61085000D01*
X99670000Y-70235000D02*
X93120000Y-64085000D01*
D16*
X108650000Y-65846000D02*
X108650000Y-65846000D01*
D15*
X169670000Y-54935000D02*
X176220000Y-61085000D01*
X176220000Y-61085000D02*
X176220000Y-64085000D01*
X176220000Y-64085000D02*
X169670000Y-70235000D01*
D16*
X108850000Y-65846000D02*
G75*
G03*
X108650000Y-65846000I-100000J0D01*
G01*
X108650000Y-65846000D02*
G75*
G03*
X108850000Y-65846000I100000J0D01*
G01*
D14*
X104487258Y-65372500D02*
X104012742Y-65372500D01*
X104487258Y-64327500D02*
X104012742Y-64327500D01*
X123870000Y-57390000D02*
X126530000Y-57390000D01*
X123870000Y-59090000D02*
X123870000Y-57390000D01*
X123870000Y-59090000D02*
X126530000Y-59090000D01*
X157037500Y-68237258D02*
X157037500Y-67762742D01*
X158082500Y-68237258D02*
X158082500Y-67762742D01*
X104527258Y-60932500D02*
X104052742Y-60932500D01*
X104527258Y-59887500D02*
X104052742Y-59887500D01*
X108465000Y-50890000D02*
X115400000Y-50890000D01*
X108465000Y-54310000D02*
X108465000Y-50890000D01*
X115400000Y-54310000D02*
X108465000Y-54310000D01*
X106451252Y-54025000D02*
X105928748Y-54025000D01*
X106451252Y-52555000D02*
X105928748Y-52555000D01*
X152547500Y-68237258D02*
X152547500Y-67762742D01*
X153592500Y-68237258D02*
X153592500Y-67762742D01*
X115500000Y-54740000D02*
X114700000Y-54740000D01*
X115500000Y-54740000D02*
X116300000Y-54740000D01*
X115500000Y-57860000D02*
X113700000Y-57860000D01*
X115500000Y-57860000D02*
X116300000Y-57860000D01*
X96700000Y-74445000D02*
X96700000Y-71785000D01*
X99300000Y-74445000D02*
X96700000Y-74445000D01*
X99300000Y-74445000D02*
X99300000Y-71785000D01*
X100570000Y-74445000D02*
X101900000Y-74445000D01*
X101900000Y-74445000D02*
X101900000Y-73115000D01*
X99300000Y-71785000D02*
X96700000Y-71785000D01*
X148182500Y-72952742D02*
X148182500Y-73427258D01*
X147137500Y-72952742D02*
X147137500Y-73427258D01*
X104547258Y-62412500D02*
X104072742Y-62412500D01*
X104547258Y-61367500D02*
X104072742Y-61367500D01*
X104487258Y-66902500D02*
X104012742Y-66902500D01*
X104487258Y-65857500D02*
X104012742Y-65857500D01*
X104507258Y-69882500D02*
X104032742Y-69882500D01*
X104507258Y-68837500D02*
X104032742Y-68837500D01*
X159272500Y-73362742D02*
X159272500Y-73837258D01*
X158227500Y-73362742D02*
X158227500Y-73837258D01*
X168000000Y-71140000D02*
X174935000Y-71140000D01*
X168000000Y-74560000D02*
X168000000Y-71140000D01*
X174935000Y-74560000D02*
X168000000Y-74560000D01*
X128032500Y-54652742D02*
X128032500Y-55127258D01*
X126987500Y-54652742D02*
X126987500Y-55127258D01*
X164725000Y-53590000D02*
X164725000Y-50930000D01*
X167325000Y-53590000D02*
X164725000Y-53590000D01*
X167325000Y-53590000D02*
X167325000Y-50930000D01*
X168595000Y-53590000D02*
X169925000Y-53590000D01*
X169925000Y-53590000D02*
X169925000Y-52260000D01*
X167325000Y-50930000D02*
X164725000Y-50930000D01*
X124335000Y-54310000D02*
X117400000Y-54310000D01*
X124335000Y-50890000D02*
X124335000Y-54310000D01*
X117400000Y-50890000D02*
X124335000Y-50890000D01*
X162245000Y-52851252D02*
X162245000Y-52328748D01*
X163715000Y-52851252D02*
X163715000Y-52328748D01*
X141577500Y-53467258D02*
X141577500Y-52992742D01*
X142622500Y-53467258D02*
X142622500Y-52992742D01*
X144427500Y-68467258D02*
X144427500Y-67992742D01*
X145472500Y-68467258D02*
X145472500Y-67992742D01*
X104527258Y-63872500D02*
X104052742Y-63872500D01*
X104527258Y-62827500D02*
X104052742Y-62827500D01*
D10*
X139145000Y-57225000D02*
X139145000Y-56325000D01*
X139145000Y-57225000D02*
X133595000Y-57225000D01*
X139145000Y-51575000D02*
X140420000Y-51575000D01*
X139145000Y-50675000D02*
X139145000Y-51575000D01*
X139145000Y-50675000D02*
X133595000Y-50675000D01*
X138695000Y-56575000D02*
X138695000Y-56350000D01*
X138695000Y-56575000D02*
X134045000Y-56575000D01*
X138695000Y-51550000D02*
X140045000Y-51550000D01*
X138695000Y-51325000D02*
X138695000Y-51550000D01*
X138695000Y-51325000D02*
X134045000Y-51325000D01*
X134045000Y-56575000D02*
X134045000Y-56350000D01*
X134045000Y-51325000D02*
X134045000Y-51550000D01*
X133595000Y-57225000D02*
X133595000Y-56325000D01*
X133595000Y-50675000D02*
X133595000Y-51575000D01*
D14*
X138223553Y-51950000D02*
G75*
G03*
X138223553Y-51950000I-353553J0D01*
G01*
X148337500Y-68247258D02*
X148337500Y-67772742D01*
X149382500Y-68247258D02*
X149382500Y-67772742D01*
X161872742Y-56467500D02*
X162347258Y-56467500D01*
X161872742Y-57512500D02*
X162347258Y-57512500D01*
X161872742Y-57947500D02*
X162347258Y-57947500D01*
X161872742Y-58992500D02*
X162347258Y-58992500D01*
X146712500Y-72922742D02*
X146712500Y-73397258D01*
X145667500Y-72922742D02*
X145667500Y-73397258D01*
D10*
X135335000Y-68045000D02*
X135335000Y-68945000D01*
X135335000Y-68045000D02*
X140885000Y-68045000D01*
X135335000Y-73695000D02*
X134060000Y-73695000D01*
X135335000Y-74595000D02*
X135335000Y-73695000D01*
X135335000Y-74595000D02*
X140885000Y-74595000D01*
X135785000Y-68695000D02*
X135785000Y-68920000D01*
X135785000Y-68695000D02*
X140435000Y-68695000D01*
X135785000Y-73720000D02*
X134435000Y-73720000D01*
X135785000Y-73945000D02*
X135785000Y-73720000D01*
X135785000Y-73945000D02*
X140435000Y-73945000D01*
X140435000Y-68695000D02*
X140435000Y-68920000D01*
X140435000Y-73945000D02*
X140435000Y-73720000D01*
X140885000Y-68045000D02*
X140885000Y-68945000D01*
X140885000Y-74595000D02*
X140885000Y-73695000D01*
D14*
X136963553Y-73320000D02*
G75*
G03*
X136963553Y-73320000I-353553J0D01*
G01*
X155082500Y-73332742D02*
X155082500Y-73807258D01*
X154037500Y-73332742D02*
X154037500Y-73807258D01*
X156822500Y-73312742D02*
X156822500Y-73787258D01*
X155777500Y-73312742D02*
X155777500Y-73787258D01*
X97287936Y-51040000D02*
X98492064Y-51040000D01*
X97287936Y-52860000D02*
X98492064Y-52860000D01*
X154617500Y-68242258D02*
X154617500Y-67767742D01*
X155662500Y-68242258D02*
X155662500Y-67767742D01*
X104487258Y-68382500D02*
X104012742Y-68382500D01*
X104487258Y-67337500D02*
X104012742Y-67337500D01*
D17*
X176500000Y-51250000D02*
G75*
G03*
X175499999Y-50250000I-1000000J0D01*
G01*
X93000000Y-51250000D02*
X93000000Y-74250001D01*
X94000000Y-50250000D02*
G75*
G03*
X93000000Y-51250000I0J-1000000D01*
G01*
X176499999Y-74249999D02*
X176500000Y-51250000D01*
X92999999Y-74250001D02*
G75*
G03*
X94000000Y-75250001I1000001J1D01*
G01*
X94000000Y-50250000D02*
X175499999Y-50250000D01*
X175499999Y-75249999D02*
X94000000Y-75250001D01*
X175499999Y-75249999D02*
G75*
G03*
X176499999Y-74249999I1J999999D01*
G01*
D10*
X134254819Y-63561904D02*
X135064342Y-63561904D01*
X135064342Y-63561904D02*
X135159580Y-63514285D01*
X135159580Y-63514285D02*
X135207200Y-63466666D01*
X135207200Y-63466666D02*
X135254819Y-63371428D01*
X135254819Y-63371428D02*
X135254819Y-63180952D01*
X135254819Y-63180952D02*
X135207200Y-63085714D01*
X135207200Y-63085714D02*
X135159580Y-63038095D01*
X135159580Y-63038095D02*
X135064342Y-62990476D01*
X135064342Y-62990476D02*
X134254819Y-62990476D01*
X134254819Y-62085714D02*
X134254819Y-62276190D01*
X134254819Y-62276190D02*
X134302438Y-62371428D01*
X134302438Y-62371428D02*
X134350057Y-62419047D01*
X134350057Y-62419047D02*
X134492914Y-62514285D01*
X134492914Y-62514285D02*
X134683390Y-62561904D01*
X134683390Y-62561904D02*
X135064342Y-62561904D01*
X135064342Y-62561904D02*
X135159580Y-62514285D01*
X135159580Y-62514285D02*
X135207200Y-62466666D01*
X135207200Y-62466666D02*
X135254819Y-62371428D01*
X135254819Y-62371428D02*
X135254819Y-62180952D01*
X135254819Y-62180952D02*
X135207200Y-62085714D01*
X135207200Y-62085714D02*
X135159580Y-62038095D01*
X135159580Y-62038095D02*
X135064342Y-61990476D01*
X135064342Y-61990476D02*
X134826247Y-61990476D01*
X134826247Y-61990476D02*
X134731009Y-62038095D01*
X134731009Y-62038095D02*
X134683390Y-62085714D01*
X134683390Y-62085714D02*
X134635771Y-62180952D01*
X134635771Y-62180952D02*
X134635771Y-62371428D01*
X134635771Y-62371428D02*
X134683390Y-62466666D01*
X134683390Y-62466666D02*
X134731009Y-62514285D01*
X134731009Y-62514285D02*
X134826247Y-62561904D01*
D15*
X109297723Y-71457167D02*
X160297723Y-71457167D01*
X109297723Y-53957167D02*
X160297723Y-53957167D01*
M02*
