%TF.GenerationSoftware,KiCad,Pcbnew,7.0.9*%
%TF.CreationDate,2024-01-13T12:33:37-06:00*%
%TF.ProjectId,SillyTinySCSI,53696c6c-7954-4696-9e79-534353492e6b,V2.0*%
%TF.SameCoordinates,Original*%
%TF.FileFunction,Soldermask,Top*%
%TF.FilePolarity,Negative*%
%FSLAX46Y46*%
G04 Gerber Fmt 4.6, Leading zero omitted, Abs format (unit mm)*
G04 Created by KiCad (PCBNEW 7.0.9) date 2024-01-13 12:33:37*
%MOMM*%
%LPD*%
G01*
G04 APERTURE LIST*
%ADD10R,2.910000X0.550000*%
%ADD11R,0.500000X1.000000*%
%ADD12R,0.720000X0.780000*%
%ADD13R,1.050000X1.200000*%
%ADD14R,1.050000X2.390000*%
%ADD15R,1.050000X1.080000*%
%ADD16R,1.700000X3.500000*%
%ADD17R,1.700000X3.460000*%
%ADD18R,1.720000X3.460000*%
%ADD19C,1.500000*%
%ADD20C,4.575000*%
%ADD21R,1.700000X1.700000*%
%ADD22O,1.700000X1.700000*%
%TA.AperFunction,Profile*%
%ADD23C,0.150000*%
%TD*%
%ADD24C,0.150000*%
%ADD25C,0.100000*%
G04 APERTURE END LIST*
D10*
X168115000Y-65455000D03*
X172305000Y-65455000D03*
D11*
X173810000Y-72690000D03*
X172710000Y-72690000D03*
X171610000Y-72690000D03*
X170510000Y-72690000D03*
X169410000Y-72690000D03*
X168310000Y-72690000D03*
X167210000Y-72690000D03*
X166110000Y-72690000D03*
D12*
X175570000Y-70010000D03*
D13*
X164935000Y-66700000D03*
D14*
X164935000Y-69885000D03*
D15*
X175570000Y-68740000D03*
D13*
X175580000Y-66130000D03*
D16*
X110590000Y-72440000D03*
D17*
X113130000Y-70570000D03*
D16*
X115720000Y-72440000D03*
D17*
X118210000Y-70570000D03*
D16*
X120720000Y-72440000D03*
D17*
X123290000Y-70570000D03*
D16*
X125830000Y-72440000D03*
D17*
X128370000Y-70570000D03*
D16*
X130910000Y-72440000D03*
D17*
X133450000Y-70570000D03*
D16*
X135990000Y-72440000D03*
D17*
X138530000Y-70570000D03*
D16*
X141070000Y-72440000D03*
D17*
X143610000Y-70570000D03*
D16*
X146150000Y-72440000D03*
D17*
X148690000Y-70570000D03*
D16*
X151220000Y-72440000D03*
D17*
X153770000Y-70570000D03*
D16*
X156310000Y-72440000D03*
D18*
X158860000Y-70570000D03*
D16*
X158930000Y-53200000D03*
D17*
X156390000Y-55070000D03*
D16*
X153850000Y-53200000D03*
D17*
X151310000Y-55070000D03*
D16*
X148770000Y-53200000D03*
D17*
X146230000Y-55070000D03*
D16*
X143690000Y-53200000D03*
D17*
X141150000Y-55070000D03*
D16*
X138610000Y-53200000D03*
D17*
X136070000Y-55070000D03*
D16*
X133530000Y-53200000D03*
D17*
X130990000Y-55070000D03*
D16*
X128450000Y-53200000D03*
D17*
X125910000Y-55070000D03*
D16*
X123370000Y-53200000D03*
D17*
X120830000Y-55070000D03*
D16*
X118300000Y-53200000D03*
D17*
X115750000Y-55070000D03*
D16*
X113210000Y-53200000D03*
D17*
X110670000Y-55070000D03*
D19*
X108750000Y-64730000D03*
X110910000Y-64730000D03*
X113070000Y-64730000D03*
X115230000Y-64730000D03*
X117390000Y-64730000D03*
X119550000Y-64730000D03*
X121710000Y-64730000D03*
X123870000Y-64730000D03*
X126030000Y-64730000D03*
X128190000Y-64730000D03*
X130350000Y-64730000D03*
X132510000Y-64730000D03*
X134670000Y-64730000D03*
X136830000Y-64730000D03*
X138990000Y-64730000D03*
X141150000Y-64730000D03*
X143310000Y-64730000D03*
X145470000Y-64730000D03*
X147630000Y-64730000D03*
X149790000Y-64730000D03*
X151950000Y-64730000D03*
X154110000Y-64730000D03*
X156270000Y-64730000D03*
X158430000Y-64730000D03*
X160590000Y-64730000D03*
X108750000Y-60440000D03*
X110910000Y-60440000D03*
X113070000Y-60440000D03*
X115230000Y-60440000D03*
X117390000Y-60440000D03*
X119550000Y-60440000D03*
X121710000Y-60440000D03*
X123870000Y-60440000D03*
X126030000Y-60440000D03*
X128190000Y-60440000D03*
X130350000Y-60440000D03*
X132510000Y-60440000D03*
X134670000Y-60440000D03*
X136830000Y-60440000D03*
X138990000Y-60440000D03*
X141150000Y-60440000D03*
X143310000Y-60440000D03*
X145470000Y-60440000D03*
X147630000Y-60440000D03*
X149790000Y-60440000D03*
X151950000Y-60440000D03*
X154110000Y-60440000D03*
X156270000Y-60440000D03*
X158430000Y-60440000D03*
X160590000Y-60440000D03*
D20*
X97245000Y-62585000D03*
X172095000Y-62585000D03*
D21*
X100570000Y-73115000D03*
D22*
X98030000Y-73115000D03*
D21*
X168595000Y-52260000D03*
D22*
X166055000Y-52260000D03*
D23*
X176500000Y-51250000D02*
G75*
G03*
X175499999Y-50250000I-1000000J0D01*
G01*
X93000000Y-51250000D02*
X93000000Y-74250001D01*
X94000000Y-50250000D02*
G75*
G03*
X93000000Y-51250000I0J-1000000D01*
G01*
X176499999Y-74249999D02*
X176500000Y-51250000D01*
X92999999Y-74250001D02*
G75*
G03*
X94000000Y-75250001I1000001J1D01*
G01*
X94000000Y-50250000D02*
X175499999Y-50250000D01*
X175499999Y-75249999D02*
X94000000Y-75250001D01*
X175499999Y-75249999D02*
G75*
G03*
X176499999Y-74249999I1J999999D01*
G01*
D24*
X134254819Y-63561904D02*
X135064342Y-63561904D01*
X135064342Y-63561904D02*
X135159580Y-63514285D01*
X135159580Y-63514285D02*
X135207200Y-63466666D01*
X135207200Y-63466666D02*
X135254819Y-63371428D01*
X135254819Y-63371428D02*
X135254819Y-63180952D01*
X135254819Y-63180952D02*
X135207200Y-63085714D01*
X135207200Y-63085714D02*
X135159580Y-63038095D01*
X135159580Y-63038095D02*
X135064342Y-62990476D01*
X135064342Y-62990476D02*
X134254819Y-62990476D01*
X134254819Y-62085714D02*
X134254819Y-62276190D01*
X134254819Y-62276190D02*
X134302438Y-62371428D01*
X134302438Y-62371428D02*
X134350057Y-62419047D01*
X134350057Y-62419047D02*
X134492914Y-62514285D01*
X134492914Y-62514285D02*
X134683390Y-62561904D01*
X134683390Y-62561904D02*
X135064342Y-62561904D01*
X135064342Y-62561904D02*
X135159580Y-62514285D01*
X135159580Y-62514285D02*
X135207200Y-62466666D01*
X135207200Y-62466666D02*
X135254819Y-62371428D01*
X135254819Y-62371428D02*
X135254819Y-62180952D01*
X135254819Y-62180952D02*
X135207200Y-62085714D01*
X135207200Y-62085714D02*
X135159580Y-62038095D01*
X135159580Y-62038095D02*
X135064342Y-61990476D01*
X135064342Y-61990476D02*
X134826247Y-61990476D01*
X134826247Y-61990476D02*
X134731009Y-62038095D01*
X134731009Y-62038095D02*
X134683390Y-62085714D01*
X134683390Y-62085714D02*
X134635771Y-62180952D01*
X134635771Y-62180952D02*
X134635771Y-62371428D01*
X134635771Y-62371428D02*
X134683390Y-62466666D01*
X134683390Y-62466666D02*
X134731009Y-62514285D01*
X134731009Y-62514285D02*
X134826247Y-62561904D01*
D25*
X109297723Y-71457167D02*
X160297723Y-71457167D01*
X109297723Y-53957167D02*
X160297723Y-53957167D01*
M02*
