%TF.GenerationSoftware,KiCad,Pcbnew,7.0.9*%
%TF.CreationDate,2024-01-13T12:33:37-06:00*%
%TF.ProjectId,SillyTinySCSI,53696c6c-7954-4696-9e79-534353492e6b,V2.0*%
%TF.SameCoordinates,Original*%
%TF.FileFunction,Soldermask,Bot*%
%TF.FilePolarity,Negative*%
%FSLAX46Y46*%
G04 Gerber Fmt 4.6, Leading zero omitted, Abs format (unit mm)*
G04 Created by KiCad (PCBNEW 7.0.9) date 2024-01-13 12:33:37*
%MOMM*%
%LPD*%
G01*
G04 APERTURE LIST*
G04 Aperture macros list*
%AMRoundRect*
0 Rectangle with rounded corners*
0 $1 Rounding radius*
0 $2 $3 $4 $5 $6 $7 $8 $9 X,Y pos of 4 corners*
0 Add a 4 corners polygon primitive as box body*
4,1,4,$2,$3,$4,$5,$6,$7,$8,$9,$2,$3,0*
0 Add four circle primitives for the rounded corners*
1,1,$1+$1,$2,$3*
1,1,$1+$1,$4,$5*
1,1,$1+$1,$6,$7*
1,1,$1+$1,$8,$9*
0 Add four rect primitives between the rounded corners*
20,1,$1+$1,$2,$3,$4,$5,0*
20,1,$1+$1,$4,$5,$6,$7,0*
20,1,$1+$1,$6,$7,$8,$9,0*
20,1,$1+$1,$8,$9,$2,$3,0*%
G04 Aperture macros list end*
%ADD10RoundRect,0.200000X0.275000X-0.200000X0.275000X0.200000X-0.275000X0.200000X-0.275000X-0.200000X0*%
%ADD11RoundRect,0.225000X0.250000X-0.225000X0.250000X0.225000X-0.250000X0.225000X-0.250000X-0.225000X0*%
%ADD12RoundRect,0.200000X0.200000X0.275000X-0.200000X0.275000X-0.200000X-0.275000X0.200000X-0.275000X0*%
%ADD13RoundRect,0.225000X-0.225000X-0.250000X0.225000X-0.250000X0.225000X0.250000X-0.225000X0.250000X0*%
%ADD14RoundRect,0.250000X0.475000X-0.250000X0.475000X0.250000X-0.475000X0.250000X-0.475000X-0.250000X0*%
%ADD15RoundRect,0.250000X0.250000X0.475000X-0.250000X0.475000X-0.250000X-0.475000X0.250000X-0.475000X0*%
%ADD16RoundRect,0.243750X0.243750X0.456250X-0.243750X0.456250X-0.243750X-0.456250X0.243750X-0.456250X0*%
%ADD17RoundRect,0.112500X0.112500X-0.187500X0.112500X0.187500X-0.112500X0.187500X-0.112500X-0.187500X0*%
%ADD18RoundRect,0.225000X-0.250000X0.225000X-0.250000X-0.225000X0.250000X-0.225000X0.250000X0.225000X0*%
%ADD19RoundRect,0.200000X-0.275000X0.200000X-0.275000X-0.200000X0.275000X-0.200000X0.275000X0.200000X0*%
%ADD20RoundRect,0.200000X-0.200000X-0.275000X0.200000X-0.275000X0.200000X0.275000X-0.200000X0.275000X0*%
%ADD21R,2.000000X0.430000*%
%ADD22RoundRect,0.218750X0.218750X0.381250X-0.218750X0.381250X-0.218750X-0.381250X0.218750X-0.381250X0*%
%ADD23C,1.500000*%
%ADD24C,4.575000*%
%ADD25RoundRect,0.112500X-0.187500X-0.112500X0.187500X-0.112500X0.187500X0.112500X-0.187500X0.112500X0*%
%ADD26RoundRect,0.250000X-0.875000X-0.925000X0.875000X-0.925000X0.875000X0.925000X-0.875000X0.925000X0*%
%ADD27RoundRect,0.150000X-0.512500X-0.150000X0.512500X-0.150000X0.512500X0.150000X-0.512500X0.150000X0*%
%ADD28R,1.700000X1.700000*%
%ADD29O,1.700000X1.700000*%
%ADD30RoundRect,0.250000X0.875000X0.925000X-0.875000X0.925000X-0.875000X-0.925000X0.875000X-0.925000X0*%
%ADD31R,1.800000X0.430000*%
%ADD32RoundRect,0.250000X-0.375000X-0.625000X0.375000X-0.625000X0.375000X0.625000X-0.375000X0.625000X0*%
%TA.AperFunction,Profile*%
%ADD33C,0.150000*%
%TD*%
%ADD34C,0.150000*%
%ADD35C,0.100000*%
G04 APERTURE END LIST*
D10*
X94180000Y-54195000D03*
X94180000Y-52545000D03*
D11*
X124920000Y-74195000D03*
X124920000Y-72645000D03*
D12*
X105045000Y-72350000D03*
X103395000Y-72350000D03*
D13*
X129745000Y-51630000D03*
X131295000Y-51630000D03*
D10*
X143430000Y-69035000D03*
X143430000Y-67385000D03*
D14*
X108600000Y-74010000D03*
X108600000Y-72110000D03*
D13*
X167645000Y-69900000D03*
X169195000Y-69900000D03*
D15*
X174450000Y-69440000D03*
X172550000Y-69440000D03*
D10*
X156020000Y-55035000D03*
X156020000Y-53385000D03*
D16*
X95927500Y-56260000D03*
X94052500Y-56260000D03*
D14*
X125740000Y-53280000D03*
X125740000Y-51380000D03*
D11*
X159010000Y-53525000D03*
X159010000Y-51975000D03*
D17*
X118600000Y-57450000D03*
X118600000Y-55350000D03*
D13*
X155995000Y-51980000D03*
X157545000Y-51980000D03*
D18*
X143190000Y-72335000D03*
X143190000Y-73885000D03*
D12*
X143835000Y-56370000D03*
X142185000Y-56370000D03*
D19*
X132980000Y-69445000D03*
X132980000Y-71095000D03*
D20*
X143195000Y-70880000D03*
X144845000Y-70880000D03*
D10*
X144690000Y-73930000D03*
X144690000Y-72280000D03*
D20*
X129295000Y-53750000D03*
X130945000Y-53750000D03*
D19*
X143670000Y-51575000D03*
X143670000Y-53225000D03*
D21*
X153380000Y-51590000D03*
X153380000Y-52240000D03*
X153380000Y-52890000D03*
X153380000Y-53540000D03*
X153380000Y-54190000D03*
X153380000Y-54840000D03*
X153380000Y-55490000D03*
X153380000Y-56140000D03*
X153380000Y-56790000D03*
X153380000Y-57440000D03*
X146380000Y-57440000D03*
X146380000Y-56790000D03*
X146380000Y-56140000D03*
X146380000Y-55490000D03*
X146380000Y-54840000D03*
X146380000Y-54190000D03*
X146380000Y-53540000D03*
X146380000Y-52890000D03*
X146380000Y-52240000D03*
X146380000Y-51590000D03*
X115770000Y-73820000D03*
X115770000Y-73170000D03*
X115770000Y-72520000D03*
X115770000Y-71870000D03*
X115770000Y-71220000D03*
X115770000Y-70570000D03*
X115770000Y-69920000D03*
X115770000Y-69270000D03*
X115770000Y-68620000D03*
X115770000Y-67970000D03*
X122770000Y-67970000D03*
X122770000Y-68620000D03*
X122770000Y-69270000D03*
X122770000Y-69920000D03*
X122770000Y-70570000D03*
X122770000Y-71220000D03*
X122770000Y-71870000D03*
X122770000Y-72520000D03*
X122770000Y-73170000D03*
X122770000Y-73820000D03*
D20*
X135475000Y-58210000D03*
X137125000Y-58210000D03*
D19*
X157510000Y-53385000D03*
X157510000Y-55035000D03*
D10*
X158990000Y-56755000D03*
X158990000Y-55105000D03*
D22*
X103042500Y-53260000D03*
X100917500Y-53260000D03*
D15*
X97810000Y-70120000D03*
X95910000Y-70120000D03*
D12*
X105085000Y-70840000D03*
X103435000Y-70840000D03*
D10*
X150980000Y-68845000D03*
X150980000Y-67195000D03*
D23*
X108750000Y-64730000D03*
X110910000Y-64730000D03*
X113070000Y-64730000D03*
X115230000Y-64730000D03*
X117390000Y-64730000D03*
X119550000Y-64730000D03*
X121710000Y-64730000D03*
X123870000Y-64730000D03*
X126030000Y-64730000D03*
X128190000Y-64730000D03*
X130350000Y-64730000D03*
X132510000Y-64730000D03*
X134670000Y-64730000D03*
X136830000Y-64730000D03*
X138990000Y-64730000D03*
X141150000Y-64730000D03*
X143310000Y-64730000D03*
X145470000Y-64730000D03*
X147630000Y-64730000D03*
X149790000Y-64730000D03*
X151950000Y-64730000D03*
X154110000Y-64730000D03*
X156270000Y-64730000D03*
X158430000Y-64730000D03*
X160590000Y-64730000D03*
X108750000Y-60440000D03*
X110910000Y-60440000D03*
X113070000Y-60440000D03*
X115230000Y-60440000D03*
X117390000Y-60440000D03*
X119550000Y-60440000D03*
X121710000Y-60440000D03*
X123870000Y-60440000D03*
X126030000Y-60440000D03*
X128190000Y-60440000D03*
X130350000Y-60440000D03*
X132510000Y-60440000D03*
X134670000Y-60440000D03*
X136830000Y-60440000D03*
X138990000Y-60440000D03*
X141150000Y-60440000D03*
X143310000Y-60440000D03*
X145470000Y-60440000D03*
X147630000Y-60440000D03*
X149790000Y-60440000D03*
X151950000Y-60440000D03*
X154110000Y-60440000D03*
X156270000Y-60440000D03*
X158430000Y-60440000D03*
X160590000Y-60440000D03*
D24*
X97245000Y-62585000D03*
X172095000Y-62585000D03*
D12*
X105075000Y-64850000D03*
X103425000Y-64850000D03*
D25*
X124430000Y-58240000D03*
X126530000Y-58240000D03*
D10*
X157560000Y-68825000D03*
X157560000Y-67175000D03*
D12*
X105115000Y-60410000D03*
X103465000Y-60410000D03*
D26*
X109850000Y-52600000D03*
X114950000Y-52600000D03*
D15*
X107140000Y-53290000D03*
X105240000Y-53290000D03*
D10*
X153070000Y-68825000D03*
X153070000Y-67175000D03*
D27*
X114362500Y-57250000D03*
X114362500Y-56300000D03*
X114362500Y-55350000D03*
X116637500Y-55350000D03*
X116637500Y-57250000D03*
D28*
X100570000Y-73115000D03*
D29*
X98030000Y-73115000D03*
D19*
X147660000Y-72365000D03*
X147660000Y-74015000D03*
D12*
X105135000Y-61890000D03*
X103485000Y-61890000D03*
X105075000Y-66380000D03*
X103425000Y-66380000D03*
X105095000Y-69360000D03*
X103445000Y-69360000D03*
D19*
X158750000Y-72775000D03*
X158750000Y-74425000D03*
D26*
X169385000Y-72850000D03*
X174485000Y-72850000D03*
D19*
X127510000Y-54065000D03*
X127510000Y-55715000D03*
D28*
X168595000Y-52260000D03*
D29*
X166055000Y-52260000D03*
D30*
X122950000Y-52600000D03*
X117850000Y-52600000D03*
D14*
X162980000Y-53540000D03*
X162980000Y-51640000D03*
D10*
X142100000Y-54055000D03*
X142100000Y-52405000D03*
X144950000Y-69055000D03*
X144950000Y-67405000D03*
D12*
X105115000Y-63350000D03*
X103465000Y-63350000D03*
D31*
X139520000Y-52000000D03*
X139520000Y-52650000D03*
X139520000Y-53300000D03*
X139520000Y-53950000D03*
X139520000Y-54600000D03*
X139520000Y-55250000D03*
X139520000Y-55900000D03*
X133220000Y-55900000D03*
X133220000Y-55250000D03*
X133220000Y-54600000D03*
X133220000Y-53950000D03*
X133220000Y-53300000D03*
X133220000Y-52650000D03*
X133220000Y-52000000D03*
D10*
X148860000Y-68835000D03*
X148860000Y-67185000D03*
D20*
X161285000Y-56990000D03*
X162935000Y-56990000D03*
X161285000Y-58470000D03*
X162935000Y-58470000D03*
D19*
X146190000Y-72335000D03*
X146190000Y-73985000D03*
D31*
X134960000Y-73270000D03*
X134960000Y-72620000D03*
X134960000Y-71970000D03*
X134960000Y-71320000D03*
X134960000Y-70670000D03*
X134960000Y-70020000D03*
X134960000Y-69370000D03*
X141260000Y-69370000D03*
X141260000Y-70020000D03*
X141260000Y-70670000D03*
X141260000Y-71320000D03*
X141260000Y-71970000D03*
X141260000Y-72620000D03*
X141260000Y-73270000D03*
D19*
X154560000Y-72745000D03*
X154560000Y-74395000D03*
X156300000Y-72725000D03*
X156300000Y-74375000D03*
D32*
X96490000Y-51950000D03*
X99290000Y-51950000D03*
D10*
X155140000Y-68830000D03*
X155140000Y-67180000D03*
D12*
X105075000Y-67860000D03*
X103425000Y-67860000D03*
D33*
X176500000Y-51250000D02*
G75*
G03*
X175499999Y-50250000I-1000000J0D01*
G01*
X93000000Y-51250000D02*
X93000000Y-74250001D01*
X94000000Y-50250000D02*
G75*
G03*
X93000000Y-51250000I0J-1000000D01*
G01*
X176499999Y-74249999D02*
X176500000Y-51250000D01*
X92999999Y-74250001D02*
G75*
G03*
X94000000Y-75250001I1000001J1D01*
G01*
X94000000Y-50250000D02*
X175499999Y-50250000D01*
X175499999Y-75249999D02*
X94000000Y-75250001D01*
X175499999Y-75249999D02*
G75*
G03*
X176499999Y-74249999I1J999999D01*
G01*
D34*
X134254819Y-63561904D02*
X135064342Y-63561904D01*
X135064342Y-63561904D02*
X135159580Y-63514285D01*
X135159580Y-63514285D02*
X135207200Y-63466666D01*
X135207200Y-63466666D02*
X135254819Y-63371428D01*
X135254819Y-63371428D02*
X135254819Y-63180952D01*
X135254819Y-63180952D02*
X135207200Y-63085714D01*
X135207200Y-63085714D02*
X135159580Y-63038095D01*
X135159580Y-63038095D02*
X135064342Y-62990476D01*
X135064342Y-62990476D02*
X134254819Y-62990476D01*
X134254819Y-62085714D02*
X134254819Y-62276190D01*
X134254819Y-62276190D02*
X134302438Y-62371428D01*
X134302438Y-62371428D02*
X134350057Y-62419047D01*
X134350057Y-62419047D02*
X134492914Y-62514285D01*
X134492914Y-62514285D02*
X134683390Y-62561904D01*
X134683390Y-62561904D02*
X135064342Y-62561904D01*
X135064342Y-62561904D02*
X135159580Y-62514285D01*
X135159580Y-62514285D02*
X135207200Y-62466666D01*
X135207200Y-62466666D02*
X135254819Y-62371428D01*
X135254819Y-62371428D02*
X135254819Y-62180952D01*
X135254819Y-62180952D02*
X135207200Y-62085714D01*
X135207200Y-62085714D02*
X135159580Y-62038095D01*
X135159580Y-62038095D02*
X135064342Y-61990476D01*
X135064342Y-61990476D02*
X134826247Y-61990476D01*
X134826247Y-61990476D02*
X134731009Y-62038095D01*
X134731009Y-62038095D02*
X134683390Y-62085714D01*
X134683390Y-62085714D02*
X134635771Y-62180952D01*
X134635771Y-62180952D02*
X134635771Y-62371428D01*
X134635771Y-62371428D02*
X134683390Y-62466666D01*
X134683390Y-62466666D02*
X134731009Y-62514285D01*
X134731009Y-62514285D02*
X134826247Y-62561904D01*
D35*
X109297723Y-71457167D02*
X160297723Y-71457167D01*
X109297723Y-53957167D02*
X160297723Y-53957167D01*
M02*
