%TF.GenerationSoftware,KiCad,Pcbnew,7.0.9*%
%TF.CreationDate,2024-01-13T12:33:37-06:00*%
%TF.ProjectId,SillyTinySCSI,53696c6c-7954-4696-9e79-534353492e6b,V2.0*%
%TF.SameCoordinates,Original*%
%TF.FileFunction,Copper,L3,Inr*%
%TF.FilePolarity,Positive*%
%FSLAX46Y46*%
G04 Gerber Fmt 4.6, Leading zero omitted, Abs format (unit mm)*
G04 Created by KiCad (PCBNEW 7.0.9) date 2024-01-13 12:33:37*
%MOMM*%
%LPD*%
G01*
G04 APERTURE LIST*
%TA.AperFunction,ComponentPad*%
%ADD10C,1.500000*%
%TD*%
%TA.AperFunction,ComponentPad*%
%ADD11C,4.575000*%
%TD*%
%TA.AperFunction,ComponentPad*%
%ADD12R,1.700000X1.700000*%
%TD*%
%TA.AperFunction,ComponentPad*%
%ADD13O,1.700000X1.700000*%
%TD*%
%TA.AperFunction,ViaPad*%
%ADD14C,0.450000*%
%TD*%
%TA.AperFunction,ViaPad*%
%ADD15C,0.600000*%
%TD*%
%TA.AperFunction,Conductor*%
%ADD16C,0.350000*%
%TD*%
%TA.AperFunction,Conductor*%
%ADD17C,0.127000*%
%TD*%
%TA.AperFunction,Conductor*%
%ADD18C,0.250000*%
%TD*%
%TA.AperFunction,Profile*%
%ADD19C,0.150000*%
%TD*%
%ADD20C,0.150000*%
%ADD21C,0.100000*%
G04 APERTURE END LIST*
D10*
X108750000Y-64730000D03*
X110910000Y-64730000D03*
X113070000Y-64730000D03*
X115230000Y-64730000D03*
X117390000Y-64730000D03*
X119550000Y-64730000D03*
X121710000Y-64730000D03*
X123870000Y-64730000D03*
X126030000Y-64730000D03*
X128190000Y-64730000D03*
X130350000Y-64730000D03*
X132510000Y-64730000D03*
X134670000Y-64730000D03*
X136830000Y-64730000D03*
X138990000Y-64730000D03*
X141150000Y-64730000D03*
X143310000Y-64730000D03*
X145470000Y-64730000D03*
X147630000Y-64730000D03*
X149790000Y-64730000D03*
X151950000Y-64730000D03*
X154110000Y-64730000D03*
X156270000Y-64730000D03*
X158430000Y-64730000D03*
X160590000Y-64730000D03*
X108750000Y-60440000D03*
X110910000Y-60440000D03*
X113070000Y-60440000D03*
X115230000Y-60440000D03*
X117390000Y-60440000D03*
X119550000Y-60440000D03*
X121710000Y-60440000D03*
X123870000Y-60440000D03*
X126030000Y-60440000D03*
X128190000Y-60440000D03*
X130350000Y-60440000D03*
X132510000Y-60440000D03*
X134670000Y-60440000D03*
X136830000Y-60440000D03*
X138990000Y-60440000D03*
X141150000Y-60440000D03*
X143310000Y-60440000D03*
X145470000Y-60440000D03*
X147630000Y-60440000D03*
X149790000Y-60440000D03*
X151950000Y-60440000D03*
X154110000Y-60440000D03*
X156270000Y-60440000D03*
X158430000Y-60440000D03*
X160590000Y-60440000D03*
D11*
X97245000Y-62585000D03*
X172095000Y-62585000D03*
D12*
X100570000Y-73115000D03*
D13*
X98030000Y-73115000D03*
D12*
X168595000Y-52260000D03*
D13*
X166055000Y-52260000D03*
D14*
X136230000Y-50950000D03*
D15*
X175410000Y-70980000D03*
D14*
X140680000Y-57150000D03*
X131940000Y-52610000D03*
X151800000Y-57445000D03*
X163940000Y-65440000D03*
X127260000Y-73660000D03*
X137330000Y-53530000D03*
X126570000Y-69840000D03*
X154030000Y-62490000D03*
D15*
X119600000Y-51200000D03*
D14*
X156180000Y-62490000D03*
D15*
X167410000Y-71610000D03*
D14*
X117860000Y-67690000D03*
X151850000Y-62510000D03*
X149680000Y-62490000D03*
X147580000Y-62510000D03*
X151590000Y-52420000D03*
X161180000Y-55260000D03*
X124560000Y-71290000D03*
X108610000Y-70720000D03*
X110960000Y-67560000D03*
X139480000Y-73520000D03*
X152500000Y-71270000D03*
D15*
X116973000Y-56250000D03*
X116400000Y-51150000D03*
D14*
X106210000Y-60450000D03*
X105920000Y-61200000D03*
X104330000Y-63400000D03*
X104270000Y-64920000D03*
X104330000Y-66400000D03*
X106060000Y-67970000D03*
X106080000Y-69470000D03*
X106060000Y-70890000D03*
X139820000Y-72160000D03*
X141270000Y-68680000D03*
X127090000Y-65810000D03*
X106110000Y-72170000D03*
X146120000Y-68320000D03*
X143000000Y-57700000D03*
X149920000Y-68100000D03*
X144170000Y-57810000D03*
X152030000Y-68060000D03*
X154120000Y-68040000D03*
X147930000Y-57690000D03*
X156290000Y-69050000D03*
X149520000Y-55900000D03*
X129920000Y-52650000D03*
X137030000Y-52290000D03*
X150550000Y-52670000D03*
X144970000Y-52610000D03*
D15*
X171040000Y-71620000D03*
D14*
X147800000Y-55780000D03*
X158520000Y-67170000D03*
X148480000Y-56710000D03*
X153120000Y-72780000D03*
X161700000Y-72780000D03*
X146410000Y-69550000D03*
X162100000Y-69840000D03*
X163870000Y-73370000D03*
X146960000Y-68870000D03*
X162630000Y-73410000D03*
X148840000Y-73650000D03*
X160260000Y-70090000D03*
X156300000Y-70290000D03*
X154870000Y-55550000D03*
X137330000Y-54370000D03*
X134920000Y-51840000D03*
X144960000Y-53560000D03*
X133710000Y-56670000D03*
X157810000Y-56140000D03*
X134640000Y-55290000D03*
X138390000Y-72870000D03*
X155120000Y-53560000D03*
X155340000Y-57600000D03*
X141080000Y-52700000D03*
X134820000Y-54090000D03*
X112680000Y-73830000D03*
X119190000Y-73860000D03*
X113490000Y-73320000D03*
X119200000Y-72920000D03*
X117990000Y-72900000D03*
X120510000Y-70140000D03*
X121070000Y-69400000D03*
X125060000Y-69960000D03*
X128690000Y-73330000D03*
X125230000Y-68570000D03*
X144840000Y-55510000D03*
X150190000Y-57870000D03*
X150050000Y-54820000D03*
X144800000Y-56430000D03*
X127610000Y-57110000D03*
X139940000Y-70350000D03*
X119860000Y-69540000D03*
X123410000Y-58240000D03*
X105940000Y-58470000D03*
D15*
X107660000Y-51430000D03*
D14*
X142460000Y-53260000D03*
X94290000Y-51350000D03*
X128660000Y-56330000D03*
D16*
X142250000Y-65800000D02*
X142300000Y-65800000D01*
D17*
X140880000Y-71100000D02*
X140880000Y-69070000D01*
X139820000Y-72160000D02*
X140880000Y-71100000D01*
X140880000Y-69070000D02*
X141270000Y-68680000D01*
X136914512Y-52290000D02*
X136001012Y-51376500D01*
X131193500Y-51376500D02*
X129920000Y-52650000D01*
X136001012Y-51376500D02*
X131193500Y-51376500D01*
X137030000Y-52290000D02*
X136914512Y-52290000D01*
X153676500Y-54356500D02*
X154870000Y-55550000D01*
X137620000Y-54660000D02*
X149554512Y-54660000D01*
X149554512Y-54660000D02*
X149858012Y-54356500D01*
X137330000Y-54370000D02*
X137620000Y-54660000D01*
X149858012Y-54356500D02*
X153676500Y-54356500D01*
X144920000Y-53560000D02*
X144310000Y-54170000D01*
X144960000Y-53560000D02*
X144960000Y-53520000D01*
X138625488Y-54170000D02*
X137208988Y-52753500D01*
X135833500Y-52753500D02*
X134920000Y-51840000D01*
X137208988Y-52753500D02*
X135833500Y-52753500D01*
X144960000Y-53520000D02*
X144920000Y-53560000D01*
X144310000Y-54170000D02*
X138625488Y-54170000D01*
X144920000Y-53560000D02*
X144960000Y-53560000D01*
X157810000Y-56140000D02*
X157560000Y-56390000D01*
X157560000Y-56390000D02*
X148815488Y-56390000D01*
X147341988Y-56893500D02*
X144608012Y-56893500D01*
X144608012Y-56893500D02*
X143884512Y-56170000D01*
X147988988Y-56246500D02*
X147341988Y-56893500D01*
X135520000Y-56170000D02*
X134640000Y-55290000D01*
X148671988Y-56246500D02*
X147988988Y-56246500D01*
X148815488Y-56390000D02*
X148671988Y-56246500D01*
X143884512Y-56170000D02*
X135520000Y-56170000D01*
X118740000Y-74310000D02*
X113160000Y-74310000D01*
X113160000Y-74310000D02*
X112680000Y-73830000D01*
X119190000Y-73860000D02*
X118740000Y-74310000D01*
X117798012Y-73363500D02*
X118756500Y-73363500D01*
X113530000Y-73360000D02*
X117794512Y-73360000D01*
X113490000Y-73320000D02*
X113530000Y-73360000D01*
X117794512Y-73360000D02*
X117798012Y-73363500D01*
X118756500Y-73363500D02*
X119200000Y-72920000D01*
D18*
X128660000Y-56330000D02*
X129180000Y-55810000D01*
X127762000Y-51982000D02*
X94922000Y-51982000D01*
X129180000Y-53400000D02*
X127762000Y-51982000D01*
X94922000Y-51982000D02*
X94290000Y-51350000D01*
D17*
X94280000Y-51360000D02*
X94270000Y-51360000D01*
D18*
X129180000Y-55810000D02*
X129180000Y-53400000D01*
D17*
X94270000Y-51360000D02*
X94260000Y-51350000D01*
%TA.AperFunction,Conductor*%
G36*
X175503084Y-50550804D02*
G01*
X175542079Y-50554644D01*
X175624115Y-50562724D01*
X175648334Y-50567541D01*
X175755819Y-50600146D01*
X175778622Y-50609591D01*
X175877681Y-50662539D01*
X175898212Y-50676259D01*
X175985027Y-50747506D01*
X176002493Y-50764971D01*
X176073740Y-50851785D01*
X176087463Y-50872323D01*
X176126558Y-50945465D01*
X176140403Y-50971366D01*
X176149856Y-50994187D01*
X176182457Y-51101661D01*
X176187275Y-51125885D01*
X176199195Y-51246903D01*
X176199499Y-51253083D01*
X176199499Y-74246904D01*
X176199195Y-74253084D01*
X176187274Y-74374113D01*
X176182456Y-74398337D01*
X176149855Y-74505811D01*
X176140402Y-74528632D01*
X176087462Y-74627675D01*
X176073739Y-74648213D01*
X176002492Y-74735027D01*
X175985027Y-74752492D01*
X175898213Y-74823739D01*
X175877675Y-74837462D01*
X175778632Y-74890402D01*
X175755811Y-74899855D01*
X175648337Y-74932456D01*
X175624113Y-74937274D01*
X175503085Y-74949195D01*
X175496905Y-74949499D01*
X94003092Y-74949499D01*
X93996914Y-74949196D01*
X93875887Y-74937276D01*
X93851661Y-74932458D01*
X93744187Y-74899857D01*
X93721368Y-74890404D01*
X93622319Y-74837462D01*
X93601787Y-74823743D01*
X93514968Y-74752492D01*
X93497505Y-74735029D01*
X93426254Y-74648209D01*
X93412540Y-74627685D01*
X93359592Y-74528625D01*
X93350143Y-74505812D01*
X93350143Y-74505811D01*
X93317540Y-74398334D01*
X93312724Y-74374121D01*
X93300803Y-74253084D01*
X93300500Y-74246916D01*
X93300500Y-73115004D01*
X96920768Y-73115004D01*
X96939654Y-73318819D01*
X96993046Y-73506473D01*
X96995672Y-73515701D01*
X97086912Y-73698935D01*
X97086913Y-73698936D01*
X97210266Y-73862284D01*
X97361536Y-74000185D01*
X97535566Y-74107940D01*
X97535568Y-74107940D01*
X97535573Y-74107944D01*
X97726444Y-74181888D01*
X97927653Y-74219500D01*
X97927655Y-74219500D01*
X98132345Y-74219500D01*
X98132347Y-74219500D01*
X98333556Y-74181888D01*
X98524427Y-74107944D01*
X98698462Y-74000186D01*
X98709566Y-73990063D01*
X99465500Y-73990063D01*
X99465501Y-73990073D01*
X99480265Y-74064300D01*
X99536516Y-74148484D01*
X99620697Y-74204733D01*
X99620699Y-74204734D01*
X99694933Y-74219500D01*
X101445066Y-74219499D01*
X101445069Y-74219498D01*
X101445073Y-74219498D01*
X101494326Y-74209701D01*
X101519301Y-74204734D01*
X101603484Y-74148484D01*
X101659734Y-74064301D01*
X101674500Y-73990067D01*
X101674500Y-73830003D01*
X112195569Y-73830003D01*
X112215190Y-73966473D01*
X112215192Y-73966480D01*
X112259865Y-74064301D01*
X112272471Y-74091903D01*
X112350441Y-74181886D01*
X112362766Y-74196110D01*
X112399159Y-74219498D01*
X112478760Y-74270654D01*
X112611058Y-74309500D01*
X112657590Y-74309500D01*
X112725711Y-74329502D01*
X112746685Y-74346405D01*
X112923379Y-74523099D01*
X112927083Y-74527142D01*
X112950070Y-74554536D01*
X112952440Y-74557360D01*
X112986594Y-74577079D01*
X112991219Y-74580025D01*
X113008982Y-74592463D01*
X113023536Y-74602654D01*
X113029988Y-74605662D01*
X113042850Y-74610989D01*
X113049556Y-74613430D01*
X113049560Y-74613432D01*
X113088412Y-74620282D01*
X113093748Y-74621465D01*
X113131857Y-74631677D01*
X113156881Y-74629487D01*
X113171153Y-74628240D01*
X113176645Y-74628000D01*
X118723358Y-74628000D01*
X118728850Y-74628240D01*
X118745255Y-74629674D01*
X118768143Y-74631677D01*
X118806262Y-74621461D01*
X118811583Y-74620282D01*
X118850440Y-74613432D01*
X118850441Y-74613431D01*
X118850443Y-74613431D01*
X118857163Y-74610984D01*
X118869973Y-74605679D01*
X118876460Y-74602653D01*
X118876466Y-74602652D01*
X118908781Y-74580024D01*
X118913410Y-74577077D01*
X118947558Y-74557361D01*
X118947559Y-74557361D01*
X118947562Y-74557358D01*
X118972922Y-74527133D01*
X118976614Y-74523104D01*
X119123316Y-74376404D01*
X119185629Y-74342379D01*
X119212411Y-74339500D01*
X119258939Y-74339500D01*
X119258942Y-74339500D01*
X119391240Y-74300654D01*
X119507235Y-74226109D01*
X119597529Y-74121903D01*
X119654808Y-73996480D01*
X119659122Y-73966473D01*
X119674431Y-73860003D01*
X119674431Y-73859996D01*
X119654809Y-73723526D01*
X119654808Y-73723525D01*
X119654808Y-73723520D01*
X119597529Y-73598097D01*
X119507235Y-73493891D01*
X119507234Y-73493890D01*
X119507233Y-73493889D01*
X119501014Y-73488500D01*
X119462633Y-73428772D01*
X119462637Y-73357775D01*
X119480487Y-73330003D01*
X128205569Y-73330003D01*
X128225190Y-73466473D01*
X128225192Y-73466480D01*
X128282471Y-73591903D01*
X128364100Y-73686109D01*
X128372766Y-73696110D01*
X128415427Y-73723526D01*
X128488760Y-73770654D01*
X128621058Y-73809500D01*
X128621061Y-73809500D01*
X128758939Y-73809500D01*
X128758942Y-73809500D01*
X128891240Y-73770654D01*
X129007235Y-73696109D01*
X129047186Y-73650003D01*
X148355569Y-73650003D01*
X148375190Y-73786473D01*
X148375192Y-73786480D01*
X148432471Y-73911903D01*
X148500205Y-73990073D01*
X148522766Y-74016110D01*
X148580762Y-74053381D01*
X148638760Y-74090654D01*
X148771058Y-74129500D01*
X148771061Y-74129500D01*
X148908939Y-74129500D01*
X148908942Y-74129500D01*
X149041240Y-74090654D01*
X149157235Y-74016109D01*
X149247529Y-73911903D01*
X149304808Y-73786480D01*
X149308615Y-73760002D01*
X149324431Y-73650003D01*
X149324431Y-73649996D01*
X149304809Y-73513526D01*
X149304808Y-73513525D01*
X149304808Y-73513520D01*
X149247529Y-73388097D01*
X149157235Y-73283891D01*
X149157234Y-73283890D01*
X149157233Y-73283889D01*
X149041240Y-73209346D01*
X148908947Y-73170501D01*
X148908944Y-73170500D01*
X148908942Y-73170500D01*
X148771058Y-73170500D01*
X148771056Y-73170500D01*
X148771052Y-73170501D01*
X148638759Y-73209346D01*
X148522766Y-73283889D01*
X148432470Y-73388098D01*
X148375192Y-73513519D01*
X148375190Y-73513526D01*
X148355569Y-73649996D01*
X148355569Y-73650003D01*
X129047186Y-73650003D01*
X129097529Y-73591903D01*
X129154808Y-73466480D01*
X129162928Y-73410003D01*
X129174431Y-73330003D01*
X129174431Y-73329996D01*
X129154809Y-73193526D01*
X129154808Y-73193525D01*
X129154808Y-73193520D01*
X129097529Y-73068097D01*
X129007235Y-72963891D01*
X129007234Y-72963890D01*
X129007233Y-72963889D01*
X128891240Y-72889346D01*
X128825364Y-72870003D01*
X137905569Y-72870003D01*
X137925190Y-73006473D01*
X137925192Y-73006480D01*
X137941413Y-73042000D01*
X137982471Y-73131903D01*
X138068503Y-73231190D01*
X138072766Y-73236110D01*
X138109159Y-73259498D01*
X138188760Y-73310654D01*
X138321058Y-73349500D01*
X138321061Y-73349500D01*
X138458939Y-73349500D01*
X138458942Y-73349500D01*
X138591240Y-73310654D01*
X138707235Y-73236109D01*
X138797529Y-73131903D01*
X138854808Y-73006480D01*
X138860292Y-72968338D01*
X138874431Y-72870003D01*
X138874431Y-72869996D01*
X138861492Y-72780003D01*
X152635569Y-72780003D01*
X152655190Y-72916473D01*
X152655192Y-72916480D01*
X152699027Y-73012466D01*
X152712471Y-73041903D01*
X152775813Y-73115004D01*
X152802766Y-73146110D01*
X152858459Y-73181901D01*
X152918760Y-73220654D01*
X153051058Y-73259500D01*
X153051061Y-73259500D01*
X153188939Y-73259500D01*
X153188942Y-73259500D01*
X153321240Y-73220654D01*
X153437235Y-73146109D01*
X153527529Y-73041903D01*
X153584808Y-72916480D01*
X153585882Y-72909012D01*
X153604431Y-72780003D01*
X161215569Y-72780003D01*
X161235190Y-72916473D01*
X161235192Y-72916480D01*
X161279027Y-73012466D01*
X161292471Y-73041903D01*
X161355813Y-73115004D01*
X161382766Y-73146110D01*
X161438459Y-73181901D01*
X161498760Y-73220654D01*
X161631058Y-73259500D01*
X161631061Y-73259500D01*
X161768939Y-73259500D01*
X161768942Y-73259500D01*
X161901240Y-73220654D01*
X161968337Y-73177533D01*
X162036456Y-73157532D01*
X162104577Y-73177534D01*
X162151070Y-73231190D01*
X162161174Y-73301463D01*
X162145569Y-73410002D01*
X162145569Y-73410003D01*
X162165190Y-73546473D01*
X162165192Y-73546480D01*
X162212469Y-73650003D01*
X162222471Y-73671903D01*
X162308038Y-73770654D01*
X162312766Y-73776110D01*
X162349162Y-73799500D01*
X162428760Y-73850654D01*
X162561058Y-73889500D01*
X162561061Y-73889500D01*
X162698939Y-73889500D01*
X162698942Y-73889500D01*
X162831240Y-73850654D01*
X162947235Y-73776109D01*
X163037529Y-73671903D01*
X163094808Y-73546480D01*
X163102369Y-73493891D01*
X163114431Y-73410003D01*
X163114431Y-73409996D01*
X163108681Y-73370003D01*
X163385569Y-73370003D01*
X163405190Y-73506473D01*
X163405192Y-73506480D01*
X163444203Y-73591903D01*
X163462471Y-73631903D01*
X163541856Y-73723519D01*
X163552766Y-73736110D01*
X163582406Y-73755158D01*
X163668760Y-73810654D01*
X163801058Y-73849500D01*
X163801061Y-73849500D01*
X163938939Y-73849500D01*
X163938942Y-73849500D01*
X164071240Y-73810654D01*
X164187235Y-73736109D01*
X164277529Y-73631903D01*
X164334808Y-73506480D01*
X164340560Y-73466473D01*
X164354431Y-73370003D01*
X164354431Y-73369996D01*
X164334809Y-73233526D01*
X164334808Y-73233525D01*
X164334808Y-73233520D01*
X164277529Y-73108097D01*
X164187235Y-73003891D01*
X164187234Y-73003890D01*
X164187233Y-73003889D01*
X164071240Y-72929346D01*
X163938947Y-72890501D01*
X163938944Y-72890500D01*
X163938942Y-72890500D01*
X163801058Y-72890500D01*
X163801056Y-72890500D01*
X163801052Y-72890501D01*
X163668759Y-72929346D01*
X163552766Y-73003889D01*
X163462470Y-73108098D01*
X163405192Y-73233519D01*
X163405190Y-73233526D01*
X163385569Y-73369996D01*
X163385569Y-73370003D01*
X163108681Y-73370003D01*
X163094809Y-73273526D01*
X163094808Y-73273525D01*
X163094808Y-73273520D01*
X163037529Y-73148097D01*
X162947235Y-73043891D01*
X162947234Y-73043890D01*
X162947233Y-73043889D01*
X162831240Y-72969346D01*
X162698947Y-72930501D01*
X162698944Y-72930500D01*
X162698942Y-72930500D01*
X162561058Y-72930500D01*
X162561056Y-72930500D01*
X162561052Y-72930501D01*
X162428760Y-72969345D01*
X162361662Y-73012466D01*
X162293541Y-73032467D01*
X162225421Y-73012464D01*
X162178929Y-72958808D01*
X162168826Y-72888535D01*
X162184431Y-72780003D01*
X162184431Y-72779996D01*
X162164809Y-72643526D01*
X162164808Y-72643525D01*
X162164808Y-72643520D01*
X162107529Y-72518097D01*
X162017235Y-72413891D01*
X162017234Y-72413890D01*
X162017233Y-72413889D01*
X161901240Y-72339346D01*
X161768947Y-72300501D01*
X161768944Y-72300500D01*
X161768942Y-72300500D01*
X161631058Y-72300500D01*
X161631056Y-72300500D01*
X161631052Y-72300501D01*
X161498759Y-72339346D01*
X161382766Y-72413889D01*
X161292470Y-72518098D01*
X161235192Y-72643519D01*
X161235190Y-72643526D01*
X161215569Y-72779996D01*
X161215569Y-72780003D01*
X153604431Y-72780003D01*
X153604431Y-72779996D01*
X153584809Y-72643526D01*
X153584808Y-72643525D01*
X153584808Y-72643520D01*
X153527529Y-72518097D01*
X153437235Y-72413891D01*
X153437234Y-72413890D01*
X153437233Y-72413889D01*
X153321240Y-72339346D01*
X153188947Y-72300501D01*
X153188944Y-72300500D01*
X153188942Y-72300500D01*
X153051058Y-72300500D01*
X153051056Y-72300500D01*
X153051052Y-72300501D01*
X152918759Y-72339346D01*
X152802766Y-72413889D01*
X152712470Y-72518098D01*
X152655192Y-72643519D01*
X152655190Y-72643526D01*
X152635569Y-72779996D01*
X152635569Y-72780003D01*
X138861492Y-72780003D01*
X138854809Y-72733526D01*
X138854808Y-72733525D01*
X138854808Y-72733520D01*
X138797529Y-72608097D01*
X138707235Y-72503891D01*
X138707234Y-72503890D01*
X138707233Y-72503889D01*
X138591240Y-72429346D01*
X138458947Y-72390501D01*
X138458944Y-72390500D01*
X138458942Y-72390500D01*
X138321058Y-72390500D01*
X138321056Y-72390500D01*
X138321052Y-72390501D01*
X138188759Y-72429346D01*
X138072766Y-72503889D01*
X137982470Y-72608098D01*
X137925192Y-72733519D01*
X137925190Y-72733526D01*
X137905569Y-72869996D01*
X137905569Y-72870003D01*
X128825364Y-72870003D01*
X128758947Y-72850501D01*
X128758944Y-72850500D01*
X128758942Y-72850500D01*
X128621058Y-72850500D01*
X128621056Y-72850500D01*
X128621052Y-72850501D01*
X128488759Y-72889346D01*
X128372766Y-72963889D01*
X128282470Y-73068098D01*
X128225192Y-73193519D01*
X128225190Y-73193526D01*
X128205569Y-73329996D01*
X128205569Y-73330003D01*
X119480487Y-73330003D01*
X119501023Y-73298051D01*
X119515413Y-73287279D01*
X119517235Y-73286109D01*
X119607529Y-73181903D01*
X119664808Y-73056480D01*
X119672369Y-73003891D01*
X119684431Y-72920003D01*
X119684431Y-72919996D01*
X119664809Y-72783526D01*
X119664808Y-72783525D01*
X119664808Y-72783520D01*
X119607529Y-72658097D01*
X119517235Y-72553891D01*
X119517234Y-72553890D01*
X119517233Y-72553889D01*
X119401240Y-72479346D01*
X119268947Y-72440501D01*
X119268944Y-72440500D01*
X119268942Y-72440500D01*
X119131058Y-72440500D01*
X119131056Y-72440500D01*
X119131052Y-72440501D01*
X118998759Y-72479346D01*
X118882766Y-72553889D01*
X118792470Y-72658098D01*
X118735192Y-72783519D01*
X118735190Y-72783525D01*
X118721154Y-72881147D01*
X118691661Y-72945727D01*
X118631934Y-72984110D01*
X118560938Y-72984110D01*
X118501212Y-72945726D01*
X118471720Y-72881147D01*
X118454808Y-72763520D01*
X118397529Y-72638097D01*
X118307235Y-72533891D01*
X118307234Y-72533890D01*
X118307233Y-72533889D01*
X118191240Y-72459346D01*
X118058947Y-72420501D01*
X118058944Y-72420500D01*
X118058942Y-72420500D01*
X117921058Y-72420500D01*
X117921056Y-72420500D01*
X117921052Y-72420501D01*
X117788759Y-72459346D01*
X117672766Y-72533889D01*
X117582470Y-72638098D01*
X117525192Y-72763519D01*
X117525190Y-72763526D01*
X117505569Y-72899996D01*
X117505569Y-72909012D01*
X117503717Y-72909012D01*
X117495190Y-72968338D01*
X117448699Y-73021995D01*
X117380579Y-73042000D01*
X113941124Y-73042000D01*
X113873003Y-73021998D01*
X113845899Y-72998512D01*
X113815898Y-72963889D01*
X113807235Y-72953891D01*
X113807234Y-72953890D01*
X113807233Y-72953889D01*
X113691240Y-72879346D01*
X113558947Y-72840501D01*
X113558944Y-72840500D01*
X113558942Y-72840500D01*
X113421058Y-72840500D01*
X113421056Y-72840500D01*
X113421052Y-72840501D01*
X113288759Y-72879346D01*
X113172766Y-72953889D01*
X113082470Y-73058098D01*
X113025192Y-73183519D01*
X113025190Y-73183525D01*
X113011659Y-73277634D01*
X112982166Y-73342214D01*
X112922439Y-73380597D01*
X112851444Y-73380597D01*
X112748947Y-73350501D01*
X112748944Y-73350500D01*
X112748942Y-73350500D01*
X112611058Y-73350500D01*
X112611056Y-73350500D01*
X112611052Y-73350501D01*
X112478759Y-73389346D01*
X112362766Y-73463889D01*
X112272470Y-73568098D01*
X112215192Y-73693519D01*
X112215190Y-73693526D01*
X112195569Y-73829996D01*
X112195569Y-73830003D01*
X101674500Y-73830003D01*
X101674499Y-72239934D01*
X101674498Y-72239930D01*
X101674498Y-72239926D01*
X101660590Y-72170003D01*
X105625569Y-72170003D01*
X105645190Y-72306473D01*
X105645192Y-72306480D01*
X105702471Y-72431903D01*
X105790843Y-72533891D01*
X105792766Y-72536110D01*
X105850762Y-72573381D01*
X105908760Y-72610654D01*
X106041058Y-72649500D01*
X106041061Y-72649500D01*
X106178939Y-72649500D01*
X106178942Y-72649500D01*
X106311240Y-72610654D01*
X106427235Y-72536109D01*
X106517529Y-72431903D01*
X106574808Y-72306480D01*
X106594431Y-72170000D01*
X106594431Y-72169996D01*
X106592994Y-72160003D01*
X139335569Y-72160003D01*
X139355190Y-72296473D01*
X139355192Y-72296479D01*
X139355192Y-72296480D01*
X139412471Y-72421903D01*
X139483513Y-72503891D01*
X139502766Y-72526110D01*
X139514871Y-72533889D01*
X139618760Y-72600654D01*
X139751058Y-72639500D01*
X139751061Y-72639500D01*
X139888939Y-72639500D01*
X139888942Y-72639500D01*
X140021240Y-72600654D01*
X140137235Y-72526109D01*
X140227529Y-72421903D01*
X140284808Y-72296480D01*
X140304292Y-72160965D01*
X140333784Y-72096387D01*
X140339900Y-72089818D01*
X140809718Y-71620000D01*
X170480715Y-71620000D01*
X170499771Y-71764752D01*
X170555644Y-71899641D01*
X170555649Y-71899649D01*
X170644525Y-72015474D01*
X170760350Y-72104350D01*
X170760357Y-72104355D01*
X170895246Y-72160228D01*
X171040000Y-72179285D01*
X171184754Y-72160228D01*
X171319643Y-72104355D01*
X171435474Y-72015474D01*
X171524355Y-71899643D01*
X171580228Y-71764754D01*
X171599285Y-71620000D01*
X171580228Y-71475246D01*
X171524355Y-71340358D01*
X171435474Y-71224526D01*
X171435472Y-71224524D01*
X171435471Y-71224523D01*
X171319649Y-71135649D01*
X171319641Y-71135644D01*
X171184752Y-71079771D01*
X171040000Y-71060715D01*
X170895247Y-71079771D01*
X170827802Y-71107708D01*
X170760358Y-71135645D01*
X170760357Y-71135646D01*
X170760356Y-71135646D01*
X170644526Y-71224526D01*
X170555646Y-71340356D01*
X170555645Y-71340358D01*
X170543575Y-71369498D01*
X170499771Y-71475247D01*
X170480715Y-71619999D01*
X170480715Y-71620000D01*
X140809718Y-71620000D01*
X141093109Y-71336609D01*
X141097141Y-71332916D01*
X141099838Y-71330653D01*
X141127360Y-71307560D01*
X141147088Y-71273388D01*
X141150014Y-71268794D01*
X141172651Y-71236466D01*
X141172652Y-71236463D01*
X141175683Y-71229963D01*
X141180985Y-71217162D01*
X141183432Y-71210440D01*
X141190282Y-71171587D01*
X141191470Y-71166231D01*
X141201677Y-71128143D01*
X141199574Y-71104110D01*
X141198240Y-71088850D01*
X141198000Y-71083358D01*
X141198000Y-70290003D01*
X155815569Y-70290003D01*
X155835190Y-70426473D01*
X155835192Y-70426480D01*
X155892471Y-70551903D01*
X155958493Y-70628097D01*
X155982766Y-70656110D01*
X156026592Y-70684275D01*
X156098760Y-70730654D01*
X156231058Y-70769500D01*
X156231061Y-70769500D01*
X156368939Y-70769500D01*
X156368942Y-70769500D01*
X156501240Y-70730654D01*
X156617235Y-70656109D01*
X156707529Y-70551903D01*
X156764808Y-70426480D01*
X156779239Y-70326110D01*
X156784431Y-70290003D01*
X156784431Y-70289996D01*
X156764809Y-70153526D01*
X156764808Y-70153525D01*
X156764808Y-70153520D01*
X156735801Y-70090003D01*
X159775569Y-70090003D01*
X159795190Y-70226473D01*
X159795192Y-70226480D01*
X159852471Y-70351903D01*
X159936905Y-70449346D01*
X159942766Y-70456110D01*
X159990023Y-70486480D01*
X160058760Y-70530654D01*
X160191058Y-70569500D01*
X160191061Y-70569500D01*
X160328939Y-70569500D01*
X160328942Y-70569500D01*
X160461240Y-70530654D01*
X160577235Y-70456109D01*
X160667529Y-70351903D01*
X160724808Y-70226480D01*
X160727737Y-70206109D01*
X160744431Y-70090003D01*
X160744431Y-70089996D01*
X160724809Y-69953526D01*
X160724808Y-69953525D01*
X160724808Y-69953520D01*
X160672966Y-69840003D01*
X161615569Y-69840003D01*
X161635190Y-69976473D01*
X161635192Y-69976480D01*
X161682606Y-70080303D01*
X161692471Y-70101903D01*
X161782765Y-70206109D01*
X161782766Y-70206110D01*
X161794306Y-70213526D01*
X161898760Y-70280654D01*
X162031058Y-70319500D01*
X162031061Y-70319500D01*
X162168939Y-70319500D01*
X162168942Y-70319500D01*
X162301240Y-70280654D01*
X162417235Y-70206109D01*
X162507529Y-70101903D01*
X162564808Y-69976480D01*
X162567177Y-69960003D01*
X162584431Y-69840003D01*
X162584431Y-69839996D01*
X162564809Y-69703526D01*
X162564808Y-69703525D01*
X162564808Y-69703520D01*
X162507529Y-69578097D01*
X162417235Y-69473891D01*
X162417234Y-69473890D01*
X162417233Y-69473889D01*
X162301240Y-69399346D01*
X162168947Y-69360501D01*
X162168944Y-69360500D01*
X162168942Y-69360500D01*
X162031058Y-69360500D01*
X162031056Y-69360500D01*
X162031052Y-69360501D01*
X161898759Y-69399346D01*
X161782766Y-69473889D01*
X161692470Y-69578098D01*
X161635192Y-69703519D01*
X161635190Y-69703526D01*
X161615569Y-69839996D01*
X161615569Y-69840003D01*
X160672966Y-69840003D01*
X160667529Y-69828097D01*
X160577235Y-69723891D01*
X160577234Y-69723890D01*
X160577233Y-69723889D01*
X160461240Y-69649346D01*
X160328947Y-69610501D01*
X160328944Y-69610500D01*
X160328942Y-69610500D01*
X160191058Y-69610500D01*
X160191056Y-69610500D01*
X160191052Y-69610501D01*
X160058759Y-69649346D01*
X159942766Y-69723889D01*
X159852470Y-69828098D01*
X159795192Y-69953519D01*
X159795190Y-69953526D01*
X159775569Y-70089996D01*
X159775569Y-70090003D01*
X156735801Y-70090003D01*
X156707529Y-70028097D01*
X156617235Y-69923891D01*
X156617234Y-69923890D01*
X156617233Y-69923889D01*
X156501240Y-69849346D01*
X156368947Y-69810501D01*
X156368944Y-69810500D01*
X156368942Y-69810500D01*
X156231058Y-69810500D01*
X156231056Y-69810500D01*
X156231052Y-69810501D01*
X156098759Y-69849346D01*
X155982766Y-69923889D01*
X155892470Y-70028098D01*
X155835192Y-70153519D01*
X155835190Y-70153526D01*
X155815569Y-70289996D01*
X155815569Y-70290003D01*
X141198000Y-70290003D01*
X141198000Y-69285500D01*
X141218002Y-69217379D01*
X141271658Y-69170886D01*
X141324000Y-69159500D01*
X141338939Y-69159500D01*
X141338942Y-69159500D01*
X141471240Y-69120654D01*
X141587235Y-69046109D01*
X141677529Y-68941903D01*
X141734808Y-68816480D01*
X141735098Y-68814460D01*
X141754431Y-68680003D01*
X141754431Y-68679996D01*
X141734809Y-68543526D01*
X141734808Y-68543525D01*
X141734808Y-68543520D01*
X141677529Y-68418097D01*
X141592531Y-68320003D01*
X145635569Y-68320003D01*
X145655190Y-68456473D01*
X145655192Y-68456480D01*
X145711373Y-68579500D01*
X145712471Y-68581903D01*
X145800843Y-68683891D01*
X145802766Y-68686110D01*
X145834452Y-68706473D01*
X145918760Y-68760654D01*
X146051058Y-68799500D01*
X146051061Y-68799500D01*
X146188939Y-68799500D01*
X146188942Y-68799500D01*
X146314715Y-68762570D01*
X146385706Y-68762570D01*
X146445433Y-68800953D01*
X146474926Y-68865533D01*
X146483702Y-68926567D01*
X146473599Y-68996841D01*
X146427107Y-69050497D01*
X146358986Y-69070500D01*
X146341058Y-69070500D01*
X146341056Y-69070500D01*
X146341052Y-69070501D01*
X146208759Y-69109346D01*
X146092766Y-69183889D01*
X146002470Y-69288098D01*
X145945192Y-69413519D01*
X145945190Y-69413526D01*
X145925569Y-69549996D01*
X145925569Y-69550003D01*
X145945190Y-69686473D01*
X145945192Y-69686480D01*
X146002471Y-69811903D01*
X146088038Y-69910654D01*
X146092766Y-69916110D01*
X146104871Y-69923889D01*
X146208760Y-69990654D01*
X146341058Y-70029500D01*
X146341061Y-70029500D01*
X146478939Y-70029500D01*
X146478942Y-70029500D01*
X146611240Y-69990654D01*
X146727235Y-69916109D01*
X146817529Y-69811903D01*
X146874808Y-69686480D01*
X146885732Y-69610501D01*
X146894431Y-69550003D01*
X146894431Y-69549996D01*
X146886298Y-69493432D01*
X146896401Y-69423158D01*
X146942894Y-69369502D01*
X147011015Y-69349500D01*
X147028939Y-69349500D01*
X147028942Y-69349500D01*
X147161240Y-69310654D01*
X147277235Y-69236109D01*
X147367529Y-69131903D01*
X147404932Y-69050003D01*
X155805569Y-69050003D01*
X155825190Y-69186473D01*
X155825192Y-69186480D01*
X155882471Y-69311903D01*
X155958240Y-69399346D01*
X155972766Y-69416110D01*
X156030762Y-69453381D01*
X156088760Y-69490654D01*
X156221058Y-69529500D01*
X156221061Y-69529500D01*
X156358939Y-69529500D01*
X156358942Y-69529500D01*
X156491240Y-69490654D01*
X156607235Y-69416109D01*
X156697529Y-69311903D01*
X156754808Y-69186480D01*
X156758687Y-69159500D01*
X156774431Y-69050003D01*
X156774431Y-69049996D01*
X156754809Y-68913526D01*
X156754808Y-68913525D01*
X156754808Y-68913520D01*
X156697529Y-68788097D01*
X156607235Y-68683891D01*
X156607234Y-68683890D01*
X156607233Y-68683889D01*
X156491240Y-68609346D01*
X156358947Y-68570501D01*
X156358944Y-68570500D01*
X156358942Y-68570500D01*
X156221058Y-68570500D01*
X156221056Y-68570500D01*
X156221052Y-68570501D01*
X156088759Y-68609346D01*
X155972766Y-68683889D01*
X155882470Y-68788098D01*
X155825192Y-68913519D01*
X155825190Y-68913526D01*
X155805569Y-69049996D01*
X155805569Y-69050003D01*
X147404932Y-69050003D01*
X147424808Y-69006480D01*
X147438174Y-68913519D01*
X147444431Y-68870003D01*
X147444431Y-68869996D01*
X147424809Y-68733526D01*
X147424808Y-68733525D01*
X147424808Y-68733520D01*
X147367529Y-68608097D01*
X147277235Y-68503891D01*
X147277234Y-68503890D01*
X147277233Y-68503889D01*
X147161240Y-68429346D01*
X147028947Y-68390501D01*
X147028944Y-68390500D01*
X147028942Y-68390500D01*
X146891058Y-68390500D01*
X146891056Y-68390500D01*
X146891052Y-68390501D01*
X146765288Y-68427429D01*
X146694292Y-68427429D01*
X146634565Y-68389045D01*
X146605072Y-68324465D01*
X146605072Y-68324464D01*
X146604430Y-68320002D01*
X146604431Y-68320000D01*
X146584808Y-68183520D01*
X146546667Y-68100003D01*
X149435569Y-68100003D01*
X149455190Y-68236473D01*
X149455192Y-68236480D01*
X149494203Y-68321903D01*
X149512471Y-68361903D01*
X149594422Y-68456480D01*
X149602766Y-68466110D01*
X149656517Y-68500653D01*
X149718760Y-68540654D01*
X149851058Y-68579500D01*
X149851061Y-68579500D01*
X149988939Y-68579500D01*
X149988942Y-68579500D01*
X150121240Y-68540654D01*
X150237235Y-68466109D01*
X150327529Y-68361903D01*
X150384808Y-68236480D01*
X150400212Y-68129346D01*
X150404431Y-68100003D01*
X150404431Y-68099996D01*
X150398681Y-68060003D01*
X151545569Y-68060003D01*
X151565190Y-68196473D01*
X151565192Y-68196480D01*
X151568576Y-68203891D01*
X151622471Y-68321903D01*
X151705823Y-68418097D01*
X151712766Y-68426110D01*
X151760023Y-68456480D01*
X151828760Y-68500654D01*
X151961058Y-68539500D01*
X151961061Y-68539500D01*
X152098939Y-68539500D01*
X152098942Y-68539500D01*
X152231240Y-68500654D01*
X152347235Y-68426109D01*
X152437529Y-68321903D01*
X152494808Y-68196480D01*
X152497685Y-68176473D01*
X152514431Y-68060003D01*
X152514431Y-68059996D01*
X152511556Y-68040003D01*
X153635569Y-68040003D01*
X153655190Y-68176473D01*
X153655192Y-68176480D01*
X153712471Y-68301903D01*
X153764459Y-68361901D01*
X153802766Y-68406110D01*
X153845427Y-68433526D01*
X153918760Y-68480654D01*
X154051058Y-68519500D01*
X154051061Y-68519500D01*
X154188939Y-68519500D01*
X154188942Y-68519500D01*
X154321240Y-68480654D01*
X154437235Y-68406109D01*
X154527529Y-68301903D01*
X154584808Y-68176480D01*
X154601555Y-68060003D01*
X154604431Y-68040003D01*
X154604431Y-68039996D01*
X154584809Y-67903526D01*
X154584808Y-67903525D01*
X154584808Y-67903520D01*
X154527529Y-67778097D01*
X154437235Y-67673891D01*
X154437234Y-67673890D01*
X154437233Y-67673889D01*
X154321240Y-67599346D01*
X154188947Y-67560501D01*
X154188944Y-67560500D01*
X154188942Y-67560500D01*
X154051058Y-67560500D01*
X154051056Y-67560500D01*
X154051052Y-67560501D01*
X153918759Y-67599346D01*
X153802766Y-67673889D01*
X153712470Y-67778098D01*
X153655192Y-67903519D01*
X153655190Y-67903526D01*
X153635569Y-68039996D01*
X153635569Y-68040003D01*
X152511556Y-68040003D01*
X152494809Y-67923526D01*
X152494808Y-67923525D01*
X152494808Y-67923520D01*
X152437529Y-67798097D01*
X152347235Y-67693891D01*
X152347234Y-67693890D01*
X152347233Y-67693889D01*
X152231240Y-67619346D01*
X152098947Y-67580501D01*
X152098944Y-67580500D01*
X152098942Y-67580500D01*
X151961058Y-67580500D01*
X151961056Y-67580500D01*
X151961052Y-67580501D01*
X151828759Y-67619346D01*
X151712766Y-67693889D01*
X151622470Y-67798098D01*
X151565192Y-67923519D01*
X151565190Y-67923526D01*
X151545569Y-68059996D01*
X151545569Y-68060003D01*
X150398681Y-68060003D01*
X150384809Y-67963526D01*
X150384808Y-67963525D01*
X150384808Y-67963520D01*
X150327529Y-67838097D01*
X150237235Y-67733891D01*
X150237234Y-67733890D01*
X150237233Y-67733889D01*
X150121240Y-67659346D01*
X149988947Y-67620501D01*
X149988944Y-67620500D01*
X149988942Y-67620500D01*
X149851058Y-67620500D01*
X149851056Y-67620500D01*
X149851052Y-67620501D01*
X149718759Y-67659346D01*
X149602766Y-67733889D01*
X149512470Y-67838098D01*
X149455192Y-67963519D01*
X149455190Y-67963526D01*
X149435569Y-68099996D01*
X149435569Y-68100003D01*
X146546667Y-68100003D01*
X146527529Y-68058097D01*
X146437235Y-67953891D01*
X146437234Y-67953890D01*
X146437233Y-67953889D01*
X146321240Y-67879346D01*
X146188947Y-67840501D01*
X146188944Y-67840500D01*
X146188942Y-67840500D01*
X146051058Y-67840500D01*
X146051056Y-67840500D01*
X146051052Y-67840501D01*
X145918759Y-67879346D01*
X145802766Y-67953889D01*
X145712470Y-68058098D01*
X145655192Y-68183519D01*
X145655190Y-68183526D01*
X145635569Y-68319996D01*
X145635569Y-68320003D01*
X141592531Y-68320003D01*
X141587235Y-68313891D01*
X141587234Y-68313890D01*
X141587233Y-68313889D01*
X141471240Y-68239346D01*
X141338947Y-68200501D01*
X141338944Y-68200500D01*
X141338942Y-68200500D01*
X141201058Y-68200500D01*
X141201056Y-68200500D01*
X141201052Y-68200501D01*
X141068759Y-68239346D01*
X140952766Y-68313889D01*
X140862470Y-68418098D01*
X140805192Y-68543519D01*
X140805190Y-68543525D01*
X140785707Y-68679031D01*
X140756214Y-68743611D01*
X140750085Y-68750193D01*
X140666909Y-68833370D01*
X140662856Y-68837084D01*
X140632639Y-68862440D01*
X140612914Y-68896601D01*
X140609963Y-68901233D01*
X140587348Y-68933533D01*
X140584352Y-68939957D01*
X140578994Y-68952893D01*
X140576566Y-68959563D01*
X140569718Y-68998399D01*
X140568529Y-69003764D01*
X140558323Y-69041851D01*
X140558323Y-69041856D01*
X140561760Y-69081150D01*
X140562000Y-69086642D01*
X140562000Y-69997791D01*
X140541998Y-70065912D01*
X140488342Y-70112405D01*
X140418068Y-70122509D01*
X140353488Y-70093015D01*
X140340779Y-70080307D01*
X140257235Y-69983891D01*
X140257234Y-69983890D01*
X140257233Y-69983889D01*
X140141240Y-69909346D01*
X140008947Y-69870501D01*
X140008944Y-69870500D01*
X140008942Y-69870500D01*
X139871058Y-69870500D01*
X139871056Y-69870500D01*
X139871052Y-69870501D01*
X139738759Y-69909346D01*
X139622766Y-69983889D01*
X139532470Y-70088098D01*
X139475192Y-70213519D01*
X139475190Y-70213526D01*
X139455569Y-70349996D01*
X139455569Y-70350003D01*
X139475190Y-70486473D01*
X139475192Y-70486480D01*
X139518500Y-70581312D01*
X139532471Y-70611903D01*
X139595181Y-70684275D01*
X139622766Y-70716110D01*
X139680762Y-70753381D01*
X139738760Y-70790654D01*
X139871058Y-70829500D01*
X139871061Y-70829500D01*
X140008939Y-70829500D01*
X140008942Y-70829500D01*
X140141240Y-70790654D01*
X140257235Y-70716109D01*
X140340776Y-70619696D01*
X140400500Y-70581312D01*
X140471497Y-70581311D01*
X140531223Y-70619694D01*
X140560717Y-70684275D01*
X140562000Y-70702208D01*
X140562000Y-70916090D01*
X140541998Y-70984211D01*
X140525095Y-71005185D01*
X139886685Y-71643595D01*
X139824373Y-71677621D01*
X139797590Y-71680500D01*
X139751058Y-71680500D01*
X139751056Y-71680500D01*
X139751052Y-71680501D01*
X139618759Y-71719346D01*
X139502766Y-71793889D01*
X139412470Y-71898098D01*
X139355192Y-72023519D01*
X139355190Y-72023526D01*
X139335569Y-72159996D01*
X139335569Y-72160003D01*
X106592994Y-72160003D01*
X106574809Y-72033526D01*
X106574808Y-72033525D01*
X106574808Y-72033520D01*
X106517529Y-71908097D01*
X106427235Y-71803891D01*
X106427234Y-71803890D01*
X106427233Y-71803889D01*
X106311240Y-71729346D01*
X106178947Y-71690501D01*
X106178944Y-71690500D01*
X106178942Y-71690500D01*
X106041058Y-71690500D01*
X106041056Y-71690500D01*
X106041052Y-71690501D01*
X105908759Y-71729346D01*
X105792766Y-71803889D01*
X105702470Y-71908098D01*
X105645192Y-72033519D01*
X105645190Y-72033526D01*
X105625569Y-72169996D01*
X105625569Y-72170003D01*
X101660590Y-72170003D01*
X101659734Y-72165699D01*
X101630571Y-72122054D01*
X101603484Y-72081516D01*
X101553494Y-72048113D01*
X101519302Y-72025266D01*
X101445067Y-72010500D01*
X99694936Y-72010500D01*
X99694926Y-72010501D01*
X99620699Y-72025265D01*
X99536515Y-72081516D01*
X99480266Y-72165697D01*
X99465500Y-72239930D01*
X99465500Y-73990063D01*
X98709566Y-73990063D01*
X98849732Y-73862285D01*
X98851456Y-73860003D01*
X98888722Y-73810654D01*
X98973088Y-73698935D01*
X99064328Y-73515701D01*
X99120345Y-73318821D01*
X99128009Y-73236110D01*
X99139232Y-73115004D01*
X99139232Y-73114995D01*
X99120836Y-72916480D01*
X99120345Y-72911179D01*
X99064328Y-72714299D01*
X98973088Y-72531065D01*
X98932538Y-72477368D01*
X98849733Y-72367715D01*
X98698463Y-72229814D01*
X98524433Y-72122059D01*
X98524428Y-72122057D01*
X98524427Y-72122056D01*
X98441175Y-72089804D01*
X98333559Y-72048113D01*
X98333560Y-72048113D01*
X98333557Y-72048112D01*
X98333556Y-72048112D01*
X98132347Y-72010500D01*
X97927653Y-72010500D01*
X97726444Y-72048112D01*
X97726439Y-72048113D01*
X97535577Y-72122054D01*
X97535566Y-72122059D01*
X97361536Y-72229814D01*
X97210266Y-72367715D01*
X97086913Y-72531063D01*
X96995671Y-72714301D01*
X96939654Y-72911180D01*
X96920768Y-73114995D01*
X96920768Y-73115004D01*
X93300500Y-73115004D01*
X93300500Y-70890003D01*
X105575569Y-70890003D01*
X105595190Y-71026473D01*
X105595192Y-71026480D01*
X105623675Y-71088850D01*
X105652471Y-71151903D01*
X105742765Y-71256109D01*
X105742766Y-71256110D01*
X105769670Y-71273400D01*
X105858760Y-71330654D01*
X105991058Y-71369500D01*
X105991061Y-71369500D01*
X106128939Y-71369500D01*
X106128942Y-71369500D01*
X106261240Y-71330654D01*
X106377235Y-71256109D01*
X106467529Y-71151903D01*
X106524808Y-71026480D01*
X106527870Y-71005185D01*
X106544431Y-70890003D01*
X106544431Y-70889996D01*
X106524809Y-70753526D01*
X106524808Y-70753525D01*
X106524808Y-70753520D01*
X106467529Y-70628097D01*
X106377235Y-70523891D01*
X106377234Y-70523890D01*
X106377233Y-70523889D01*
X106261240Y-70449346D01*
X106128947Y-70410501D01*
X106128944Y-70410500D01*
X106128942Y-70410500D01*
X105991058Y-70410500D01*
X105991056Y-70410500D01*
X105991052Y-70410501D01*
X105858759Y-70449346D01*
X105742766Y-70523889D01*
X105652470Y-70628098D01*
X105595192Y-70753519D01*
X105595190Y-70753526D01*
X105575569Y-70889996D01*
X105575569Y-70890003D01*
X93300500Y-70890003D01*
X93300500Y-69470003D01*
X105595569Y-69470003D01*
X105615190Y-69606473D01*
X105615192Y-69606480D01*
X105672471Y-69731903D01*
X105733124Y-69801901D01*
X105762766Y-69836110D01*
X105769837Y-69840654D01*
X105878760Y-69910654D01*
X106011058Y-69949500D01*
X106011061Y-69949500D01*
X106148939Y-69949500D01*
X106148942Y-69949500D01*
X106281240Y-69910654D01*
X106397235Y-69836109D01*
X106487529Y-69731903D01*
X106544808Y-69606480D01*
X106554366Y-69540003D01*
X119375569Y-69540003D01*
X119395190Y-69676473D01*
X119395192Y-69676480D01*
X119452471Y-69801903D01*
X119537040Y-69899502D01*
X119542766Y-69906110D01*
X119600762Y-69943381D01*
X119658760Y-69980654D01*
X119791058Y-70019500D01*
X119791061Y-70019500D01*
X119899569Y-70019500D01*
X119967690Y-70039502D01*
X120014183Y-70093158D01*
X120022488Y-70131338D01*
X120024286Y-70131080D01*
X120045190Y-70276473D01*
X120045192Y-70276480D01*
X120102471Y-70401903D01*
X120175751Y-70486473D01*
X120192766Y-70506110D01*
X120230956Y-70530653D01*
X120308760Y-70580654D01*
X120441058Y-70619500D01*
X120441061Y-70619500D01*
X120578939Y-70619500D01*
X120578942Y-70619500D01*
X120711240Y-70580654D01*
X120827235Y-70506109D01*
X120917529Y-70401903D01*
X120974808Y-70276480D01*
X120982655Y-70221901D01*
X120994431Y-70140003D01*
X120994431Y-70139996D01*
X120977671Y-70023432D01*
X120986790Y-69960003D01*
X124575569Y-69960003D01*
X124595190Y-70096473D01*
X124595192Y-70096480D01*
X124645258Y-70206110D01*
X124652471Y-70221903D01*
X124742765Y-70326109D01*
X124742766Y-70326110D01*
X124779934Y-70349996D01*
X124858760Y-70400654D01*
X124991058Y-70439500D01*
X124991061Y-70439500D01*
X125128939Y-70439500D01*
X125128942Y-70439500D01*
X125261240Y-70400654D01*
X125377235Y-70326109D01*
X125467529Y-70221903D01*
X125524808Y-70096480D01*
X125533000Y-70039502D01*
X125544431Y-69960003D01*
X125544431Y-69959996D01*
X125524809Y-69823526D01*
X125524808Y-69823525D01*
X125524808Y-69823520D01*
X125467529Y-69698097D01*
X125377235Y-69593891D01*
X125377234Y-69593890D01*
X125377233Y-69593889D01*
X125261240Y-69519346D01*
X125128947Y-69480501D01*
X125128944Y-69480500D01*
X125128942Y-69480500D01*
X124991058Y-69480500D01*
X124991056Y-69480500D01*
X124991052Y-69480501D01*
X124858759Y-69519346D01*
X124742766Y-69593889D01*
X124652470Y-69698098D01*
X124595192Y-69823519D01*
X124595190Y-69823526D01*
X124575569Y-69959996D01*
X124575569Y-69960003D01*
X120986790Y-69960003D01*
X120987774Y-69953158D01*
X121034267Y-69899502D01*
X121102387Y-69879500D01*
X121138939Y-69879500D01*
X121138942Y-69879500D01*
X121271240Y-69840654D01*
X121387235Y-69766109D01*
X121477529Y-69661903D01*
X121534808Y-69536480D01*
X121537671Y-69516568D01*
X121554431Y-69400003D01*
X121554431Y-69399996D01*
X121534809Y-69263526D01*
X121534808Y-69263525D01*
X121534808Y-69263520D01*
X121477529Y-69138097D01*
X121387235Y-69033891D01*
X121387234Y-69033890D01*
X121387233Y-69033889D01*
X121271240Y-68959346D01*
X121138947Y-68920501D01*
X121138944Y-68920500D01*
X121138942Y-68920500D01*
X121001058Y-68920500D01*
X121001056Y-68920500D01*
X121001052Y-68920501D01*
X120868759Y-68959346D01*
X120752766Y-69033889D01*
X120662470Y-69138098D01*
X120605192Y-69263519D01*
X120605190Y-69263526D01*
X120585569Y-69399996D01*
X120585569Y-69400003D01*
X120602329Y-69516568D01*
X120592226Y-69586842D01*
X120545733Y-69640498D01*
X120477613Y-69660500D01*
X120470431Y-69660500D01*
X120402310Y-69640498D01*
X120355817Y-69586842D01*
X120347511Y-69548661D01*
X120345714Y-69548920D01*
X120324809Y-69403526D01*
X120324808Y-69403525D01*
X120324808Y-69403520D01*
X120267529Y-69278097D01*
X120177235Y-69173891D01*
X120177234Y-69173890D01*
X120177233Y-69173889D01*
X120061240Y-69099346D01*
X119928947Y-69060501D01*
X119928944Y-69060500D01*
X119928942Y-69060500D01*
X119791058Y-69060500D01*
X119791056Y-69060500D01*
X119791052Y-69060501D01*
X119658759Y-69099346D01*
X119542766Y-69173889D01*
X119452470Y-69278098D01*
X119395192Y-69403519D01*
X119395190Y-69403526D01*
X119375569Y-69539996D01*
X119375569Y-69540003D01*
X106554366Y-69540003D01*
X106564431Y-69470003D01*
X106564431Y-69469996D01*
X106544809Y-69333526D01*
X106544808Y-69333525D01*
X106544808Y-69333520D01*
X106487529Y-69208097D01*
X106397235Y-69103891D01*
X106397234Y-69103890D01*
X106397233Y-69103889D01*
X106281240Y-69029346D01*
X106148947Y-68990501D01*
X106148944Y-68990500D01*
X106148942Y-68990500D01*
X106011058Y-68990500D01*
X106011056Y-68990500D01*
X106011052Y-68990501D01*
X105878759Y-69029346D01*
X105762766Y-69103889D01*
X105672470Y-69208098D01*
X105615192Y-69333519D01*
X105615190Y-69333526D01*
X105595569Y-69469996D01*
X105595569Y-69470003D01*
X93300500Y-69470003D01*
X93300500Y-68570003D01*
X124745569Y-68570003D01*
X124765190Y-68706473D01*
X124765192Y-68706480D01*
X124815427Y-68816480D01*
X124822471Y-68831903D01*
X124878532Y-68896601D01*
X124912766Y-68936110D01*
X124949260Y-68959563D01*
X125028760Y-69010654D01*
X125161058Y-69049500D01*
X125161061Y-69049500D01*
X125298939Y-69049500D01*
X125298942Y-69049500D01*
X125431240Y-69010654D01*
X125547235Y-68936109D01*
X125637529Y-68831903D01*
X125694808Y-68706480D01*
X125708774Y-68609346D01*
X125714431Y-68570003D01*
X125714431Y-68569996D01*
X125694809Y-68433526D01*
X125694808Y-68433525D01*
X125694808Y-68433520D01*
X125637529Y-68308097D01*
X125547235Y-68203891D01*
X125547234Y-68203890D01*
X125547233Y-68203889D01*
X125431240Y-68129346D01*
X125298947Y-68090501D01*
X125298944Y-68090500D01*
X125298942Y-68090500D01*
X125161058Y-68090500D01*
X125161056Y-68090500D01*
X125161052Y-68090501D01*
X125028759Y-68129346D01*
X124912766Y-68203889D01*
X124822470Y-68308098D01*
X124765192Y-68433519D01*
X124765190Y-68433526D01*
X124745569Y-68569996D01*
X124745569Y-68570003D01*
X93300500Y-68570003D01*
X93300500Y-67970003D01*
X105575569Y-67970003D01*
X105595190Y-68106473D01*
X105595192Y-68106480D01*
X105652471Y-68231903D01*
X105723513Y-68313891D01*
X105742766Y-68336110D01*
X105782898Y-68361901D01*
X105858760Y-68410654D01*
X105991058Y-68449500D01*
X105991061Y-68449500D01*
X106128939Y-68449500D01*
X106128942Y-68449500D01*
X106261240Y-68410654D01*
X106377235Y-68336109D01*
X106467529Y-68231903D01*
X106524808Y-68106480D01*
X106527106Y-68090500D01*
X106544431Y-67970003D01*
X106544431Y-67969996D01*
X106524809Y-67833526D01*
X106524808Y-67833525D01*
X106524808Y-67833520D01*
X106467529Y-67708097D01*
X106377235Y-67603891D01*
X106377234Y-67603890D01*
X106377233Y-67603889D01*
X106261240Y-67529346D01*
X106128947Y-67490501D01*
X106128944Y-67490500D01*
X106128942Y-67490500D01*
X105991058Y-67490500D01*
X105991056Y-67490500D01*
X105991052Y-67490501D01*
X105858759Y-67529346D01*
X105742766Y-67603889D01*
X105652470Y-67708098D01*
X105595192Y-67833519D01*
X105595190Y-67833526D01*
X105575569Y-67969996D01*
X105575569Y-67970003D01*
X93300500Y-67970003D01*
X93300500Y-67170003D01*
X158035569Y-67170003D01*
X158055190Y-67306473D01*
X158055192Y-67306480D01*
X158112471Y-67431903D01*
X158163245Y-67490500D01*
X158202766Y-67536110D01*
X158240718Y-67560500D01*
X158318760Y-67610654D01*
X158451058Y-67649500D01*
X158451061Y-67649500D01*
X158588939Y-67649500D01*
X158588942Y-67649500D01*
X158721240Y-67610654D01*
X158837235Y-67536109D01*
X158927529Y-67431903D01*
X158984808Y-67306480D01*
X159004431Y-67170000D01*
X159004431Y-67169996D01*
X158984809Y-67033526D01*
X158984808Y-67033525D01*
X158984808Y-67033520D01*
X158927529Y-66908097D01*
X158837235Y-66803891D01*
X158837234Y-66803890D01*
X158837233Y-66803889D01*
X158721240Y-66729346D01*
X158588947Y-66690501D01*
X158588944Y-66690500D01*
X158588942Y-66690500D01*
X158451058Y-66690500D01*
X158451056Y-66690500D01*
X158451052Y-66690501D01*
X158318759Y-66729346D01*
X158202766Y-66803889D01*
X158112470Y-66908098D01*
X158055192Y-67033519D01*
X158055190Y-67033526D01*
X158035569Y-67169996D01*
X158035569Y-67170003D01*
X93300500Y-67170003D01*
X93300500Y-66400003D01*
X103845569Y-66400003D01*
X103865190Y-66536473D01*
X103865192Y-66536480D01*
X103922471Y-66661903D01*
X103980910Y-66729346D01*
X104012766Y-66766110D01*
X104070762Y-66803381D01*
X104128760Y-66840654D01*
X104261058Y-66879500D01*
X104261061Y-66879500D01*
X104398939Y-66879500D01*
X104398942Y-66879500D01*
X104531240Y-66840654D01*
X104647235Y-66766109D01*
X104737529Y-66661903D01*
X104794808Y-66536480D01*
X104814431Y-66400000D01*
X104814431Y-66399996D01*
X104794809Y-66263526D01*
X104794808Y-66263525D01*
X104794808Y-66263520D01*
X104737529Y-66138097D01*
X104647235Y-66033891D01*
X104647234Y-66033890D01*
X104647233Y-66033889D01*
X104531240Y-65959346D01*
X104398947Y-65920501D01*
X104398944Y-65920500D01*
X104398942Y-65920500D01*
X104261058Y-65920500D01*
X104261056Y-65920500D01*
X104261052Y-65920501D01*
X104128759Y-65959346D01*
X104012766Y-66033889D01*
X103922470Y-66138098D01*
X103865192Y-66263519D01*
X103865190Y-66263526D01*
X103845569Y-66399996D01*
X103845569Y-66400003D01*
X93300500Y-66400003D01*
X93300500Y-62585001D01*
X94452405Y-62585001D01*
X94472765Y-62921607D01*
X94472766Y-62921610D01*
X94533552Y-63253311D01*
X94633879Y-63575272D01*
X94772274Y-63882773D01*
X94772277Y-63882779D01*
X94946738Y-64171374D01*
X95104151Y-64372294D01*
X95104151Y-64372295D01*
X96004323Y-63472122D01*
X96059885Y-63552617D01*
X96230448Y-63730192D01*
X96357720Y-63825830D01*
X95457703Y-64725847D01*
X95658625Y-64883261D01*
X95947220Y-65057722D01*
X95947226Y-65057725D01*
X96254727Y-65196120D01*
X96576688Y-65296447D01*
X96908389Y-65357233D01*
X96908392Y-65357234D01*
X97244999Y-65377595D01*
X97245001Y-65377595D01*
X97581607Y-65357234D01*
X97581610Y-65357233D01*
X97913311Y-65296447D01*
X98235272Y-65196120D01*
X98542773Y-65057725D01*
X98542779Y-65057722D01*
X98770595Y-64920003D01*
X103785569Y-64920003D01*
X103805190Y-65056473D01*
X103805192Y-65056480D01*
X103862471Y-65181903D01*
X103952765Y-65286109D01*
X103952766Y-65286110D01*
X103968851Y-65296447D01*
X104068760Y-65360654D01*
X104201058Y-65399500D01*
X104201061Y-65399500D01*
X104338939Y-65399500D01*
X104338942Y-65399500D01*
X104471240Y-65360654D01*
X104587235Y-65286109D01*
X104677529Y-65181903D01*
X104734808Y-65056480D01*
X104735098Y-65054460D01*
X104754431Y-64920003D01*
X104754431Y-64919996D01*
X104734809Y-64783526D01*
X104734808Y-64783525D01*
X104734808Y-64783520D01*
X104710366Y-64730000D01*
X107495225Y-64730000D01*
X107514288Y-64947892D01*
X107570896Y-65159155D01*
X107570898Y-65159160D01*
X107663334Y-65357389D01*
X107706874Y-65419571D01*
X108266922Y-64859523D01*
X108290507Y-64939844D01*
X108368239Y-65060798D01*
X108476900Y-65154952D01*
X108607685Y-65214680D01*
X108617466Y-65216086D01*
X108060427Y-65773124D01*
X108060427Y-65773126D01*
X108122608Y-65816665D01*
X108320838Y-65909101D01*
X108320844Y-65909103D01*
X108532107Y-65965711D01*
X108750000Y-65984774D01*
X108967892Y-65965711D01*
X109179155Y-65909103D01*
X109179161Y-65909101D01*
X109377384Y-65816668D01*
X109439571Y-65773124D01*
X109439571Y-65773123D01*
X108882534Y-65216086D01*
X108892315Y-65214680D01*
X109023100Y-65154952D01*
X109131761Y-65060798D01*
X109209493Y-64939844D01*
X109233076Y-64859524D01*
X109793122Y-65419570D01*
X109819022Y-65417305D01*
X109840985Y-65417305D01*
X109866875Y-65419570D01*
X110426922Y-64859523D01*
X110450507Y-64939844D01*
X110528239Y-65060798D01*
X110636900Y-65154952D01*
X110767685Y-65214680D01*
X110777466Y-65216086D01*
X110220427Y-65773124D01*
X110220427Y-65773126D01*
X110282608Y-65816665D01*
X110480838Y-65909101D01*
X110480844Y-65909103D01*
X110692107Y-65965711D01*
X110910000Y-65984774D01*
X111127892Y-65965711D01*
X111339155Y-65909103D01*
X111339161Y-65909101D01*
X111537384Y-65816668D01*
X111599571Y-65773124D01*
X111599571Y-65773123D01*
X111042534Y-65216086D01*
X111052315Y-65214680D01*
X111183100Y-65154952D01*
X111291761Y-65060798D01*
X111369493Y-64939844D01*
X111393076Y-64859524D01*
X111953122Y-65419570D01*
X111979022Y-65417305D01*
X112000985Y-65417305D01*
X112026875Y-65419570D01*
X112586922Y-64859523D01*
X112610507Y-64939844D01*
X112688239Y-65060798D01*
X112796900Y-65154952D01*
X112927685Y-65214680D01*
X112937466Y-65216086D01*
X112380427Y-65773124D01*
X112380427Y-65773126D01*
X112442608Y-65816665D01*
X112640838Y-65909101D01*
X112640844Y-65909103D01*
X112852107Y-65965711D01*
X113070000Y-65984774D01*
X113287892Y-65965711D01*
X113499155Y-65909103D01*
X113499161Y-65909101D01*
X113697384Y-65816668D01*
X113759571Y-65773124D01*
X113759571Y-65773123D01*
X113202534Y-65216086D01*
X113212315Y-65214680D01*
X113343100Y-65154952D01*
X113451761Y-65060798D01*
X113529493Y-64939844D01*
X113553076Y-64859524D01*
X114113122Y-65419570D01*
X114139022Y-65417305D01*
X114160985Y-65417305D01*
X114186875Y-65419570D01*
X114746922Y-64859523D01*
X114770507Y-64939844D01*
X114848239Y-65060798D01*
X114956900Y-65154952D01*
X115087685Y-65214680D01*
X115097466Y-65216086D01*
X114540427Y-65773124D01*
X114540427Y-65773126D01*
X114602608Y-65816665D01*
X114800838Y-65909101D01*
X114800844Y-65909103D01*
X115012107Y-65965711D01*
X115230000Y-65984774D01*
X115447892Y-65965711D01*
X115659155Y-65909103D01*
X115659161Y-65909101D01*
X115857384Y-65816668D01*
X115919571Y-65773124D01*
X115919571Y-65773123D01*
X115362534Y-65216086D01*
X115372315Y-65214680D01*
X115503100Y-65154952D01*
X115611761Y-65060798D01*
X115689493Y-64939844D01*
X115713076Y-64859524D01*
X116273122Y-65419570D01*
X116299022Y-65417305D01*
X116320985Y-65417305D01*
X116346875Y-65419570D01*
X116906922Y-64859523D01*
X116930507Y-64939844D01*
X117008239Y-65060798D01*
X117116900Y-65154952D01*
X117247685Y-65214680D01*
X117257466Y-65216086D01*
X116700427Y-65773124D01*
X116700427Y-65773126D01*
X116762608Y-65816665D01*
X116960838Y-65909101D01*
X116960844Y-65909103D01*
X117172107Y-65965711D01*
X117390000Y-65984774D01*
X117607892Y-65965711D01*
X117819155Y-65909103D01*
X117819161Y-65909101D01*
X118017384Y-65816668D01*
X118079571Y-65773124D01*
X118079571Y-65773123D01*
X117522534Y-65216086D01*
X117532315Y-65214680D01*
X117663100Y-65154952D01*
X117771761Y-65060798D01*
X117849493Y-64939844D01*
X117873076Y-64859524D01*
X118433122Y-65419570D01*
X118459022Y-65417305D01*
X118480985Y-65417305D01*
X118506875Y-65419570D01*
X119066922Y-64859523D01*
X119090507Y-64939844D01*
X119168239Y-65060798D01*
X119276900Y-65154952D01*
X119407685Y-65214680D01*
X119417466Y-65216086D01*
X118860427Y-65773124D01*
X118860427Y-65773126D01*
X118922608Y-65816665D01*
X119120838Y-65909101D01*
X119120844Y-65909103D01*
X119332107Y-65965711D01*
X119550000Y-65984774D01*
X119767892Y-65965711D01*
X119979155Y-65909103D01*
X119979161Y-65909101D01*
X120177384Y-65816668D01*
X120239571Y-65773124D01*
X120239571Y-65773123D01*
X119682534Y-65216086D01*
X119692315Y-65214680D01*
X119823100Y-65154952D01*
X119931761Y-65060798D01*
X120009493Y-64939844D01*
X120033076Y-64859524D01*
X120593122Y-65419570D01*
X120619022Y-65417305D01*
X120640985Y-65417305D01*
X120666875Y-65419570D01*
X121226922Y-64859523D01*
X121250507Y-64939844D01*
X121328239Y-65060798D01*
X121436900Y-65154952D01*
X121567685Y-65214680D01*
X121577466Y-65216086D01*
X121020427Y-65773124D01*
X121020427Y-65773126D01*
X121082608Y-65816665D01*
X121280838Y-65909101D01*
X121280844Y-65909103D01*
X121492107Y-65965711D01*
X121710000Y-65984774D01*
X121927892Y-65965711D01*
X122139155Y-65909103D01*
X122139161Y-65909101D01*
X122337384Y-65816668D01*
X122399571Y-65773124D01*
X122399571Y-65773123D01*
X121842534Y-65216086D01*
X121852315Y-65214680D01*
X121983100Y-65154952D01*
X122091761Y-65060798D01*
X122169493Y-64939844D01*
X122193076Y-64859524D01*
X122753122Y-65419570D01*
X122779022Y-65417305D01*
X122800985Y-65417305D01*
X122826875Y-65419570D01*
X123386922Y-64859523D01*
X123410507Y-64939844D01*
X123488239Y-65060798D01*
X123596900Y-65154952D01*
X123727685Y-65214680D01*
X123737466Y-65216086D01*
X123180427Y-65773124D01*
X123180427Y-65773126D01*
X123242608Y-65816665D01*
X123440838Y-65909101D01*
X123440844Y-65909103D01*
X123652107Y-65965711D01*
X123870000Y-65984774D01*
X124087892Y-65965711D01*
X124299155Y-65909103D01*
X124299161Y-65909101D01*
X124497384Y-65816668D01*
X124559571Y-65773124D01*
X124559571Y-65773123D01*
X124002534Y-65216086D01*
X124012315Y-65214680D01*
X124143100Y-65154952D01*
X124251761Y-65060798D01*
X124329493Y-64939844D01*
X124353076Y-64859524D01*
X124913122Y-65419570D01*
X124939022Y-65417305D01*
X124960985Y-65417305D01*
X124986875Y-65419570D01*
X125546922Y-64859523D01*
X125570507Y-64939844D01*
X125648239Y-65060798D01*
X125756900Y-65154952D01*
X125887685Y-65214680D01*
X125897466Y-65216086D01*
X125340427Y-65773124D01*
X125340427Y-65773126D01*
X125402608Y-65816665D01*
X125600838Y-65909101D01*
X125600844Y-65909103D01*
X125812107Y-65965711D01*
X126030000Y-65984774D01*
X126247892Y-65965711D01*
X126459155Y-65909103D01*
X126466859Y-65905511D01*
X126537051Y-65894847D01*
X126601865Y-65923825D01*
X126634727Y-65967361D01*
X126682468Y-66071898D01*
X126682470Y-66071901D01*
X126682471Y-66071903D01*
X126739828Y-66138097D01*
X126772766Y-66176110D01*
X126830762Y-66213381D01*
X126888760Y-66250654D01*
X127021058Y-66289500D01*
X127021061Y-66289500D01*
X127158939Y-66289500D01*
X127158942Y-66289500D01*
X127291240Y-66250654D01*
X127407235Y-66176109D01*
X127497529Y-66071903D01*
X127552294Y-65951982D01*
X127598786Y-65898329D01*
X127666906Y-65878326D01*
X127720157Y-65890131D01*
X127760839Y-65909101D01*
X127760844Y-65909103D01*
X127972107Y-65965711D01*
X128190000Y-65984774D01*
X128407892Y-65965711D01*
X128619155Y-65909103D01*
X128619161Y-65909101D01*
X128817384Y-65816668D01*
X128879571Y-65773124D01*
X128322533Y-65216086D01*
X128332315Y-65214680D01*
X128463100Y-65154952D01*
X128571761Y-65060798D01*
X128649493Y-64939844D01*
X128673076Y-64859524D01*
X129233122Y-65419570D01*
X129259022Y-65417305D01*
X129280985Y-65417305D01*
X129306875Y-65419570D01*
X129866922Y-64859523D01*
X129890507Y-64939844D01*
X129968239Y-65060798D01*
X130076900Y-65154952D01*
X130207685Y-65214680D01*
X130217466Y-65216086D01*
X129660427Y-65773124D01*
X129660427Y-65773126D01*
X129722608Y-65816665D01*
X129920838Y-65909101D01*
X129920844Y-65909103D01*
X130132107Y-65965711D01*
X130350000Y-65984774D01*
X130567892Y-65965711D01*
X130779155Y-65909103D01*
X130779161Y-65909101D01*
X130977384Y-65816668D01*
X131039571Y-65773124D01*
X131039571Y-65773123D01*
X130482534Y-65216086D01*
X130492315Y-65214680D01*
X130623100Y-65154952D01*
X130731761Y-65060798D01*
X130809493Y-64939844D01*
X130833076Y-64859524D01*
X131393123Y-65419571D01*
X131393124Y-65419571D01*
X131436669Y-65357382D01*
X131436670Y-65357382D01*
X131456689Y-65314451D01*
X131503606Y-65261165D01*
X131571883Y-65241704D01*
X131639843Y-65262245D01*
X131668283Y-65287766D01*
X131670747Y-65290768D01*
X131670748Y-65290770D01*
X131796275Y-65443725D01*
X131949230Y-65569252D01*
X132123735Y-65662527D01*
X132313084Y-65719965D01*
X132313088Y-65719965D01*
X132313090Y-65719966D01*
X132509997Y-65739360D01*
X132510000Y-65739360D01*
X132510003Y-65739360D01*
X132706909Y-65719966D01*
X132706910Y-65719965D01*
X132706916Y-65719965D01*
X132896265Y-65662527D01*
X133070770Y-65569252D01*
X133223725Y-65443725D01*
X133349252Y-65290770D01*
X133442527Y-65116265D01*
X133469425Y-65027590D01*
X133508340Y-64968210D01*
X133573181Y-64939295D01*
X133643362Y-64950025D01*
X133696601Y-64996994D01*
X133710573Y-65027588D01*
X133737473Y-65116265D01*
X133830748Y-65290770D01*
X133956275Y-65443725D01*
X134109230Y-65569252D01*
X134283735Y-65662527D01*
X134473084Y-65719965D01*
X134473088Y-65719965D01*
X134473090Y-65719966D01*
X134669997Y-65739360D01*
X134670000Y-65739360D01*
X134670003Y-65739360D01*
X134866909Y-65719966D01*
X134866910Y-65719965D01*
X134866916Y-65719965D01*
X135056265Y-65662527D01*
X135230770Y-65569252D01*
X135383725Y-65443725D01*
X135509252Y-65290770D01*
X135602527Y-65116265D01*
X135629425Y-65027590D01*
X135668340Y-64968210D01*
X135733181Y-64939295D01*
X135803362Y-64950025D01*
X135856601Y-64996994D01*
X135870573Y-65027588D01*
X135897473Y-65116265D01*
X135990748Y-65290770D01*
X136116275Y-65443725D01*
X136269230Y-65569252D01*
X136443735Y-65662527D01*
X136633084Y-65719965D01*
X136633088Y-65719965D01*
X136633090Y-65719966D01*
X136829997Y-65739360D01*
X136830000Y-65739360D01*
X136830003Y-65739360D01*
X137026909Y-65719966D01*
X137026910Y-65719965D01*
X137026916Y-65719965D01*
X137216265Y-65662527D01*
X137390770Y-65569252D01*
X137543725Y-65443725D01*
X137669252Y-65290770D01*
X137669252Y-65290768D01*
X137671717Y-65287766D01*
X137730394Y-65247797D01*
X137801365Y-65245897D01*
X137862098Y-65282668D01*
X137883311Y-65314450D01*
X137903334Y-65357389D01*
X137946874Y-65419571D01*
X138506922Y-64859523D01*
X138530507Y-64939844D01*
X138608239Y-65060798D01*
X138716900Y-65154952D01*
X138847685Y-65214680D01*
X138857466Y-65216086D01*
X138300427Y-65773124D01*
X138300427Y-65773126D01*
X138362608Y-65816665D01*
X138560838Y-65909101D01*
X138560844Y-65909103D01*
X138772107Y-65965711D01*
X138990000Y-65984774D01*
X139207892Y-65965711D01*
X139419155Y-65909103D01*
X139419161Y-65909101D01*
X139617384Y-65816668D01*
X139679571Y-65773124D01*
X139679571Y-65773123D01*
X139122534Y-65216086D01*
X139132315Y-65214680D01*
X139263100Y-65154952D01*
X139371761Y-65060798D01*
X139449493Y-64939844D01*
X139473076Y-64859524D01*
X140033122Y-65419570D01*
X140059022Y-65417305D01*
X140080985Y-65417305D01*
X140106875Y-65419570D01*
X140666922Y-64859523D01*
X140690507Y-64939844D01*
X140768239Y-65060798D01*
X140876900Y-65154952D01*
X141007685Y-65214680D01*
X141017466Y-65216086D01*
X140460427Y-65773124D01*
X140460427Y-65773126D01*
X140522608Y-65816665D01*
X140720838Y-65909101D01*
X140720844Y-65909103D01*
X140932107Y-65965711D01*
X141150000Y-65984774D01*
X141367892Y-65965711D01*
X141579155Y-65909103D01*
X141579161Y-65909101D01*
X141777384Y-65816668D01*
X141839571Y-65773124D01*
X141839571Y-65773123D01*
X141282534Y-65216086D01*
X141292315Y-65214680D01*
X141423100Y-65154952D01*
X141531761Y-65060798D01*
X141609493Y-64939844D01*
X141633076Y-64859524D01*
X142193122Y-65419570D01*
X142219022Y-65417305D01*
X142240985Y-65417305D01*
X142266875Y-65419570D01*
X142826922Y-64859523D01*
X142850507Y-64939844D01*
X142928239Y-65060798D01*
X143036900Y-65154952D01*
X143167685Y-65214680D01*
X143177466Y-65216086D01*
X142620427Y-65773124D01*
X142620427Y-65773126D01*
X142682608Y-65816665D01*
X142880838Y-65909101D01*
X142880844Y-65909103D01*
X143092107Y-65965711D01*
X143310000Y-65984774D01*
X143527892Y-65965711D01*
X143739155Y-65909103D01*
X143739161Y-65909101D01*
X143937384Y-65816668D01*
X143999571Y-65773124D01*
X143999571Y-65773123D01*
X143442534Y-65216086D01*
X143452315Y-65214680D01*
X143583100Y-65154952D01*
X143691761Y-65060798D01*
X143769493Y-64939844D01*
X143793076Y-64859524D01*
X144353122Y-65419570D01*
X144379022Y-65417305D01*
X144400985Y-65417305D01*
X144426875Y-65419570D01*
X144986922Y-64859523D01*
X145010507Y-64939844D01*
X145088239Y-65060798D01*
X145196900Y-65154952D01*
X145327685Y-65214680D01*
X145337466Y-65216086D01*
X144780427Y-65773124D01*
X144780427Y-65773126D01*
X144842608Y-65816665D01*
X145040838Y-65909101D01*
X145040844Y-65909103D01*
X145252107Y-65965711D01*
X145470000Y-65984774D01*
X145687892Y-65965711D01*
X145899155Y-65909103D01*
X145899161Y-65909101D01*
X146097384Y-65816668D01*
X146159571Y-65773124D01*
X146159571Y-65773123D01*
X145602534Y-65216086D01*
X145612315Y-65214680D01*
X145743100Y-65154952D01*
X145851761Y-65060798D01*
X145929493Y-64939844D01*
X145953076Y-64859524D01*
X146513122Y-65419570D01*
X146539022Y-65417305D01*
X146560985Y-65417305D01*
X146586875Y-65419570D01*
X147146922Y-64859523D01*
X147170507Y-64939844D01*
X147248239Y-65060798D01*
X147356900Y-65154952D01*
X147487685Y-65214680D01*
X147497466Y-65216086D01*
X146940427Y-65773124D01*
X146940427Y-65773126D01*
X147002608Y-65816665D01*
X147200838Y-65909101D01*
X147200844Y-65909103D01*
X147412107Y-65965711D01*
X147630000Y-65984774D01*
X147847892Y-65965711D01*
X148059155Y-65909103D01*
X148059161Y-65909101D01*
X148257384Y-65816668D01*
X148319571Y-65773124D01*
X148319571Y-65773123D01*
X147762534Y-65216086D01*
X147772315Y-65214680D01*
X147903100Y-65154952D01*
X148011761Y-65060798D01*
X148089493Y-64939844D01*
X148113076Y-64859524D01*
X148673122Y-65419570D01*
X148699022Y-65417305D01*
X148720985Y-65417305D01*
X148746875Y-65419570D01*
X149306922Y-64859523D01*
X149330507Y-64939844D01*
X149408239Y-65060798D01*
X149516900Y-65154952D01*
X149647685Y-65214680D01*
X149657466Y-65216086D01*
X149100427Y-65773124D01*
X149100427Y-65773126D01*
X149162608Y-65816665D01*
X149360838Y-65909101D01*
X149360844Y-65909103D01*
X149572107Y-65965711D01*
X149790000Y-65984774D01*
X150007892Y-65965711D01*
X150219155Y-65909103D01*
X150219161Y-65909101D01*
X150417384Y-65816668D01*
X150479571Y-65773124D01*
X150479571Y-65773123D01*
X149922534Y-65216086D01*
X149932315Y-65214680D01*
X150063100Y-65154952D01*
X150171761Y-65060798D01*
X150249493Y-64939844D01*
X150273076Y-64859524D01*
X150833122Y-65419570D01*
X150859022Y-65417305D01*
X150880985Y-65417305D01*
X150906875Y-65419570D01*
X151466922Y-64859523D01*
X151490507Y-64939844D01*
X151568239Y-65060798D01*
X151676900Y-65154952D01*
X151807685Y-65214680D01*
X151817466Y-65216086D01*
X151260427Y-65773124D01*
X151260427Y-65773126D01*
X151322608Y-65816665D01*
X151520838Y-65909101D01*
X151520844Y-65909103D01*
X151732107Y-65965711D01*
X151950000Y-65984774D01*
X152167892Y-65965711D01*
X152379155Y-65909103D01*
X152379161Y-65909101D01*
X152577384Y-65816668D01*
X152639571Y-65773124D01*
X152639571Y-65773123D01*
X152082534Y-65216086D01*
X152092315Y-65214680D01*
X152223100Y-65154952D01*
X152331761Y-65060798D01*
X152409493Y-64939844D01*
X152433076Y-64859524D01*
X152993122Y-65419570D01*
X153019022Y-65417305D01*
X153040985Y-65417305D01*
X153066875Y-65419570D01*
X153626922Y-64859523D01*
X153650507Y-64939844D01*
X153728239Y-65060798D01*
X153836900Y-65154952D01*
X153967685Y-65214680D01*
X153977466Y-65216086D01*
X153420427Y-65773124D01*
X153420427Y-65773126D01*
X153482608Y-65816665D01*
X153680838Y-65909101D01*
X153680844Y-65909103D01*
X153892107Y-65965711D01*
X154110000Y-65984774D01*
X154327892Y-65965711D01*
X154539155Y-65909103D01*
X154539161Y-65909101D01*
X154737384Y-65816668D01*
X154799571Y-65773124D01*
X154799571Y-65773123D01*
X154242534Y-65216086D01*
X154252315Y-65214680D01*
X154383100Y-65154952D01*
X154491761Y-65060798D01*
X154569493Y-64939844D01*
X154593076Y-64859524D01*
X155153122Y-65419570D01*
X155179022Y-65417305D01*
X155200985Y-65417305D01*
X155226875Y-65419570D01*
X155786922Y-64859523D01*
X155810507Y-64939844D01*
X155888239Y-65060798D01*
X155996900Y-65154952D01*
X156127685Y-65214680D01*
X156137466Y-65216086D01*
X155580427Y-65773124D01*
X155580427Y-65773126D01*
X155642608Y-65816665D01*
X155840838Y-65909101D01*
X155840844Y-65909103D01*
X156052107Y-65965711D01*
X156270000Y-65984774D01*
X156487892Y-65965711D01*
X156699155Y-65909103D01*
X156699161Y-65909101D01*
X156897384Y-65816668D01*
X156959571Y-65773124D01*
X156959571Y-65773123D01*
X156402534Y-65216086D01*
X156412315Y-65214680D01*
X156543100Y-65154952D01*
X156651761Y-65060798D01*
X156729493Y-64939844D01*
X156753076Y-64859524D01*
X157313122Y-65419570D01*
X157339022Y-65417305D01*
X157360985Y-65417305D01*
X157386875Y-65419570D01*
X157946922Y-64859523D01*
X157970507Y-64939844D01*
X158048239Y-65060798D01*
X158156900Y-65154952D01*
X158287685Y-65214680D01*
X158297466Y-65216086D01*
X157740427Y-65773124D01*
X157740427Y-65773126D01*
X157802608Y-65816665D01*
X158000838Y-65909101D01*
X158000844Y-65909103D01*
X158212107Y-65965711D01*
X158430000Y-65984774D01*
X158647892Y-65965711D01*
X158859155Y-65909103D01*
X158859161Y-65909101D01*
X159057384Y-65816668D01*
X159119571Y-65773124D01*
X159119571Y-65773123D01*
X158562534Y-65216086D01*
X158572315Y-65214680D01*
X158703100Y-65154952D01*
X158811761Y-65060798D01*
X158889493Y-64939844D01*
X158913076Y-64859524D01*
X159473122Y-65419570D01*
X159499022Y-65417305D01*
X159520985Y-65417305D01*
X159546875Y-65419570D01*
X160106922Y-64859523D01*
X160130507Y-64939844D01*
X160208239Y-65060798D01*
X160316900Y-65154952D01*
X160447685Y-65214680D01*
X160457466Y-65216086D01*
X159900427Y-65773124D01*
X159900427Y-65773126D01*
X159962608Y-65816665D01*
X160160838Y-65909101D01*
X160160844Y-65909103D01*
X160372107Y-65965711D01*
X160590000Y-65984774D01*
X160807892Y-65965711D01*
X161019155Y-65909103D01*
X161019161Y-65909101D01*
X161217384Y-65816668D01*
X161279571Y-65773124D01*
X161279571Y-65773123D01*
X160722534Y-65216086D01*
X160732315Y-65214680D01*
X160863100Y-65154952D01*
X160971761Y-65060798D01*
X161049493Y-64939844D01*
X161073076Y-64859524D01*
X161633123Y-65419571D01*
X161633124Y-65419571D01*
X161676668Y-65357384D01*
X161769101Y-65159161D01*
X161769103Y-65159155D01*
X161825711Y-64947892D01*
X161844774Y-64730000D01*
X161825711Y-64512107D01*
X161769103Y-64300844D01*
X161769101Y-64300839D01*
X161676667Y-64102613D01*
X161633123Y-64040428D01*
X161073076Y-64600475D01*
X161049493Y-64520156D01*
X160971761Y-64399202D01*
X160863100Y-64305048D01*
X160732315Y-64245320D01*
X160722532Y-64243913D01*
X161279571Y-63686874D01*
X161217389Y-63643334D01*
X161019160Y-63550898D01*
X161019155Y-63550896D01*
X160807892Y-63494288D01*
X160590000Y-63475225D01*
X160372107Y-63494288D01*
X160160844Y-63550896D01*
X160160839Y-63550898D01*
X159962609Y-63643334D01*
X159900428Y-63686873D01*
X159900428Y-63686874D01*
X160457467Y-64243913D01*
X160447685Y-64245320D01*
X160316900Y-64305048D01*
X160208239Y-64399202D01*
X160130507Y-64520156D01*
X160106923Y-64600475D01*
X159546875Y-64040427D01*
X159520979Y-64042693D01*
X159499019Y-64042693D01*
X159473124Y-64040427D01*
X158913076Y-64600475D01*
X158889493Y-64520156D01*
X158811761Y-64399202D01*
X158703100Y-64305048D01*
X158572315Y-64245320D01*
X158562532Y-64243913D01*
X159119571Y-63686874D01*
X159057389Y-63643334D01*
X158859160Y-63550898D01*
X158859155Y-63550896D01*
X158647892Y-63494288D01*
X158430000Y-63475225D01*
X158212107Y-63494288D01*
X158000844Y-63550896D01*
X158000839Y-63550898D01*
X157802609Y-63643334D01*
X157740428Y-63686873D01*
X157740428Y-63686874D01*
X158297467Y-64243913D01*
X158287685Y-64245320D01*
X158156900Y-64305048D01*
X158048239Y-64399202D01*
X157970507Y-64520156D01*
X157946923Y-64600475D01*
X157386875Y-64040427D01*
X157360979Y-64042693D01*
X157339019Y-64042693D01*
X157313124Y-64040427D01*
X156753076Y-64600475D01*
X156729493Y-64520156D01*
X156651761Y-64399202D01*
X156543100Y-64305048D01*
X156412315Y-64245320D01*
X156402532Y-64243913D01*
X156959571Y-63686874D01*
X156897389Y-63643334D01*
X156699160Y-63550898D01*
X156699155Y-63550896D01*
X156487892Y-63494288D01*
X156270000Y-63475225D01*
X156052107Y-63494288D01*
X155840844Y-63550896D01*
X155840839Y-63550898D01*
X155642609Y-63643334D01*
X155580428Y-63686873D01*
X155580428Y-63686874D01*
X156137467Y-64243913D01*
X156127685Y-64245320D01*
X155996900Y-64305048D01*
X155888239Y-64399202D01*
X155810507Y-64520156D01*
X155786923Y-64600475D01*
X155226875Y-64040427D01*
X155200979Y-64042693D01*
X155179019Y-64042693D01*
X155153124Y-64040427D01*
X154593076Y-64600475D01*
X154569493Y-64520156D01*
X154491761Y-64399202D01*
X154383100Y-64305048D01*
X154252315Y-64245320D01*
X154242532Y-64243913D01*
X154799571Y-63686874D01*
X154737389Y-63643334D01*
X154539160Y-63550898D01*
X154539155Y-63550896D01*
X154327892Y-63494288D01*
X154110000Y-63475225D01*
X153892107Y-63494288D01*
X153680844Y-63550896D01*
X153680839Y-63550898D01*
X153482609Y-63643334D01*
X153420428Y-63686873D01*
X153420428Y-63686874D01*
X153977467Y-64243913D01*
X153967685Y-64245320D01*
X153836900Y-64305048D01*
X153728239Y-64399202D01*
X153650507Y-64520156D01*
X153626923Y-64600475D01*
X153066875Y-64040427D01*
X153040979Y-64042693D01*
X153019019Y-64042693D01*
X152993124Y-64040427D01*
X152433076Y-64600475D01*
X152409493Y-64520156D01*
X152331761Y-64399202D01*
X152223100Y-64305048D01*
X152092315Y-64245320D01*
X152082532Y-64243913D01*
X152639571Y-63686874D01*
X152577389Y-63643334D01*
X152379160Y-63550898D01*
X152379155Y-63550896D01*
X152167892Y-63494288D01*
X151950000Y-63475225D01*
X151732107Y-63494288D01*
X151520844Y-63550896D01*
X151520839Y-63550898D01*
X151322609Y-63643334D01*
X151260428Y-63686873D01*
X151260428Y-63686874D01*
X151817467Y-64243913D01*
X151807685Y-64245320D01*
X151676900Y-64305048D01*
X151568239Y-64399202D01*
X151490507Y-64520156D01*
X151466923Y-64600475D01*
X150906875Y-64040427D01*
X150880979Y-64042693D01*
X150859019Y-64042693D01*
X150833124Y-64040427D01*
X150273076Y-64600475D01*
X150249493Y-64520156D01*
X150171761Y-64399202D01*
X150063100Y-64305048D01*
X149932315Y-64245320D01*
X149922532Y-64243913D01*
X150479571Y-63686874D01*
X150417389Y-63643334D01*
X150219160Y-63550898D01*
X150219155Y-63550896D01*
X150007892Y-63494288D01*
X149790000Y-63475225D01*
X149572107Y-63494288D01*
X149360844Y-63550896D01*
X149360839Y-63550898D01*
X149162609Y-63643334D01*
X149100428Y-63686873D01*
X149100428Y-63686874D01*
X149657467Y-64243913D01*
X149647685Y-64245320D01*
X149516900Y-64305048D01*
X149408239Y-64399202D01*
X149330507Y-64520156D01*
X149306923Y-64600475D01*
X148746875Y-64040427D01*
X148720979Y-64042693D01*
X148699019Y-64042693D01*
X148673124Y-64040427D01*
X148113076Y-64600475D01*
X148089493Y-64520156D01*
X148011761Y-64399202D01*
X147903100Y-64305048D01*
X147772315Y-64245320D01*
X147762532Y-64243913D01*
X148319571Y-63686874D01*
X148257389Y-63643334D01*
X148059160Y-63550898D01*
X148059155Y-63550896D01*
X147847892Y-63494288D01*
X147630000Y-63475225D01*
X147412107Y-63494288D01*
X147200844Y-63550896D01*
X147200839Y-63550898D01*
X147002609Y-63643334D01*
X146940428Y-63686873D01*
X146940428Y-63686874D01*
X147497467Y-64243913D01*
X147487685Y-64245320D01*
X147356900Y-64305048D01*
X147248239Y-64399202D01*
X147170507Y-64520156D01*
X147146923Y-64600475D01*
X146586875Y-64040427D01*
X146560979Y-64042693D01*
X146539019Y-64042693D01*
X146513124Y-64040427D01*
X145953076Y-64600475D01*
X145929493Y-64520156D01*
X145851761Y-64399202D01*
X145743100Y-64305048D01*
X145612315Y-64245320D01*
X145602532Y-64243913D01*
X146159571Y-63686874D01*
X146097389Y-63643334D01*
X145899160Y-63550898D01*
X145899155Y-63550896D01*
X145687892Y-63494288D01*
X145470000Y-63475225D01*
X145252107Y-63494288D01*
X145040844Y-63550896D01*
X145040839Y-63550898D01*
X144842609Y-63643334D01*
X144780428Y-63686873D01*
X144780428Y-63686874D01*
X145337467Y-64243913D01*
X145327685Y-64245320D01*
X145196900Y-64305048D01*
X145088239Y-64399202D01*
X145010507Y-64520156D01*
X144986923Y-64600475D01*
X144426875Y-64040427D01*
X144400979Y-64042693D01*
X144379019Y-64042693D01*
X144353124Y-64040427D01*
X143793076Y-64600475D01*
X143769493Y-64520156D01*
X143691761Y-64399202D01*
X143583100Y-64305048D01*
X143452315Y-64245320D01*
X143442532Y-64243913D01*
X143999571Y-63686874D01*
X143937389Y-63643334D01*
X143739160Y-63550898D01*
X143739155Y-63550896D01*
X143527892Y-63494288D01*
X143310000Y-63475225D01*
X143092107Y-63494288D01*
X142880844Y-63550896D01*
X142880839Y-63550898D01*
X142682609Y-63643334D01*
X142620428Y-63686873D01*
X142620428Y-63686874D01*
X143177467Y-64243913D01*
X143167685Y-64245320D01*
X143036900Y-64305048D01*
X142928239Y-64399202D01*
X142850507Y-64520156D01*
X142826923Y-64600475D01*
X142266875Y-64040427D01*
X142240979Y-64042693D01*
X142219019Y-64042693D01*
X142193124Y-64040427D01*
X141633076Y-64600475D01*
X141609493Y-64520156D01*
X141531761Y-64399202D01*
X141423100Y-64305048D01*
X141292315Y-64245320D01*
X141282532Y-64243913D01*
X141839571Y-63686874D01*
X141777389Y-63643334D01*
X141579160Y-63550898D01*
X141579155Y-63550896D01*
X141367892Y-63494288D01*
X141150000Y-63475225D01*
X140932107Y-63494288D01*
X140720844Y-63550896D01*
X140720839Y-63550898D01*
X140522609Y-63643334D01*
X140460428Y-63686873D01*
X140460428Y-63686874D01*
X141017467Y-64243913D01*
X141007685Y-64245320D01*
X140876900Y-64305048D01*
X140768239Y-64399202D01*
X140690507Y-64520156D01*
X140666923Y-64600475D01*
X140106875Y-64040427D01*
X140080979Y-64042693D01*
X140059019Y-64042693D01*
X140033124Y-64040427D01*
X139473076Y-64600475D01*
X139449493Y-64520156D01*
X139371761Y-64399202D01*
X139263100Y-64305048D01*
X139132315Y-64245320D01*
X139122532Y-64243913D01*
X139679571Y-63686874D01*
X139617389Y-63643334D01*
X139419160Y-63550898D01*
X139419155Y-63550896D01*
X139207892Y-63494288D01*
X138990000Y-63475225D01*
X138772107Y-63494288D01*
X138560844Y-63550896D01*
X138560839Y-63550898D01*
X138362609Y-63643334D01*
X138300428Y-63686873D01*
X138300428Y-63686874D01*
X138857467Y-64243913D01*
X138847685Y-64245320D01*
X138716900Y-64305048D01*
X138608239Y-64399202D01*
X138530507Y-64520156D01*
X138506922Y-64600476D01*
X137946874Y-64040428D01*
X137946873Y-64040428D01*
X137903334Y-64102609D01*
X137903331Y-64102613D01*
X137883310Y-64145550D01*
X137836393Y-64198835D01*
X137768115Y-64218295D01*
X137700155Y-64197752D01*
X137671717Y-64172233D01*
X137614584Y-64102617D01*
X137543725Y-64016275D01*
X137390770Y-63890748D01*
X137216265Y-63797473D01*
X137026916Y-63740035D01*
X137026915Y-63740034D01*
X137026909Y-63740033D01*
X136830003Y-63720640D01*
X136829997Y-63720640D01*
X136633090Y-63740033D01*
X136443734Y-63797473D01*
X136269229Y-63890748D01*
X136116275Y-64016275D01*
X135990748Y-64169229D01*
X135897473Y-64343734D01*
X135870575Y-64432407D01*
X135831660Y-64491789D01*
X135766818Y-64520705D01*
X135696637Y-64509974D01*
X135643399Y-64463004D01*
X135629425Y-64432407D01*
X135602527Y-64343735D01*
X135509252Y-64169230D01*
X135383725Y-64016275D01*
X135230770Y-63890748D01*
X135056265Y-63797473D01*
X134866916Y-63740035D01*
X134866915Y-63740034D01*
X134866909Y-63740033D01*
X134670003Y-63720640D01*
X134669997Y-63720640D01*
X134473090Y-63740033D01*
X134283734Y-63797473D01*
X134109229Y-63890748D01*
X133956275Y-64016275D01*
X133830748Y-64169229D01*
X133737473Y-64343734D01*
X133710575Y-64432407D01*
X133671660Y-64491789D01*
X133606818Y-64520705D01*
X133536637Y-64509974D01*
X133483399Y-64463004D01*
X133469425Y-64432407D01*
X133442527Y-64343735D01*
X133349252Y-64169230D01*
X133223725Y-64016275D01*
X133070770Y-63890748D01*
X132896265Y-63797473D01*
X132706916Y-63740035D01*
X132706915Y-63740034D01*
X132706909Y-63740033D01*
X132510003Y-63720640D01*
X132509997Y-63720640D01*
X132313090Y-63740033D01*
X132123734Y-63797473D01*
X131949229Y-63890748D01*
X131796275Y-64016275D01*
X131668282Y-64172233D01*
X131609604Y-64212202D01*
X131538633Y-64214102D01*
X131477901Y-64177330D01*
X131456688Y-64145548D01*
X131436669Y-64102617D01*
X131436667Y-64102614D01*
X131393123Y-64040428D01*
X130833076Y-64600475D01*
X130809493Y-64520156D01*
X130731761Y-64399202D01*
X130623100Y-64305048D01*
X130492315Y-64245320D01*
X130482532Y-64243913D01*
X131039571Y-63686874D01*
X130977389Y-63643334D01*
X130779160Y-63550898D01*
X130779155Y-63550896D01*
X130567892Y-63494288D01*
X130350000Y-63475225D01*
X130132107Y-63494288D01*
X129920844Y-63550896D01*
X129920839Y-63550898D01*
X129722609Y-63643334D01*
X129660428Y-63686873D01*
X129660428Y-63686874D01*
X130217467Y-64243913D01*
X130207685Y-64245320D01*
X130076900Y-64305048D01*
X129968239Y-64399202D01*
X129890507Y-64520156D01*
X129866923Y-64600475D01*
X129306875Y-64040427D01*
X129280979Y-64042693D01*
X129259019Y-64042693D01*
X129233124Y-64040427D01*
X128673076Y-64600475D01*
X128649493Y-64520156D01*
X128571761Y-64399202D01*
X128463100Y-64305048D01*
X128332315Y-64245320D01*
X128322532Y-64243913D01*
X128879571Y-63686874D01*
X128817389Y-63643334D01*
X128619160Y-63550898D01*
X128619155Y-63550896D01*
X128407892Y-63494288D01*
X128190000Y-63475225D01*
X127972107Y-63494288D01*
X127760844Y-63550896D01*
X127760839Y-63550898D01*
X127562609Y-63643334D01*
X127500428Y-63686873D01*
X127500428Y-63686874D01*
X128057467Y-64243913D01*
X128047685Y-64245320D01*
X127916900Y-64305048D01*
X127808239Y-64399202D01*
X127730507Y-64520156D01*
X127706923Y-64600475D01*
X127146875Y-64040427D01*
X127120979Y-64042693D01*
X127099019Y-64042693D01*
X127073124Y-64040427D01*
X126513076Y-64600475D01*
X126489493Y-64520156D01*
X126411761Y-64399202D01*
X126303100Y-64305048D01*
X126172315Y-64245320D01*
X126162532Y-64243913D01*
X126719571Y-63686874D01*
X126657389Y-63643334D01*
X126459160Y-63550898D01*
X126459155Y-63550896D01*
X126247892Y-63494288D01*
X126030000Y-63475225D01*
X125812107Y-63494288D01*
X125600844Y-63550896D01*
X125600839Y-63550898D01*
X125402609Y-63643334D01*
X125340428Y-63686873D01*
X125340428Y-63686874D01*
X125897467Y-64243913D01*
X125887685Y-64245320D01*
X125756900Y-64305048D01*
X125648239Y-64399202D01*
X125570507Y-64520156D01*
X125546923Y-64600475D01*
X124986875Y-64040427D01*
X124960979Y-64042693D01*
X124939019Y-64042693D01*
X124913124Y-64040427D01*
X124353076Y-64600475D01*
X124329493Y-64520156D01*
X124251761Y-64399202D01*
X124143100Y-64305048D01*
X124012315Y-64245320D01*
X124002532Y-64243913D01*
X124559571Y-63686874D01*
X124497389Y-63643334D01*
X124299160Y-63550898D01*
X124299155Y-63550896D01*
X124087892Y-63494288D01*
X123870000Y-63475225D01*
X123652107Y-63494288D01*
X123440844Y-63550896D01*
X123440839Y-63550898D01*
X123242609Y-63643334D01*
X123180428Y-63686873D01*
X123180428Y-63686874D01*
X123737467Y-64243913D01*
X123727685Y-64245320D01*
X123596900Y-64305048D01*
X123488239Y-64399202D01*
X123410507Y-64520156D01*
X123386923Y-64600475D01*
X122826875Y-64040427D01*
X122800979Y-64042693D01*
X122779019Y-64042693D01*
X122753124Y-64040427D01*
X122193076Y-64600475D01*
X122169493Y-64520156D01*
X122091761Y-64399202D01*
X121983100Y-64305048D01*
X121852315Y-64245320D01*
X121842532Y-64243913D01*
X122399571Y-63686874D01*
X122337389Y-63643334D01*
X122139160Y-63550898D01*
X122139155Y-63550896D01*
X121927892Y-63494288D01*
X121710000Y-63475225D01*
X121492107Y-63494288D01*
X121280844Y-63550896D01*
X121280839Y-63550898D01*
X121082609Y-63643334D01*
X121020428Y-63686873D01*
X121020428Y-63686874D01*
X121577467Y-64243913D01*
X121567685Y-64245320D01*
X121436900Y-64305048D01*
X121328239Y-64399202D01*
X121250507Y-64520156D01*
X121226923Y-64600475D01*
X120666875Y-64040427D01*
X120640979Y-64042693D01*
X120619019Y-64042693D01*
X120593124Y-64040427D01*
X120033076Y-64600475D01*
X120009493Y-64520156D01*
X119931761Y-64399202D01*
X119823100Y-64305048D01*
X119692315Y-64245320D01*
X119682532Y-64243913D01*
X120239571Y-63686874D01*
X120177389Y-63643334D01*
X119979160Y-63550898D01*
X119979155Y-63550896D01*
X119767892Y-63494288D01*
X119550000Y-63475225D01*
X119332107Y-63494288D01*
X119120844Y-63550896D01*
X119120839Y-63550898D01*
X118922609Y-63643334D01*
X118860428Y-63686873D01*
X118860428Y-63686874D01*
X119417467Y-64243913D01*
X119407685Y-64245320D01*
X119276900Y-64305048D01*
X119168239Y-64399202D01*
X119090507Y-64520156D01*
X119066923Y-64600475D01*
X118506875Y-64040427D01*
X118480979Y-64042693D01*
X118459019Y-64042693D01*
X118433124Y-64040427D01*
X117873076Y-64600475D01*
X117849493Y-64520156D01*
X117771761Y-64399202D01*
X117663100Y-64305048D01*
X117532315Y-64245320D01*
X117522532Y-64243913D01*
X118079571Y-63686874D01*
X118017389Y-63643334D01*
X117819160Y-63550898D01*
X117819155Y-63550896D01*
X117607892Y-63494288D01*
X117390000Y-63475225D01*
X117172107Y-63494288D01*
X116960844Y-63550896D01*
X116960839Y-63550898D01*
X116762609Y-63643334D01*
X116700428Y-63686873D01*
X116700428Y-63686874D01*
X117257467Y-64243913D01*
X117247685Y-64245320D01*
X117116900Y-64305048D01*
X117008239Y-64399202D01*
X116930507Y-64520156D01*
X116906923Y-64600475D01*
X116346875Y-64040427D01*
X116320979Y-64042693D01*
X116299019Y-64042693D01*
X116273124Y-64040427D01*
X115713076Y-64600475D01*
X115689493Y-64520156D01*
X115611761Y-64399202D01*
X115503100Y-64305048D01*
X115372315Y-64245320D01*
X115362532Y-64243913D01*
X115919571Y-63686874D01*
X115857389Y-63643334D01*
X115659160Y-63550898D01*
X115659155Y-63550896D01*
X115447892Y-63494288D01*
X115230000Y-63475225D01*
X115012107Y-63494288D01*
X114800844Y-63550896D01*
X114800839Y-63550898D01*
X114602609Y-63643334D01*
X114540428Y-63686873D01*
X114540428Y-63686874D01*
X115097467Y-64243913D01*
X115087685Y-64245320D01*
X114956900Y-64305048D01*
X114848239Y-64399202D01*
X114770507Y-64520156D01*
X114746923Y-64600475D01*
X114186875Y-64040427D01*
X114160979Y-64042693D01*
X114139019Y-64042693D01*
X114113124Y-64040427D01*
X113553076Y-64600475D01*
X113529493Y-64520156D01*
X113451761Y-64399202D01*
X113343100Y-64305048D01*
X113212315Y-64245320D01*
X113202532Y-64243913D01*
X113759571Y-63686874D01*
X113697389Y-63643334D01*
X113499160Y-63550898D01*
X113499155Y-63550896D01*
X113287892Y-63494288D01*
X113070000Y-63475225D01*
X112852107Y-63494288D01*
X112640844Y-63550896D01*
X112640839Y-63550898D01*
X112442609Y-63643334D01*
X112380428Y-63686873D01*
X112380428Y-63686874D01*
X112937467Y-64243913D01*
X112927685Y-64245320D01*
X112796900Y-64305048D01*
X112688239Y-64399202D01*
X112610507Y-64520156D01*
X112586923Y-64600475D01*
X112026875Y-64040427D01*
X112000979Y-64042693D01*
X111979019Y-64042693D01*
X111953124Y-64040427D01*
X111393076Y-64600475D01*
X111369493Y-64520156D01*
X111291761Y-64399202D01*
X111183100Y-64305048D01*
X111052315Y-64245320D01*
X111042532Y-64243913D01*
X111599571Y-63686874D01*
X111537389Y-63643334D01*
X111339160Y-63550898D01*
X111339155Y-63550896D01*
X111127892Y-63494288D01*
X110910000Y-63475225D01*
X110692107Y-63494288D01*
X110480844Y-63550896D01*
X110480839Y-63550898D01*
X110282609Y-63643334D01*
X110220428Y-63686873D01*
X110220428Y-63686874D01*
X110777467Y-64243913D01*
X110767685Y-64245320D01*
X110636900Y-64305048D01*
X110528239Y-64399202D01*
X110450507Y-64520156D01*
X110426923Y-64600475D01*
X109866875Y-64040427D01*
X109840979Y-64042693D01*
X109819019Y-64042693D01*
X109793124Y-64040427D01*
X109233076Y-64600475D01*
X109209493Y-64520156D01*
X109131761Y-64399202D01*
X109023100Y-64305048D01*
X108892315Y-64245320D01*
X108882532Y-64243913D01*
X109439571Y-63686874D01*
X109377389Y-63643334D01*
X109179160Y-63550898D01*
X109179155Y-63550896D01*
X108967892Y-63494288D01*
X108750000Y-63475225D01*
X108532107Y-63494288D01*
X108320844Y-63550896D01*
X108320839Y-63550898D01*
X108122609Y-63643334D01*
X108060428Y-63686873D01*
X108060428Y-63686874D01*
X108617467Y-64243913D01*
X108607685Y-64245320D01*
X108476900Y-64305048D01*
X108368239Y-64399202D01*
X108290507Y-64520156D01*
X108266922Y-64600476D01*
X107706874Y-64040428D01*
X107706873Y-64040428D01*
X107663334Y-64102609D01*
X107570898Y-64300839D01*
X107570896Y-64300844D01*
X107514288Y-64512107D01*
X107495225Y-64730000D01*
X104710366Y-64730000D01*
X104677529Y-64658097D01*
X104587235Y-64553891D01*
X104587234Y-64553890D01*
X104587233Y-64553889D01*
X104471240Y-64479346D01*
X104338947Y-64440501D01*
X104338944Y-64440500D01*
X104338942Y-64440500D01*
X104201058Y-64440500D01*
X104201056Y-64440500D01*
X104201052Y-64440501D01*
X104068759Y-64479346D01*
X103952766Y-64553889D01*
X103862470Y-64658098D01*
X103805192Y-64783519D01*
X103805190Y-64783526D01*
X103785569Y-64919996D01*
X103785569Y-64920003D01*
X98770595Y-64920003D01*
X98831374Y-64883261D01*
X99032294Y-64725847D01*
X99032295Y-64725847D01*
X98133758Y-63827310D01*
X98164112Y-63808116D01*
X98348412Y-63644841D01*
X98487743Y-63474191D01*
X99385847Y-64372295D01*
X99385847Y-64372294D01*
X99543261Y-64171374D01*
X99717722Y-63882779D01*
X99717725Y-63882773D01*
X99856120Y-63575272D01*
X99910736Y-63400003D01*
X103845569Y-63400003D01*
X103865190Y-63536473D01*
X103865192Y-63536480D01*
X103871776Y-63550898D01*
X103922471Y-63661903D01*
X103990172Y-63740035D01*
X104012766Y-63766110D01*
X104061569Y-63797473D01*
X104128760Y-63840654D01*
X104261058Y-63879500D01*
X104261061Y-63879500D01*
X104398939Y-63879500D01*
X104398942Y-63879500D01*
X104531240Y-63840654D01*
X104647235Y-63766109D01*
X104737529Y-63661903D01*
X104794808Y-63536480D01*
X104814431Y-63400000D01*
X104814431Y-63399996D01*
X104794809Y-63263526D01*
X104794808Y-63263525D01*
X104794808Y-63263520D01*
X104737529Y-63138097D01*
X104647235Y-63033891D01*
X104647234Y-63033890D01*
X104647233Y-63033889D01*
X104531240Y-62959346D01*
X104398947Y-62920501D01*
X104398944Y-62920500D01*
X104398942Y-62920500D01*
X104261058Y-62920500D01*
X104261056Y-62920500D01*
X104261052Y-62920501D01*
X104128759Y-62959346D01*
X104012766Y-63033889D01*
X103922470Y-63138098D01*
X103865192Y-63263519D01*
X103865190Y-63263526D01*
X103845569Y-63399996D01*
X103845569Y-63400003D01*
X99910736Y-63400003D01*
X99956447Y-63253311D01*
X100017233Y-62921610D01*
X100017234Y-62921607D01*
X100037595Y-62585001D01*
X169302405Y-62585001D01*
X169322765Y-62921607D01*
X169322766Y-62921610D01*
X169383552Y-63253311D01*
X169483879Y-63575272D01*
X169622274Y-63882773D01*
X169622277Y-63882779D01*
X169796738Y-64171374D01*
X169954151Y-64372294D01*
X169954151Y-64372295D01*
X170854323Y-63472122D01*
X170909885Y-63552617D01*
X171080448Y-63730192D01*
X171207720Y-63825830D01*
X170307703Y-64725847D01*
X170508625Y-64883261D01*
X170797220Y-65057722D01*
X170797226Y-65057725D01*
X171104727Y-65196120D01*
X171426688Y-65296447D01*
X171758389Y-65357233D01*
X171758392Y-65357234D01*
X172094999Y-65377595D01*
X172095001Y-65377595D01*
X172431607Y-65357234D01*
X172431610Y-65357233D01*
X172763311Y-65296447D01*
X173085272Y-65196120D01*
X173392773Y-65057725D01*
X173392779Y-65057722D01*
X173681374Y-64883261D01*
X173882294Y-64725847D01*
X173882295Y-64725847D01*
X172983758Y-63827310D01*
X173014112Y-63808116D01*
X173198412Y-63644841D01*
X173337743Y-63474191D01*
X174235847Y-64372295D01*
X174235847Y-64372294D01*
X174393261Y-64171374D01*
X174567722Y-63882779D01*
X174567725Y-63882773D01*
X174706120Y-63575272D01*
X174806447Y-63253311D01*
X174867233Y-62921610D01*
X174867234Y-62921607D01*
X174887595Y-62585001D01*
X174887595Y-62584998D01*
X174867234Y-62248392D01*
X174867233Y-62248389D01*
X174806447Y-61916688D01*
X174706120Y-61594727D01*
X174567725Y-61287226D01*
X174567722Y-61287220D01*
X174393261Y-60998625D01*
X174235847Y-60797704D01*
X174235847Y-60797703D01*
X173335674Y-61697875D01*
X173280115Y-61617383D01*
X173109552Y-61439808D01*
X172982278Y-61344168D01*
X173882295Y-60444151D01*
X173681374Y-60286738D01*
X173392779Y-60112277D01*
X173392773Y-60112274D01*
X173085272Y-59973879D01*
X172763311Y-59873552D01*
X172431610Y-59812766D01*
X172431607Y-59812765D01*
X172095001Y-59792405D01*
X172094999Y-59792405D01*
X171758392Y-59812765D01*
X171758389Y-59812766D01*
X171426688Y-59873552D01*
X171104727Y-59973879D01*
X170797226Y-60112274D01*
X170797220Y-60112277D01*
X170508625Y-60286738D01*
X170307704Y-60444151D01*
X170307703Y-60444151D01*
X171206241Y-61342689D01*
X171175888Y-61361884D01*
X170991588Y-61525159D01*
X170852256Y-61695808D01*
X169954151Y-60797703D01*
X169954151Y-60797704D01*
X169796738Y-60998625D01*
X169622277Y-61287220D01*
X169622274Y-61287226D01*
X169483879Y-61594727D01*
X169383552Y-61916688D01*
X169322766Y-62248389D01*
X169322765Y-62248392D01*
X169302405Y-62584998D01*
X169302405Y-62585001D01*
X100037595Y-62585001D01*
X100037595Y-62584998D01*
X100017234Y-62248392D01*
X100017233Y-62248389D01*
X99956447Y-61916688D01*
X99856120Y-61594727D01*
X99717725Y-61287226D01*
X99717722Y-61287220D01*
X99664998Y-61200003D01*
X105435569Y-61200003D01*
X105455190Y-61336473D01*
X105455192Y-61336480D01*
X105502380Y-61439808D01*
X105512471Y-61461903D01*
X105530861Y-61483126D01*
X105602766Y-61566110D01*
X105647296Y-61594727D01*
X105718760Y-61640654D01*
X105851058Y-61679500D01*
X105851061Y-61679500D01*
X105988939Y-61679500D01*
X105988942Y-61679500D01*
X106121240Y-61640654D01*
X106237235Y-61566109D01*
X106327529Y-61461903D01*
X106384808Y-61336480D01*
X106393036Y-61279252D01*
X106404431Y-61200003D01*
X106404431Y-61199996D01*
X106384809Y-61063526D01*
X106384808Y-61063523D01*
X106384808Y-61063520D01*
X106375126Y-61042320D01*
X106365022Y-60972051D01*
X106394514Y-60907470D01*
X106421613Y-60883987D01*
X106527235Y-60816109D01*
X106617529Y-60711903D01*
X106674808Y-60586480D01*
X106694431Y-60450000D01*
X106694431Y-60449996D01*
X106692994Y-60440002D01*
X107740640Y-60440002D01*
X107760033Y-60636909D01*
X107760034Y-60636915D01*
X107760035Y-60636916D01*
X107817473Y-60826265D01*
X107910748Y-61000770D01*
X108036275Y-61153725D01*
X108189230Y-61279252D01*
X108363735Y-61372527D01*
X108553084Y-61429965D01*
X108553088Y-61429965D01*
X108553090Y-61429966D01*
X108749997Y-61449360D01*
X108750000Y-61449360D01*
X108750003Y-61449360D01*
X108946909Y-61429966D01*
X108946910Y-61429965D01*
X108946916Y-61429965D01*
X109136265Y-61372527D01*
X109310770Y-61279252D01*
X109463725Y-61153725D01*
X109589252Y-61000770D01*
X109682527Y-60826265D01*
X109709425Y-60737590D01*
X109748340Y-60678210D01*
X109813181Y-60649295D01*
X109883362Y-60660025D01*
X109936601Y-60706994D01*
X109950573Y-60737588D01*
X109977473Y-60826265D01*
X110070748Y-61000770D01*
X110196275Y-61153725D01*
X110349230Y-61279252D01*
X110523735Y-61372527D01*
X110713084Y-61429965D01*
X110713088Y-61429965D01*
X110713090Y-61429966D01*
X110909997Y-61449360D01*
X110910000Y-61449360D01*
X110910003Y-61449360D01*
X111106909Y-61429966D01*
X111106910Y-61429965D01*
X111106916Y-61429965D01*
X111296265Y-61372527D01*
X111470770Y-61279252D01*
X111623725Y-61153725D01*
X111749252Y-61000770D01*
X111842527Y-60826265D01*
X111869425Y-60737590D01*
X111908340Y-60678210D01*
X111973181Y-60649295D01*
X112043362Y-60660025D01*
X112096601Y-60706994D01*
X112110573Y-60737588D01*
X112137473Y-60826265D01*
X112230748Y-61000770D01*
X112356275Y-61153725D01*
X112509230Y-61279252D01*
X112683735Y-61372527D01*
X112873084Y-61429965D01*
X112873088Y-61429965D01*
X112873090Y-61429966D01*
X113069997Y-61449360D01*
X113070000Y-61449360D01*
X113070003Y-61449360D01*
X113266909Y-61429966D01*
X113266910Y-61429965D01*
X113266916Y-61429965D01*
X113456265Y-61372527D01*
X113630770Y-61279252D01*
X113783725Y-61153725D01*
X113909252Y-61000770D01*
X114002527Y-60826265D01*
X114029425Y-60737590D01*
X114068340Y-60678210D01*
X114133181Y-60649295D01*
X114203362Y-60660025D01*
X114256601Y-60706994D01*
X114270573Y-60737588D01*
X114297473Y-60826265D01*
X114390748Y-61000770D01*
X114516275Y-61153725D01*
X114669230Y-61279252D01*
X114843735Y-61372527D01*
X115033084Y-61429965D01*
X115033088Y-61429965D01*
X115033090Y-61429966D01*
X115229997Y-61449360D01*
X115230000Y-61449360D01*
X115230003Y-61449360D01*
X115426909Y-61429966D01*
X115426910Y-61429965D01*
X115426916Y-61429965D01*
X115616265Y-61372527D01*
X115790770Y-61279252D01*
X115943725Y-61153725D01*
X116069252Y-61000770D01*
X116162527Y-60826265D01*
X116189425Y-60737590D01*
X116228340Y-60678210D01*
X116293181Y-60649295D01*
X116363362Y-60660025D01*
X116416601Y-60706994D01*
X116430573Y-60737588D01*
X116457473Y-60826265D01*
X116550748Y-61000770D01*
X116676275Y-61153725D01*
X116829230Y-61279252D01*
X117003735Y-61372527D01*
X117193084Y-61429965D01*
X117193088Y-61429965D01*
X117193090Y-61429966D01*
X117389997Y-61449360D01*
X117390000Y-61449360D01*
X117390003Y-61449360D01*
X117586909Y-61429966D01*
X117586910Y-61429965D01*
X117586916Y-61429965D01*
X117776265Y-61372527D01*
X117950770Y-61279252D01*
X118103725Y-61153725D01*
X118229252Y-61000770D01*
X118322527Y-60826265D01*
X118349425Y-60737590D01*
X118388340Y-60678210D01*
X118453181Y-60649295D01*
X118523362Y-60660025D01*
X118576601Y-60706994D01*
X118590573Y-60737588D01*
X118617473Y-60826265D01*
X118710748Y-61000770D01*
X118836275Y-61153725D01*
X118989230Y-61279252D01*
X119163735Y-61372527D01*
X119353084Y-61429965D01*
X119353088Y-61429965D01*
X119353090Y-61429966D01*
X119549997Y-61449360D01*
X119550000Y-61449360D01*
X119550003Y-61449360D01*
X119746909Y-61429966D01*
X119746910Y-61429965D01*
X119746916Y-61429965D01*
X119936265Y-61372527D01*
X120110770Y-61279252D01*
X120263725Y-61153725D01*
X120389252Y-61000770D01*
X120482527Y-60826265D01*
X120509425Y-60737590D01*
X120548340Y-60678210D01*
X120613181Y-60649295D01*
X120683362Y-60660025D01*
X120736601Y-60706994D01*
X120750573Y-60737588D01*
X120777473Y-60826265D01*
X120870748Y-61000770D01*
X120996275Y-61153725D01*
X121149230Y-61279252D01*
X121323735Y-61372527D01*
X121513084Y-61429965D01*
X121513088Y-61429965D01*
X121513090Y-61429966D01*
X121709997Y-61449360D01*
X121710000Y-61449360D01*
X121710003Y-61449360D01*
X121906909Y-61429966D01*
X121906910Y-61429965D01*
X121906916Y-61429965D01*
X122096265Y-61372527D01*
X122270770Y-61279252D01*
X122423725Y-61153725D01*
X122549252Y-61000770D01*
X122642527Y-60826265D01*
X122669425Y-60737590D01*
X122708340Y-60678210D01*
X122773181Y-60649295D01*
X122843362Y-60660025D01*
X122896601Y-60706994D01*
X122910573Y-60737588D01*
X122937473Y-60826265D01*
X123030748Y-61000770D01*
X123156275Y-61153725D01*
X123309230Y-61279252D01*
X123483735Y-61372527D01*
X123673084Y-61429965D01*
X123673088Y-61429965D01*
X123673090Y-61429966D01*
X123869997Y-61449360D01*
X123870000Y-61449360D01*
X123870003Y-61449360D01*
X124066909Y-61429966D01*
X124066910Y-61429965D01*
X124066916Y-61429965D01*
X124256265Y-61372527D01*
X124430770Y-61279252D01*
X124583725Y-61153725D01*
X124709252Y-61000770D01*
X124802527Y-60826265D01*
X124829425Y-60737590D01*
X124868340Y-60678210D01*
X124933181Y-60649295D01*
X125003362Y-60660025D01*
X125056601Y-60706994D01*
X125070573Y-60737588D01*
X125097473Y-60826265D01*
X125190748Y-61000770D01*
X125316275Y-61153725D01*
X125469230Y-61279252D01*
X125643735Y-61372527D01*
X125833084Y-61429965D01*
X125833088Y-61429965D01*
X125833090Y-61429966D01*
X126029997Y-61449360D01*
X126030000Y-61449360D01*
X126030003Y-61449360D01*
X126226909Y-61429966D01*
X126226910Y-61429965D01*
X126226916Y-61429965D01*
X126416265Y-61372527D01*
X126590770Y-61279252D01*
X126743725Y-61153725D01*
X126869252Y-61000770D01*
X126869252Y-61000768D01*
X126871717Y-60997766D01*
X126930394Y-60957797D01*
X127001365Y-60955897D01*
X127062098Y-60992668D01*
X127083311Y-61024450D01*
X127103334Y-61067389D01*
X127146874Y-61129571D01*
X127706922Y-60569523D01*
X127730507Y-60649844D01*
X127808239Y-60770798D01*
X127916900Y-60864952D01*
X128047685Y-60924680D01*
X128057466Y-60926086D01*
X127500427Y-61483124D01*
X127500427Y-61483126D01*
X127562608Y-61526665D01*
X127760838Y-61619101D01*
X127760844Y-61619103D01*
X127972107Y-61675711D01*
X128190000Y-61694774D01*
X128407892Y-61675711D01*
X128619155Y-61619103D01*
X128619161Y-61619101D01*
X128817384Y-61526668D01*
X128879571Y-61483124D01*
X128879571Y-61483123D01*
X128322534Y-60926086D01*
X128332315Y-60924680D01*
X128463100Y-60864952D01*
X128571761Y-60770798D01*
X128649493Y-60649844D01*
X128673076Y-60569524D01*
X129233122Y-61129570D01*
X129259022Y-61127305D01*
X129280985Y-61127305D01*
X129306875Y-61129570D01*
X129866922Y-60569523D01*
X129890507Y-60649844D01*
X129968239Y-60770798D01*
X130076900Y-60864952D01*
X130207685Y-60924680D01*
X130217466Y-60926086D01*
X129660427Y-61483124D01*
X129660427Y-61483126D01*
X129722608Y-61526665D01*
X129920838Y-61619101D01*
X129920844Y-61619103D01*
X130132107Y-61675711D01*
X130350000Y-61694774D01*
X130567892Y-61675711D01*
X130779155Y-61619103D01*
X130779161Y-61619101D01*
X130977384Y-61526668D01*
X131039571Y-61483124D01*
X131039571Y-61483123D01*
X130482534Y-60926086D01*
X130492315Y-60924680D01*
X130623100Y-60864952D01*
X130731761Y-60770798D01*
X130809493Y-60649844D01*
X130833076Y-60569524D01*
X131393122Y-61129570D01*
X131419022Y-61127305D01*
X131440985Y-61127305D01*
X131466875Y-61129570D01*
X132026922Y-60569523D01*
X132050507Y-60649844D01*
X132128239Y-60770798D01*
X132236900Y-60864952D01*
X132367685Y-60924680D01*
X132377466Y-60926086D01*
X131820427Y-61483124D01*
X131820427Y-61483126D01*
X131882608Y-61526665D01*
X132080838Y-61619101D01*
X132080844Y-61619103D01*
X132292107Y-61675711D01*
X132510000Y-61694774D01*
X132727892Y-61675711D01*
X132939155Y-61619103D01*
X132939161Y-61619101D01*
X133137384Y-61526668D01*
X133199571Y-61483124D01*
X133199571Y-61483123D01*
X132642534Y-60926086D01*
X132652315Y-60924680D01*
X132783100Y-60864952D01*
X132891761Y-60770798D01*
X132969493Y-60649844D01*
X132993076Y-60569524D01*
X133553123Y-61129571D01*
X133553124Y-61129571D01*
X133596669Y-61067382D01*
X133596670Y-61067382D01*
X133616689Y-61024451D01*
X133663606Y-60971165D01*
X133731883Y-60951704D01*
X133799843Y-60972245D01*
X133828283Y-60997766D01*
X133830747Y-61000768D01*
X133830748Y-61000770D01*
X133956275Y-61153725D01*
X134109230Y-61279252D01*
X134283735Y-61372527D01*
X134473084Y-61429965D01*
X134473088Y-61429965D01*
X134473090Y-61429966D01*
X134669997Y-61449360D01*
X134670000Y-61449360D01*
X134670003Y-61449360D01*
X134866909Y-61429966D01*
X134866910Y-61429965D01*
X134866916Y-61429965D01*
X135056265Y-61372527D01*
X135230770Y-61279252D01*
X135383725Y-61153725D01*
X135509252Y-61000770D01*
X135509252Y-61000768D01*
X135511717Y-60997766D01*
X135570394Y-60957797D01*
X135641365Y-60955897D01*
X135702098Y-60992668D01*
X135723311Y-61024450D01*
X135743334Y-61067389D01*
X135786874Y-61129571D01*
X136346922Y-60569523D01*
X136370507Y-60649844D01*
X136448239Y-60770798D01*
X136556900Y-60864952D01*
X136687685Y-60924680D01*
X136697466Y-60926086D01*
X136140427Y-61483124D01*
X136140427Y-61483126D01*
X136202608Y-61526665D01*
X136400838Y-61619101D01*
X136400844Y-61619103D01*
X136612107Y-61675711D01*
X136830000Y-61694774D01*
X137047892Y-61675711D01*
X137259155Y-61619103D01*
X137259161Y-61619101D01*
X137457384Y-61526668D01*
X137519571Y-61483124D01*
X137519571Y-61483123D01*
X136962534Y-60926086D01*
X136972315Y-60924680D01*
X137103100Y-60864952D01*
X137211761Y-60770798D01*
X137289493Y-60649844D01*
X137313076Y-60569524D01*
X137873122Y-61129570D01*
X137899022Y-61127305D01*
X137920985Y-61127305D01*
X137946875Y-61129570D01*
X138506922Y-60569523D01*
X138530507Y-60649844D01*
X138608239Y-60770798D01*
X138716900Y-60864952D01*
X138847685Y-60924680D01*
X138857466Y-60926086D01*
X138300427Y-61483124D01*
X138300427Y-61483126D01*
X138362608Y-61526665D01*
X138560838Y-61619101D01*
X138560844Y-61619103D01*
X138772107Y-61675711D01*
X138990000Y-61694774D01*
X139207892Y-61675711D01*
X139419155Y-61619103D01*
X139419161Y-61619101D01*
X139617384Y-61526668D01*
X139679571Y-61483124D01*
X139679571Y-61483123D01*
X139122534Y-60926086D01*
X139132315Y-60924680D01*
X139263100Y-60864952D01*
X139371761Y-60770798D01*
X139449493Y-60649844D01*
X139473076Y-60569524D01*
X140033123Y-61129571D01*
X140033124Y-61129571D01*
X140076669Y-61067382D01*
X140076670Y-61067382D01*
X140096689Y-61024451D01*
X140143606Y-60971165D01*
X140211883Y-60951704D01*
X140279843Y-60972245D01*
X140308283Y-60997766D01*
X140310747Y-61000768D01*
X140310748Y-61000770D01*
X140436275Y-61153725D01*
X140589230Y-61279252D01*
X140763735Y-61372527D01*
X140953084Y-61429965D01*
X140953088Y-61429965D01*
X140953090Y-61429966D01*
X141149997Y-61449360D01*
X141150000Y-61449360D01*
X141150003Y-61449360D01*
X141346909Y-61429966D01*
X141346910Y-61429965D01*
X141346916Y-61429965D01*
X141536265Y-61372527D01*
X141710770Y-61279252D01*
X141863725Y-61153725D01*
X141989252Y-61000770D01*
X142082527Y-60826265D01*
X142109425Y-60737590D01*
X142148340Y-60678210D01*
X142213181Y-60649295D01*
X142283362Y-60660025D01*
X142336601Y-60706994D01*
X142350573Y-60737588D01*
X142377473Y-60826265D01*
X142470748Y-61000770D01*
X142596275Y-61153725D01*
X142749230Y-61279252D01*
X142923735Y-61372527D01*
X143113084Y-61429965D01*
X143113088Y-61429965D01*
X143113090Y-61429966D01*
X143309997Y-61449360D01*
X143310000Y-61449360D01*
X143310003Y-61449360D01*
X143506909Y-61429966D01*
X143506910Y-61429965D01*
X143506916Y-61429965D01*
X143696265Y-61372527D01*
X143870770Y-61279252D01*
X144023725Y-61153725D01*
X144149252Y-61000770D01*
X144242527Y-60826265D01*
X144269425Y-60737590D01*
X144308340Y-60678210D01*
X144373181Y-60649295D01*
X144443362Y-60660025D01*
X144496601Y-60706994D01*
X144510573Y-60737588D01*
X144537473Y-60826265D01*
X144630748Y-61000770D01*
X144756275Y-61153725D01*
X144909230Y-61279252D01*
X145083735Y-61372527D01*
X145273084Y-61429965D01*
X145273088Y-61429965D01*
X145273090Y-61429966D01*
X145469997Y-61449360D01*
X145470000Y-61449360D01*
X145470003Y-61449360D01*
X145666909Y-61429966D01*
X145666910Y-61429965D01*
X145666916Y-61429965D01*
X145856265Y-61372527D01*
X146030770Y-61279252D01*
X146183725Y-61153725D01*
X146309252Y-61000770D01*
X146402527Y-60826265D01*
X146429425Y-60737590D01*
X146468340Y-60678210D01*
X146533181Y-60649295D01*
X146603362Y-60660025D01*
X146656601Y-60706994D01*
X146670573Y-60737588D01*
X146697473Y-60826265D01*
X146790748Y-61000770D01*
X146916275Y-61153725D01*
X147069230Y-61279252D01*
X147243735Y-61372527D01*
X147433084Y-61429965D01*
X147433088Y-61429965D01*
X147433090Y-61429966D01*
X147629997Y-61449360D01*
X147630000Y-61449360D01*
X147630003Y-61449360D01*
X147826909Y-61429966D01*
X147826910Y-61429965D01*
X147826916Y-61429965D01*
X148016265Y-61372527D01*
X148190770Y-61279252D01*
X148343725Y-61153725D01*
X148469252Y-61000770D01*
X148562527Y-60826265D01*
X148589425Y-60737590D01*
X148628340Y-60678210D01*
X148693181Y-60649295D01*
X148763362Y-60660025D01*
X148816601Y-60706994D01*
X148830573Y-60737588D01*
X148857473Y-60826265D01*
X148950748Y-61000770D01*
X149076275Y-61153725D01*
X149229230Y-61279252D01*
X149403735Y-61372527D01*
X149593084Y-61429965D01*
X149593088Y-61429965D01*
X149593090Y-61429966D01*
X149789997Y-61449360D01*
X149790000Y-61449360D01*
X149790003Y-61449360D01*
X149986909Y-61429966D01*
X149986910Y-61429965D01*
X149986916Y-61429965D01*
X150176265Y-61372527D01*
X150350770Y-61279252D01*
X150503725Y-61153725D01*
X150629252Y-61000770D01*
X150722527Y-60826265D01*
X150749425Y-60737590D01*
X150788340Y-60678210D01*
X150853181Y-60649295D01*
X150923362Y-60660025D01*
X150976601Y-60706994D01*
X150990573Y-60737588D01*
X151017473Y-60826265D01*
X151110748Y-61000770D01*
X151236275Y-61153725D01*
X151389230Y-61279252D01*
X151563735Y-61372527D01*
X151753084Y-61429965D01*
X151753088Y-61429965D01*
X151753090Y-61429966D01*
X151949997Y-61449360D01*
X151950000Y-61449360D01*
X151950003Y-61449360D01*
X152146909Y-61429966D01*
X152146910Y-61429965D01*
X152146916Y-61429965D01*
X152336265Y-61372527D01*
X152510770Y-61279252D01*
X152663725Y-61153725D01*
X152789252Y-61000770D01*
X152882527Y-60826265D01*
X152909425Y-60737590D01*
X152948340Y-60678210D01*
X153013181Y-60649295D01*
X153083362Y-60660025D01*
X153136601Y-60706994D01*
X153150573Y-60737588D01*
X153177473Y-60826265D01*
X153270748Y-61000770D01*
X153396275Y-61153725D01*
X153549230Y-61279252D01*
X153723735Y-61372527D01*
X153913084Y-61429965D01*
X153913088Y-61429965D01*
X153913090Y-61429966D01*
X154109997Y-61449360D01*
X154110000Y-61449360D01*
X154110003Y-61449360D01*
X154306909Y-61429966D01*
X154306910Y-61429965D01*
X154306916Y-61429965D01*
X154496265Y-61372527D01*
X154670770Y-61279252D01*
X154823725Y-61153725D01*
X154949252Y-61000770D01*
X155042527Y-60826265D01*
X155069425Y-60737590D01*
X155108340Y-60678210D01*
X155173181Y-60649295D01*
X155243362Y-60660025D01*
X155296601Y-60706994D01*
X155310573Y-60737588D01*
X155337473Y-60826265D01*
X155430748Y-61000770D01*
X155556275Y-61153725D01*
X155709230Y-61279252D01*
X155883735Y-61372527D01*
X156073084Y-61429965D01*
X156073088Y-61429965D01*
X156073090Y-61429966D01*
X156269997Y-61449360D01*
X156270000Y-61449360D01*
X156270003Y-61449360D01*
X156466909Y-61429966D01*
X156466910Y-61429965D01*
X156466916Y-61429965D01*
X156656265Y-61372527D01*
X156830770Y-61279252D01*
X156983725Y-61153725D01*
X157109252Y-61000770D01*
X157202527Y-60826265D01*
X157229425Y-60737590D01*
X157268340Y-60678210D01*
X157333181Y-60649295D01*
X157403362Y-60660025D01*
X157456601Y-60706994D01*
X157470573Y-60737588D01*
X157497473Y-60826265D01*
X157590748Y-61000770D01*
X157716275Y-61153725D01*
X157869230Y-61279252D01*
X158043735Y-61372527D01*
X158233084Y-61429965D01*
X158233088Y-61429965D01*
X158233090Y-61429966D01*
X158429997Y-61449360D01*
X158430000Y-61449360D01*
X158430003Y-61449360D01*
X158626909Y-61429966D01*
X158626910Y-61429965D01*
X158626916Y-61429965D01*
X158816265Y-61372527D01*
X158990770Y-61279252D01*
X159143725Y-61153725D01*
X159269252Y-61000770D01*
X159362527Y-60826265D01*
X159389425Y-60737590D01*
X159428340Y-60678210D01*
X159493181Y-60649295D01*
X159563362Y-60660025D01*
X159616601Y-60706994D01*
X159630573Y-60737588D01*
X159657473Y-60826265D01*
X159750748Y-61000770D01*
X159876275Y-61153725D01*
X160029230Y-61279252D01*
X160203735Y-61372527D01*
X160393084Y-61429965D01*
X160393088Y-61429965D01*
X160393090Y-61429966D01*
X160589997Y-61449360D01*
X160590000Y-61449360D01*
X160590003Y-61449360D01*
X160786909Y-61429966D01*
X160786910Y-61429965D01*
X160786916Y-61429965D01*
X160976265Y-61372527D01*
X161150770Y-61279252D01*
X161303725Y-61153725D01*
X161429252Y-61000770D01*
X161522527Y-60826265D01*
X161579965Y-60636916D01*
X161584933Y-60586482D01*
X161599360Y-60440002D01*
X161599360Y-60439997D01*
X161579966Y-60243090D01*
X161579965Y-60243088D01*
X161579965Y-60243084D01*
X161522527Y-60053735D01*
X161429252Y-59879230D01*
X161303725Y-59726275D01*
X161150770Y-59600748D01*
X160976265Y-59507473D01*
X160786916Y-59450035D01*
X160786915Y-59450034D01*
X160786909Y-59450033D01*
X160590003Y-59430640D01*
X160589997Y-59430640D01*
X160393090Y-59450033D01*
X160203734Y-59507473D01*
X160029229Y-59600748D01*
X159876275Y-59726275D01*
X159750748Y-59879229D01*
X159657473Y-60053734D01*
X159630575Y-60142407D01*
X159591660Y-60201789D01*
X159526818Y-60230705D01*
X159456637Y-60219974D01*
X159403399Y-60173004D01*
X159389425Y-60142407D01*
X159380284Y-60112274D01*
X159362527Y-60053735D01*
X159269252Y-59879230D01*
X159143725Y-59726275D01*
X158990770Y-59600748D01*
X158816265Y-59507473D01*
X158626916Y-59450035D01*
X158626915Y-59450034D01*
X158626909Y-59450033D01*
X158430003Y-59430640D01*
X158429997Y-59430640D01*
X158233090Y-59450033D01*
X158043734Y-59507473D01*
X157869229Y-59600748D01*
X157716275Y-59726275D01*
X157590748Y-59879229D01*
X157497473Y-60053734D01*
X157470575Y-60142407D01*
X157431660Y-60201789D01*
X157366818Y-60230705D01*
X157296637Y-60219974D01*
X157243399Y-60173004D01*
X157229425Y-60142407D01*
X157220284Y-60112274D01*
X157202527Y-60053735D01*
X157109252Y-59879230D01*
X156983725Y-59726275D01*
X156830770Y-59600748D01*
X156656265Y-59507473D01*
X156466916Y-59450035D01*
X156466915Y-59450034D01*
X156466909Y-59450033D01*
X156270003Y-59430640D01*
X156269997Y-59430640D01*
X156073090Y-59450033D01*
X155883734Y-59507473D01*
X155709229Y-59600748D01*
X155556275Y-59726275D01*
X155430748Y-59879229D01*
X155337473Y-60053734D01*
X155310575Y-60142407D01*
X155271660Y-60201789D01*
X155206818Y-60230705D01*
X155136637Y-60219974D01*
X155083399Y-60173004D01*
X155069425Y-60142407D01*
X155060284Y-60112274D01*
X155042527Y-60053735D01*
X154949252Y-59879230D01*
X154823725Y-59726275D01*
X154670770Y-59600748D01*
X154496265Y-59507473D01*
X154306916Y-59450035D01*
X154306915Y-59450034D01*
X154306909Y-59450033D01*
X154110003Y-59430640D01*
X154109997Y-59430640D01*
X153913090Y-59450033D01*
X153723734Y-59507473D01*
X153549229Y-59600748D01*
X153396275Y-59726275D01*
X153270748Y-59879229D01*
X153177473Y-60053734D01*
X153150575Y-60142407D01*
X153111660Y-60201789D01*
X153046818Y-60230705D01*
X152976637Y-60219974D01*
X152923399Y-60173004D01*
X152909425Y-60142407D01*
X152900284Y-60112274D01*
X152882527Y-60053735D01*
X152789252Y-59879230D01*
X152663725Y-59726275D01*
X152510770Y-59600748D01*
X152336265Y-59507473D01*
X152146916Y-59450035D01*
X152146915Y-59450034D01*
X152146909Y-59450033D01*
X151950003Y-59430640D01*
X151949997Y-59430640D01*
X151753090Y-59450033D01*
X151563734Y-59507473D01*
X151389229Y-59600748D01*
X151236275Y-59726275D01*
X151110748Y-59879229D01*
X151017473Y-60053734D01*
X150990575Y-60142407D01*
X150951660Y-60201789D01*
X150886818Y-60230705D01*
X150816637Y-60219974D01*
X150763399Y-60173004D01*
X150749425Y-60142407D01*
X150740284Y-60112274D01*
X150722527Y-60053735D01*
X150629252Y-59879230D01*
X150503725Y-59726275D01*
X150350770Y-59600748D01*
X150176265Y-59507473D01*
X149986916Y-59450035D01*
X149986915Y-59450034D01*
X149986909Y-59450033D01*
X149790003Y-59430640D01*
X149789997Y-59430640D01*
X149593090Y-59450033D01*
X149403734Y-59507473D01*
X149229229Y-59600748D01*
X149076275Y-59726275D01*
X148950748Y-59879229D01*
X148857473Y-60053734D01*
X148830575Y-60142407D01*
X148791660Y-60201789D01*
X148726818Y-60230705D01*
X148656637Y-60219974D01*
X148603399Y-60173004D01*
X148589425Y-60142407D01*
X148580284Y-60112274D01*
X148562527Y-60053735D01*
X148469252Y-59879230D01*
X148343725Y-59726275D01*
X148190770Y-59600748D01*
X148016265Y-59507473D01*
X147826916Y-59450035D01*
X147826915Y-59450034D01*
X147826909Y-59450033D01*
X147630003Y-59430640D01*
X147629997Y-59430640D01*
X147433090Y-59450033D01*
X147243734Y-59507473D01*
X147069229Y-59600748D01*
X146916275Y-59726275D01*
X146790748Y-59879229D01*
X146697473Y-60053734D01*
X146670575Y-60142407D01*
X146631660Y-60201789D01*
X146566818Y-60230705D01*
X146496637Y-60219974D01*
X146443399Y-60173004D01*
X146429425Y-60142407D01*
X146420284Y-60112274D01*
X146402527Y-60053735D01*
X146309252Y-59879230D01*
X146183725Y-59726275D01*
X146030770Y-59600748D01*
X145856265Y-59507473D01*
X145666916Y-59450035D01*
X145666915Y-59450034D01*
X145666909Y-59450033D01*
X145470003Y-59430640D01*
X145469997Y-59430640D01*
X145273090Y-59450033D01*
X145083734Y-59507473D01*
X144909229Y-59600748D01*
X144756275Y-59726275D01*
X144630748Y-59879229D01*
X144537473Y-60053734D01*
X144510575Y-60142407D01*
X144471660Y-60201789D01*
X144406818Y-60230705D01*
X144336637Y-60219974D01*
X144283399Y-60173004D01*
X144269425Y-60142407D01*
X144260284Y-60112274D01*
X144242527Y-60053735D01*
X144149252Y-59879230D01*
X144023725Y-59726275D01*
X143870770Y-59600748D01*
X143696265Y-59507473D01*
X143506916Y-59450035D01*
X143506915Y-59450034D01*
X143506909Y-59450033D01*
X143310003Y-59430640D01*
X143309997Y-59430640D01*
X143113090Y-59450033D01*
X142923734Y-59507473D01*
X142749229Y-59600748D01*
X142596275Y-59726275D01*
X142470748Y-59879229D01*
X142377473Y-60053734D01*
X142350575Y-60142407D01*
X142311660Y-60201789D01*
X142246818Y-60230705D01*
X142176637Y-60219974D01*
X142123399Y-60173004D01*
X142109425Y-60142407D01*
X142100284Y-60112274D01*
X142082527Y-60053735D01*
X141989252Y-59879230D01*
X141863725Y-59726275D01*
X141710770Y-59600748D01*
X141536265Y-59507473D01*
X141346916Y-59450035D01*
X141346915Y-59450034D01*
X141346909Y-59450033D01*
X141150003Y-59430640D01*
X141149997Y-59430640D01*
X140953090Y-59450033D01*
X140763734Y-59507473D01*
X140589229Y-59600748D01*
X140436275Y-59726275D01*
X140308282Y-59882233D01*
X140249604Y-59922202D01*
X140178633Y-59924102D01*
X140117901Y-59887330D01*
X140096688Y-59855548D01*
X140076669Y-59812617D01*
X140076667Y-59812614D01*
X140033123Y-59750428D01*
X139473076Y-60310475D01*
X139449493Y-60230156D01*
X139371761Y-60109202D01*
X139263100Y-60015048D01*
X139132315Y-59955320D01*
X139122532Y-59953913D01*
X139679571Y-59396874D01*
X139617389Y-59353334D01*
X139419160Y-59260898D01*
X139419155Y-59260896D01*
X139207892Y-59204288D01*
X138990000Y-59185225D01*
X138772107Y-59204288D01*
X138560844Y-59260896D01*
X138560839Y-59260898D01*
X138362609Y-59353334D01*
X138300428Y-59396873D01*
X138300428Y-59396874D01*
X138857467Y-59953913D01*
X138847685Y-59955320D01*
X138716900Y-60015048D01*
X138608239Y-60109202D01*
X138530507Y-60230156D01*
X138506923Y-60310475D01*
X137946875Y-59750427D01*
X137920979Y-59752693D01*
X137899019Y-59752693D01*
X137873124Y-59750427D01*
X137313076Y-60310475D01*
X137289493Y-60230156D01*
X137211761Y-60109202D01*
X137103100Y-60015048D01*
X136972315Y-59955320D01*
X136962532Y-59953913D01*
X137519571Y-59396874D01*
X137457389Y-59353334D01*
X137259160Y-59260898D01*
X137259155Y-59260896D01*
X137047892Y-59204288D01*
X136830000Y-59185225D01*
X136612107Y-59204288D01*
X136400844Y-59260896D01*
X136400839Y-59260898D01*
X136202609Y-59353334D01*
X136140428Y-59396873D01*
X136140428Y-59396874D01*
X136697467Y-59953913D01*
X136687685Y-59955320D01*
X136556900Y-60015048D01*
X136448239Y-60109202D01*
X136370507Y-60230156D01*
X136346922Y-60310476D01*
X135786874Y-59750428D01*
X135786873Y-59750428D01*
X135743334Y-59812609D01*
X135743331Y-59812613D01*
X135723310Y-59855550D01*
X135676393Y-59908835D01*
X135608115Y-59928295D01*
X135540155Y-59907752D01*
X135511717Y-59882233D01*
X135454706Y-59812766D01*
X135383725Y-59726275D01*
X135230770Y-59600748D01*
X135056265Y-59507473D01*
X134866916Y-59450035D01*
X134866915Y-59450034D01*
X134866909Y-59450033D01*
X134670003Y-59430640D01*
X134669997Y-59430640D01*
X134473090Y-59450033D01*
X134283734Y-59507473D01*
X134109229Y-59600748D01*
X133956275Y-59726275D01*
X133828282Y-59882233D01*
X133769604Y-59922202D01*
X133698633Y-59924102D01*
X133637901Y-59887330D01*
X133616688Y-59855548D01*
X133596669Y-59812617D01*
X133596667Y-59812614D01*
X133553123Y-59750428D01*
X132993076Y-60310475D01*
X132969493Y-60230156D01*
X132891761Y-60109202D01*
X132783100Y-60015048D01*
X132652315Y-59955320D01*
X132642532Y-59953913D01*
X133199571Y-59396874D01*
X133137389Y-59353334D01*
X132939160Y-59260898D01*
X132939155Y-59260896D01*
X132727892Y-59204288D01*
X132510000Y-59185225D01*
X132292107Y-59204288D01*
X132080844Y-59260896D01*
X132080839Y-59260898D01*
X131882609Y-59353334D01*
X131820428Y-59396873D01*
X131820428Y-59396874D01*
X132377467Y-59953913D01*
X132367685Y-59955320D01*
X132236900Y-60015048D01*
X132128239Y-60109202D01*
X132050507Y-60230156D01*
X132026923Y-60310475D01*
X131466875Y-59750427D01*
X131440979Y-59752693D01*
X131419019Y-59752693D01*
X131393124Y-59750427D01*
X130833076Y-60310475D01*
X130809493Y-60230156D01*
X130731761Y-60109202D01*
X130623100Y-60015048D01*
X130492315Y-59955320D01*
X130482532Y-59953913D01*
X131039571Y-59396874D01*
X130977389Y-59353334D01*
X130779160Y-59260898D01*
X130779155Y-59260896D01*
X130567892Y-59204288D01*
X130350000Y-59185225D01*
X130132107Y-59204288D01*
X129920844Y-59260896D01*
X129920839Y-59260898D01*
X129722609Y-59353334D01*
X129660428Y-59396873D01*
X129660428Y-59396874D01*
X130217467Y-59953913D01*
X130207685Y-59955320D01*
X130076900Y-60015048D01*
X129968239Y-60109202D01*
X129890507Y-60230156D01*
X129866923Y-60310475D01*
X129306875Y-59750427D01*
X129280979Y-59752693D01*
X129259019Y-59752693D01*
X129233124Y-59750427D01*
X128673076Y-60310475D01*
X128649493Y-60230156D01*
X128571761Y-60109202D01*
X128463100Y-60015048D01*
X128332315Y-59955320D01*
X128322532Y-59953913D01*
X128879571Y-59396874D01*
X128817389Y-59353334D01*
X128619160Y-59260898D01*
X128619155Y-59260896D01*
X128407892Y-59204288D01*
X128190000Y-59185225D01*
X127972107Y-59204288D01*
X127760844Y-59260896D01*
X127760839Y-59260898D01*
X127562609Y-59353334D01*
X127500428Y-59396873D01*
X127500428Y-59396874D01*
X128057467Y-59953913D01*
X128047685Y-59955320D01*
X127916900Y-60015048D01*
X127808239Y-60109202D01*
X127730507Y-60230156D01*
X127706922Y-60310476D01*
X127146874Y-59750428D01*
X127146873Y-59750428D01*
X127103334Y-59812609D01*
X127103331Y-59812613D01*
X127083310Y-59855550D01*
X127036393Y-59908835D01*
X126968115Y-59928295D01*
X126900155Y-59907752D01*
X126871717Y-59882233D01*
X126814706Y-59812766D01*
X126743725Y-59726275D01*
X126590770Y-59600748D01*
X126416265Y-59507473D01*
X126226916Y-59450035D01*
X126226915Y-59450034D01*
X126226909Y-59450033D01*
X126030003Y-59430640D01*
X126029997Y-59430640D01*
X125833090Y-59450033D01*
X125643734Y-59507473D01*
X125469229Y-59600748D01*
X125316275Y-59726275D01*
X125190748Y-59879229D01*
X125097473Y-60053734D01*
X125070575Y-60142407D01*
X125031660Y-60201789D01*
X124966818Y-60230705D01*
X124896637Y-60219974D01*
X124843399Y-60173004D01*
X124829425Y-60142407D01*
X124820284Y-60112274D01*
X124802527Y-60053735D01*
X124709252Y-59879230D01*
X124583725Y-59726275D01*
X124430770Y-59600748D01*
X124256265Y-59507473D01*
X124066916Y-59450035D01*
X124066915Y-59450034D01*
X124066909Y-59450033D01*
X123870003Y-59430640D01*
X123869997Y-59430640D01*
X123673090Y-59450033D01*
X123483734Y-59507473D01*
X123309229Y-59600748D01*
X123156275Y-59726275D01*
X123030748Y-59879229D01*
X122937473Y-60053734D01*
X122910575Y-60142407D01*
X122871660Y-60201789D01*
X122806818Y-60230705D01*
X122736637Y-60219974D01*
X122683399Y-60173004D01*
X122669425Y-60142407D01*
X122660284Y-60112274D01*
X122642527Y-60053735D01*
X122549252Y-59879230D01*
X122423725Y-59726275D01*
X122270770Y-59600748D01*
X122096265Y-59507473D01*
X121906916Y-59450035D01*
X121906915Y-59450034D01*
X121906909Y-59450033D01*
X121710003Y-59430640D01*
X121709997Y-59430640D01*
X121513090Y-59450033D01*
X121323734Y-59507473D01*
X121149229Y-59600748D01*
X120996275Y-59726275D01*
X120870748Y-59879229D01*
X120777473Y-60053734D01*
X120750575Y-60142407D01*
X120711660Y-60201789D01*
X120646818Y-60230705D01*
X120576637Y-60219974D01*
X120523399Y-60173004D01*
X120509425Y-60142407D01*
X120500284Y-60112274D01*
X120482527Y-60053735D01*
X120389252Y-59879230D01*
X120263725Y-59726275D01*
X120110770Y-59600748D01*
X119936265Y-59507473D01*
X119746916Y-59450035D01*
X119746915Y-59450034D01*
X119746909Y-59450033D01*
X119550003Y-59430640D01*
X119549997Y-59430640D01*
X119353090Y-59450033D01*
X119163734Y-59507473D01*
X118989229Y-59600748D01*
X118836275Y-59726275D01*
X118710748Y-59879229D01*
X118617473Y-60053734D01*
X118590575Y-60142407D01*
X118551660Y-60201789D01*
X118486818Y-60230705D01*
X118416637Y-60219974D01*
X118363399Y-60173004D01*
X118349425Y-60142407D01*
X118340284Y-60112274D01*
X118322527Y-60053735D01*
X118229252Y-59879230D01*
X118103725Y-59726275D01*
X117950770Y-59600748D01*
X117776265Y-59507473D01*
X117586916Y-59450035D01*
X117586915Y-59450034D01*
X117586909Y-59450033D01*
X117390003Y-59430640D01*
X117389997Y-59430640D01*
X117193090Y-59450033D01*
X117003734Y-59507473D01*
X116829229Y-59600748D01*
X116676275Y-59726275D01*
X116550748Y-59879229D01*
X116457473Y-60053734D01*
X116430575Y-60142407D01*
X116391660Y-60201789D01*
X116326818Y-60230705D01*
X116256637Y-60219974D01*
X116203399Y-60173004D01*
X116189425Y-60142407D01*
X116180284Y-60112274D01*
X116162527Y-60053735D01*
X116069252Y-59879230D01*
X115943725Y-59726275D01*
X115790770Y-59600748D01*
X115616265Y-59507473D01*
X115426916Y-59450035D01*
X115426915Y-59450034D01*
X115426909Y-59450033D01*
X115230003Y-59430640D01*
X115229997Y-59430640D01*
X115033090Y-59450033D01*
X114843734Y-59507473D01*
X114669229Y-59600748D01*
X114516275Y-59726275D01*
X114390748Y-59879229D01*
X114297473Y-60053734D01*
X114270575Y-60142407D01*
X114231660Y-60201789D01*
X114166818Y-60230705D01*
X114096637Y-60219974D01*
X114043399Y-60173004D01*
X114029425Y-60142407D01*
X114020284Y-60112274D01*
X114002527Y-60053735D01*
X113909252Y-59879230D01*
X113783725Y-59726275D01*
X113630770Y-59600748D01*
X113456265Y-59507473D01*
X113266916Y-59450035D01*
X113266915Y-59450034D01*
X113266909Y-59450033D01*
X113070003Y-59430640D01*
X113069997Y-59430640D01*
X112873090Y-59450033D01*
X112683734Y-59507473D01*
X112509229Y-59600748D01*
X112356275Y-59726275D01*
X112230748Y-59879229D01*
X112137473Y-60053734D01*
X112110575Y-60142407D01*
X112071660Y-60201789D01*
X112006818Y-60230705D01*
X111936637Y-60219974D01*
X111883399Y-60173004D01*
X111869425Y-60142407D01*
X111860284Y-60112274D01*
X111842527Y-60053735D01*
X111749252Y-59879230D01*
X111623725Y-59726275D01*
X111470770Y-59600748D01*
X111296265Y-59507473D01*
X111106916Y-59450035D01*
X111106915Y-59450034D01*
X111106909Y-59450033D01*
X110910003Y-59430640D01*
X110909997Y-59430640D01*
X110713090Y-59450033D01*
X110523734Y-59507473D01*
X110349229Y-59600748D01*
X110196275Y-59726275D01*
X110070748Y-59879229D01*
X109977473Y-60053734D01*
X109950575Y-60142407D01*
X109911660Y-60201789D01*
X109846818Y-60230705D01*
X109776637Y-60219974D01*
X109723399Y-60173004D01*
X109709425Y-60142407D01*
X109700284Y-60112274D01*
X109682527Y-60053735D01*
X109589252Y-59879230D01*
X109463725Y-59726275D01*
X109310770Y-59600748D01*
X109136265Y-59507473D01*
X108946916Y-59450035D01*
X108946915Y-59450034D01*
X108946909Y-59450033D01*
X108750003Y-59430640D01*
X108749997Y-59430640D01*
X108553090Y-59450033D01*
X108363734Y-59507473D01*
X108189229Y-59600748D01*
X108036275Y-59726275D01*
X107910748Y-59879229D01*
X107817473Y-60053734D01*
X107760033Y-60243090D01*
X107740640Y-60439997D01*
X107740640Y-60440002D01*
X106692994Y-60440002D01*
X106674809Y-60313526D01*
X106674808Y-60313525D01*
X106674808Y-60313520D01*
X106617529Y-60188097D01*
X106527235Y-60083891D01*
X106527234Y-60083890D01*
X106527233Y-60083889D01*
X106411240Y-60009346D01*
X106278947Y-59970501D01*
X106278944Y-59970500D01*
X106278942Y-59970500D01*
X106141058Y-59970500D01*
X106141056Y-59970500D01*
X106141052Y-59970501D01*
X106008759Y-60009346D01*
X105892766Y-60083889D01*
X105802470Y-60188098D01*
X105745192Y-60313519D01*
X105745190Y-60313526D01*
X105725569Y-60449996D01*
X105725569Y-60450003D01*
X105745190Y-60586473D01*
X105745193Y-60586482D01*
X105754872Y-60607676D01*
X105764977Y-60677950D01*
X105735484Y-60742531D01*
X105708379Y-60766017D01*
X105602766Y-60833889D01*
X105512470Y-60938098D01*
X105455192Y-61063519D01*
X105455190Y-61063526D01*
X105435569Y-61199996D01*
X105435569Y-61200003D01*
X99664998Y-61200003D01*
X99543261Y-60998625D01*
X99385847Y-60797704D01*
X99385847Y-60797703D01*
X98485674Y-61697875D01*
X98430115Y-61617383D01*
X98259552Y-61439808D01*
X98132278Y-61344168D01*
X99032295Y-60444151D01*
X98831374Y-60286738D01*
X98542779Y-60112277D01*
X98542773Y-60112274D01*
X98235272Y-59973879D01*
X97913311Y-59873552D01*
X97581610Y-59812766D01*
X97581607Y-59812765D01*
X97245001Y-59792405D01*
X97244999Y-59792405D01*
X96908392Y-59812765D01*
X96908389Y-59812766D01*
X96576688Y-59873552D01*
X96254727Y-59973879D01*
X95947226Y-60112274D01*
X95947220Y-60112277D01*
X95658625Y-60286738D01*
X95457704Y-60444151D01*
X95457703Y-60444151D01*
X96356241Y-61342689D01*
X96325888Y-61361884D01*
X96141588Y-61525159D01*
X96002256Y-61695808D01*
X95104151Y-60797703D01*
X95104151Y-60797704D01*
X94946738Y-60998625D01*
X94772277Y-61287220D01*
X94772274Y-61287226D01*
X94633879Y-61594727D01*
X94533552Y-61916688D01*
X94472766Y-62248389D01*
X94472765Y-62248392D01*
X94452405Y-62584998D01*
X94452405Y-62585001D01*
X93300500Y-62585001D01*
X93300500Y-58470003D01*
X105455569Y-58470003D01*
X105475190Y-58606473D01*
X105475192Y-58606480D01*
X105532471Y-58731903D01*
X105622765Y-58836109D01*
X105622766Y-58836110D01*
X105680762Y-58873381D01*
X105738760Y-58910654D01*
X105871058Y-58949500D01*
X105871061Y-58949500D01*
X106008939Y-58949500D01*
X106008942Y-58949500D01*
X106141240Y-58910654D01*
X106257235Y-58836109D01*
X106347529Y-58731903D01*
X106404808Y-58606480D01*
X106419844Y-58501903D01*
X106424431Y-58470003D01*
X106424431Y-58469996D01*
X106404809Y-58333526D01*
X106404808Y-58333525D01*
X106404808Y-58333520D01*
X106362100Y-58240003D01*
X122925569Y-58240003D01*
X122945190Y-58376473D01*
X122945192Y-58376480D01*
X122987899Y-58469996D01*
X123002471Y-58501903D01*
X123092765Y-58606109D01*
X123092766Y-58606110D01*
X123093331Y-58606473D01*
X123208760Y-58680654D01*
X123341058Y-58719500D01*
X123341061Y-58719500D01*
X123478939Y-58719500D01*
X123478942Y-58719500D01*
X123611240Y-58680654D01*
X123727235Y-58606109D01*
X123817529Y-58501903D01*
X123874808Y-58376480D01*
X123878687Y-58349500D01*
X123894431Y-58240003D01*
X123894431Y-58239996D01*
X123874809Y-58103526D01*
X123874808Y-58103525D01*
X123874808Y-58103520D01*
X123817529Y-57978097D01*
X123727235Y-57873891D01*
X123727234Y-57873890D01*
X123727233Y-57873889D01*
X123611240Y-57799346D01*
X123478947Y-57760501D01*
X123478944Y-57760500D01*
X123478942Y-57760500D01*
X123341058Y-57760500D01*
X123341056Y-57760500D01*
X123341052Y-57760501D01*
X123208759Y-57799346D01*
X123092766Y-57873889D01*
X123002470Y-57978098D01*
X122945192Y-58103519D01*
X122945190Y-58103526D01*
X122925569Y-58239996D01*
X122925569Y-58240003D01*
X106362100Y-58240003D01*
X106347529Y-58208097D01*
X106257235Y-58103891D01*
X106257234Y-58103890D01*
X106257233Y-58103889D01*
X106141240Y-58029346D01*
X106008947Y-57990501D01*
X106008944Y-57990500D01*
X106008942Y-57990500D01*
X105871058Y-57990500D01*
X105871056Y-57990500D01*
X105871052Y-57990501D01*
X105738759Y-58029346D01*
X105622766Y-58103889D01*
X105532470Y-58208098D01*
X105475192Y-58333519D01*
X105475190Y-58333526D01*
X105455569Y-58469996D01*
X105455569Y-58470003D01*
X93300500Y-58470003D01*
X93300500Y-57110003D01*
X127125569Y-57110003D01*
X127145190Y-57246473D01*
X127145192Y-57246480D01*
X127186981Y-57337986D01*
X127202471Y-57371903D01*
X127281856Y-57463519D01*
X127292766Y-57476110D01*
X127335992Y-57503889D01*
X127408760Y-57550654D01*
X127541058Y-57589500D01*
X127541061Y-57589500D01*
X127678939Y-57589500D01*
X127678942Y-57589500D01*
X127811240Y-57550654D01*
X127927235Y-57476109D01*
X128017529Y-57371903D01*
X128074808Y-57246480D01*
X128079803Y-57211740D01*
X128094431Y-57110003D01*
X128094431Y-57109996D01*
X128074809Y-56973526D01*
X128074808Y-56973525D01*
X128074808Y-56973520D01*
X128017529Y-56848097D01*
X127927235Y-56743891D01*
X127927234Y-56743890D01*
X127927233Y-56743889D01*
X127811240Y-56669346D01*
X127678947Y-56630501D01*
X127678944Y-56630500D01*
X127678942Y-56630500D01*
X127541058Y-56630500D01*
X127541056Y-56630500D01*
X127541052Y-56630501D01*
X127408759Y-56669346D01*
X127292766Y-56743889D01*
X127202470Y-56848098D01*
X127145192Y-56973519D01*
X127145190Y-56973526D01*
X127125569Y-57109996D01*
X127125569Y-57110003D01*
X93300500Y-57110003D01*
X93300500Y-51350003D01*
X93805569Y-51350003D01*
X93825190Y-51486473D01*
X93825192Y-51486480D01*
X93865505Y-51574754D01*
X93882471Y-51611903D01*
X93971373Y-51714502D01*
X93972766Y-51716110D01*
X93996566Y-51731405D01*
X94088760Y-51790654D01*
X94206833Y-51825323D01*
X94260430Y-51857124D01*
X94616580Y-52213274D01*
X94632968Y-52233454D01*
X94638930Y-52242579D01*
X94638932Y-52242582D01*
X94667221Y-52264600D01*
X94673078Y-52269773D01*
X94675875Y-52272570D01*
X94675881Y-52272575D01*
X94675887Y-52272581D01*
X94675893Y-52272585D01*
X94695095Y-52286296D01*
X94699858Y-52290003D01*
X94738881Y-52320375D01*
X94738885Y-52320376D01*
X94745869Y-52324156D01*
X94753023Y-52327654D01*
X94792823Y-52339502D01*
X94806182Y-52343479D01*
X94858673Y-52361500D01*
X94858677Y-52361500D01*
X94866514Y-52362808D01*
X94874410Y-52363792D01*
X94929825Y-52361500D01*
X127552616Y-52361500D01*
X127620737Y-52381502D01*
X127641711Y-52398405D01*
X128763595Y-53520289D01*
X128797621Y-53582601D01*
X128800500Y-53609384D01*
X128800500Y-55600616D01*
X128780498Y-55668737D01*
X128763599Y-55689706D01*
X128689787Y-55763519D01*
X128630430Y-55822876D01*
X128576834Y-55854676D01*
X128458759Y-55889346D01*
X128342766Y-55963889D01*
X128252470Y-56068098D01*
X128195192Y-56193519D01*
X128195190Y-56193526D01*
X128175569Y-56329996D01*
X128175569Y-56330003D01*
X128195190Y-56466473D01*
X128195192Y-56466479D01*
X128195192Y-56466480D01*
X128252471Y-56591903D01*
X128342765Y-56696109D01*
X128342766Y-56696110D01*
X128361641Y-56708240D01*
X128458760Y-56770654D01*
X128591058Y-56809500D01*
X128591061Y-56809500D01*
X128728939Y-56809500D01*
X128728942Y-56809500D01*
X128861240Y-56770654D01*
X128977235Y-56696109D01*
X128999856Y-56670003D01*
X133225569Y-56670003D01*
X133245190Y-56806473D01*
X133245192Y-56806480D01*
X133302471Y-56931903D01*
X133380563Y-57022027D01*
X133392766Y-57036110D01*
X133428040Y-57058779D01*
X133508760Y-57110654D01*
X133641058Y-57149500D01*
X133641061Y-57149500D01*
X133778939Y-57149500D01*
X133778942Y-57149500D01*
X133911240Y-57110654D01*
X134027235Y-57036109D01*
X134117529Y-56931903D01*
X134174808Y-56806480D01*
X134188933Y-56708240D01*
X134194431Y-56670003D01*
X134194431Y-56669996D01*
X134174809Y-56533526D01*
X134174808Y-56533525D01*
X134174808Y-56533520D01*
X134117529Y-56408097D01*
X134027235Y-56303891D01*
X134027234Y-56303890D01*
X134027233Y-56303889D01*
X133911240Y-56229346D01*
X133778947Y-56190501D01*
X133778944Y-56190500D01*
X133778942Y-56190500D01*
X133641058Y-56190500D01*
X133641056Y-56190500D01*
X133641052Y-56190501D01*
X133508759Y-56229346D01*
X133392766Y-56303889D01*
X133302470Y-56408098D01*
X133245192Y-56533519D01*
X133245190Y-56533526D01*
X133225569Y-56669996D01*
X133225569Y-56670003D01*
X128999856Y-56670003D01*
X129067529Y-56591903D01*
X129124808Y-56466480D01*
X129129686Y-56432548D01*
X129159177Y-56367970D01*
X129165293Y-56361399D01*
X129411283Y-56115410D01*
X129431459Y-56099027D01*
X129440582Y-56093068D01*
X129462608Y-56064766D01*
X129467767Y-56058927D01*
X129470581Y-56056114D01*
X129484300Y-56036897D01*
X129518375Y-55993119D01*
X129518377Y-55993111D01*
X129522162Y-55986119D01*
X129525654Y-55978977D01*
X129541479Y-55925817D01*
X129559499Y-55873331D01*
X129560809Y-55865478D01*
X129561792Y-55857592D01*
X129560733Y-55831998D01*
X129559500Y-55802174D01*
X129559500Y-54090003D01*
X134335569Y-54090003D01*
X134355190Y-54226473D01*
X134355192Y-54226480D01*
X134412471Y-54351903D01*
X134428155Y-54370003D01*
X134502766Y-54456110D01*
X134560762Y-54493381D01*
X134618760Y-54530654D01*
X134698830Y-54554164D01*
X134730977Y-54563604D01*
X134747793Y-54574411D01*
X134764521Y-54569500D01*
X134888939Y-54569500D01*
X134888942Y-54569500D01*
X135021240Y-54530654D01*
X135137235Y-54456109D01*
X135227529Y-54351903D01*
X135284808Y-54226480D01*
X135290166Y-54189217D01*
X135304431Y-54090003D01*
X135304431Y-54089996D01*
X135284809Y-53953526D01*
X135284808Y-53953525D01*
X135284808Y-53953520D01*
X135227529Y-53828097D01*
X135137235Y-53723891D01*
X135137234Y-53723890D01*
X135137233Y-53723889D01*
X135021240Y-53649346D01*
X134888947Y-53610501D01*
X134888944Y-53610500D01*
X134888942Y-53610500D01*
X134751058Y-53610500D01*
X134751056Y-53610500D01*
X134751052Y-53610501D01*
X134618759Y-53649346D01*
X134502766Y-53723889D01*
X134412470Y-53828098D01*
X134355192Y-53953519D01*
X134355190Y-53953526D01*
X134335569Y-54089996D01*
X134335569Y-54090003D01*
X129559500Y-54090003D01*
X129559500Y-53452426D01*
X129562182Y-53426566D01*
X129564419Y-53415900D01*
X129559983Y-53380317D01*
X129559500Y-53372525D01*
X129559500Y-53368555D01*
X129555616Y-53345282D01*
X129548752Y-53290220D01*
X129548752Y-53290218D01*
X129548750Y-53290214D01*
X129546486Y-53282609D01*
X129543900Y-53275075D01*
X129543900Y-53275073D01*
X129530760Y-53250793D01*
X129515930Y-53181367D01*
X129540989Y-53114940D01*
X129597983Y-53072607D01*
X129668817Y-53067807D01*
X129709692Y-53084826D01*
X129718760Y-53090654D01*
X129851058Y-53129500D01*
X129851061Y-53129500D01*
X129988939Y-53129500D01*
X129988942Y-53129500D01*
X130121240Y-53090654D01*
X130237235Y-53016109D01*
X130327529Y-52911903D01*
X130384808Y-52786480D01*
X130404291Y-52650966D01*
X130433785Y-52586389D01*
X130439914Y-52579805D01*
X131288316Y-51731404D01*
X131350628Y-51697379D01*
X131377411Y-51694500D01*
X134311077Y-51694500D01*
X134379198Y-51714502D01*
X134425691Y-51768158D01*
X134434725Y-51830988D01*
X134435569Y-51830988D01*
X134435569Y-51836860D01*
X134435794Y-51838430D01*
X134435794Y-51838432D01*
X134435569Y-51839996D01*
X134435569Y-51840003D01*
X134455190Y-51976473D01*
X134455192Y-51976480D01*
X134512471Y-52101903D01*
X134570910Y-52169346D01*
X134602766Y-52206110D01*
X134645315Y-52233454D01*
X134718760Y-52280654D01*
X134851058Y-52319500D01*
X134897590Y-52319500D01*
X134965711Y-52339502D01*
X134986685Y-52356405D01*
X135596879Y-52966599D01*
X135600583Y-52970642D01*
X135623622Y-52998098D01*
X135625940Y-53000860D01*
X135660094Y-53020579D01*
X135664719Y-53023525D01*
X135682482Y-53035963D01*
X135697036Y-53046154D01*
X135703488Y-53049162D01*
X135716350Y-53054489D01*
X135723058Y-53056931D01*
X135723060Y-53056932D01*
X135761912Y-53063782D01*
X135767248Y-53064965D01*
X135805357Y-53075177D01*
X135830418Y-53072984D01*
X135844650Y-53071740D01*
X135850142Y-53071500D01*
X137025078Y-53071500D01*
X137093199Y-53091502D01*
X137114173Y-53108405D01*
X138132673Y-54126905D01*
X138166699Y-54189217D01*
X138161634Y-54260032D01*
X138119087Y-54316868D01*
X138052567Y-54341679D01*
X138043578Y-54342000D01*
X137919585Y-54342000D01*
X137851464Y-54321998D01*
X137804971Y-54268342D01*
X137794868Y-54233935D01*
X137794809Y-54233525D01*
X137794808Y-54233523D01*
X137794808Y-54233520D01*
X137737529Y-54108097D01*
X137647235Y-54003891D01*
X137647234Y-54003890D01*
X137647233Y-54003889D01*
X137531240Y-53929346D01*
X137398947Y-53890501D01*
X137398944Y-53890500D01*
X137398942Y-53890500D01*
X137261058Y-53890500D01*
X137261056Y-53890500D01*
X137261052Y-53890501D01*
X137128759Y-53929346D01*
X137012766Y-54003889D01*
X136922470Y-54108098D01*
X136865192Y-54233519D01*
X136865190Y-54233526D01*
X136845569Y-54369996D01*
X136845569Y-54370003D01*
X136865190Y-54506473D01*
X136865192Y-54506480D01*
X136922471Y-54631903D01*
X136967197Y-54683520D01*
X137012766Y-54736110D01*
X137070762Y-54773381D01*
X137128760Y-54810654D01*
X137261058Y-54849500D01*
X137305135Y-54849500D01*
X137373256Y-54869502D01*
X137401655Y-54894508D01*
X137412440Y-54907360D01*
X137441069Y-54923889D01*
X137446594Y-54927079D01*
X137451219Y-54930025D01*
X137468982Y-54942463D01*
X137483536Y-54952654D01*
X137489988Y-54955662D01*
X137502850Y-54960989D01*
X137509558Y-54963431D01*
X137509560Y-54963432D01*
X137548412Y-54970282D01*
X137553748Y-54971465D01*
X137591857Y-54981677D01*
X137616918Y-54979484D01*
X137631150Y-54978240D01*
X137636642Y-54978000D01*
X144390610Y-54978000D01*
X144458731Y-54998002D01*
X144505224Y-55051658D01*
X144515328Y-55121932D01*
X144485835Y-55186509D01*
X144455390Y-55221647D01*
X144432470Y-55248098D01*
X144375192Y-55373519D01*
X144375190Y-55373526D01*
X144355569Y-55509996D01*
X144355569Y-55510003D01*
X144375190Y-55646473D01*
X144375192Y-55646480D01*
X144431373Y-55769500D01*
X144432471Y-55771903D01*
X144517747Y-55870318D01*
X144547240Y-55934898D01*
X144537135Y-56005172D01*
X144490648Y-56058824D01*
X144482765Y-56063890D01*
X144482762Y-56063892D01*
X144453174Y-56098040D01*
X144393448Y-56136424D01*
X144322452Y-56136424D01*
X144268855Y-56104623D01*
X144195691Y-56031459D01*
X144121125Y-55956893D01*
X144117421Y-55952850D01*
X144115740Y-55950847D01*
X144092072Y-55922640D01*
X144092071Y-55922639D01*
X144067578Y-55908498D01*
X144057913Y-55902918D01*
X144053287Y-55899970D01*
X144020980Y-55877349D01*
X144014541Y-55874347D01*
X144001636Y-55869001D01*
X143994949Y-55866567D01*
X143956114Y-55859719D01*
X143950747Y-55858529D01*
X143912656Y-55848323D01*
X143912655Y-55848323D01*
X143873362Y-55851760D01*
X143867870Y-55852000D01*
X135703910Y-55852000D01*
X135635789Y-55831998D01*
X135614815Y-55815095D01*
X135159914Y-55360194D01*
X135125888Y-55297882D01*
X135124294Y-55289049D01*
X135104808Y-55153520D01*
X135047529Y-55028097D01*
X134957235Y-54923891D01*
X134957234Y-54923890D01*
X134957233Y-54923889D01*
X134841240Y-54849346D01*
X134729023Y-54816396D01*
X134712206Y-54805588D01*
X134695479Y-54810500D01*
X134571058Y-54810500D01*
X134571056Y-54810500D01*
X134571052Y-54810501D01*
X134438759Y-54849346D01*
X134322766Y-54923889D01*
X134232470Y-55028098D01*
X134175192Y-55153519D01*
X134175190Y-55153526D01*
X134155569Y-55289996D01*
X134155569Y-55290003D01*
X134175190Y-55426473D01*
X134175192Y-55426480D01*
X134208014Y-55498351D01*
X134232471Y-55551903D01*
X134314422Y-55646480D01*
X134322766Y-55656110D01*
X134370023Y-55686480D01*
X134438760Y-55730654D01*
X134571058Y-55769500D01*
X134617590Y-55769500D01*
X134685711Y-55789502D01*
X134706685Y-55806405D01*
X135283379Y-56383099D01*
X135287083Y-56387142D01*
X135304667Y-56408097D01*
X135312440Y-56417360D01*
X135339770Y-56433139D01*
X135346594Y-56437079D01*
X135351219Y-56440025D01*
X135368982Y-56452463D01*
X135383536Y-56462654D01*
X135389988Y-56465662D01*
X135402850Y-56470989D01*
X135409558Y-56473431D01*
X135409560Y-56473432D01*
X135448412Y-56480282D01*
X135453748Y-56481465D01*
X135491857Y-56491677D01*
X135516918Y-56489484D01*
X135531150Y-56488240D01*
X135536642Y-56488000D01*
X143700602Y-56488000D01*
X143768723Y-56508002D01*
X143789697Y-56524905D01*
X144371391Y-57106599D01*
X144375095Y-57110642D01*
X144396456Y-57136098D01*
X144424920Y-57201138D01*
X144413703Y-57271243D01*
X144366364Y-57324154D01*
X144297935Y-57343073D01*
X144264437Y-57337986D01*
X144238943Y-57330500D01*
X144238942Y-57330500D01*
X144101058Y-57330500D01*
X144101056Y-57330500D01*
X144101052Y-57330501D01*
X143968759Y-57369346D01*
X143852766Y-57443889D01*
X143762470Y-57548098D01*
X143762468Y-57548101D01*
X143712656Y-57657174D01*
X143666163Y-57710829D01*
X143598042Y-57730831D01*
X143529922Y-57710829D01*
X143483429Y-57657173D01*
X143473326Y-57622767D01*
X143464808Y-57563520D01*
X143407529Y-57438097D01*
X143317235Y-57333891D01*
X143317234Y-57333890D01*
X143317233Y-57333889D01*
X143201240Y-57259346D01*
X143068947Y-57220501D01*
X143068944Y-57220500D01*
X143068942Y-57220500D01*
X142931058Y-57220500D01*
X142931056Y-57220500D01*
X142931052Y-57220501D01*
X142798759Y-57259346D01*
X142682766Y-57333889D01*
X142592470Y-57438098D01*
X142535192Y-57563519D01*
X142535190Y-57563526D01*
X142515569Y-57699996D01*
X142515569Y-57700003D01*
X142535190Y-57836473D01*
X142535192Y-57836480D01*
X142585427Y-57946480D01*
X142592471Y-57961903D01*
X142674100Y-58056109D01*
X142682766Y-58066110D01*
X142703602Y-58079500D01*
X142798760Y-58140654D01*
X142931058Y-58179500D01*
X142931061Y-58179500D01*
X143068939Y-58179500D01*
X143068942Y-58179500D01*
X143201240Y-58140654D01*
X143317235Y-58066109D01*
X143407529Y-57961903D01*
X143457344Y-57852823D01*
X143503835Y-57799170D01*
X143571955Y-57779168D01*
X143640076Y-57799170D01*
X143686569Y-57852825D01*
X143696673Y-57887235D01*
X143705190Y-57946474D01*
X143705192Y-57946480D01*
X143755258Y-58056110D01*
X143762471Y-58071903D01*
X143852765Y-58176109D01*
X143852766Y-58176110D01*
X143902540Y-58208097D01*
X143968760Y-58250654D01*
X144101058Y-58289500D01*
X144101061Y-58289500D01*
X144238939Y-58289500D01*
X144238942Y-58289500D01*
X144371240Y-58250654D01*
X144487235Y-58176109D01*
X144577529Y-58071903D01*
X144634808Y-57946480D01*
X144645805Y-57869996D01*
X144654431Y-57810003D01*
X144654431Y-57809996D01*
X144634809Y-57673526D01*
X144634808Y-57673525D01*
X144634808Y-57673520D01*
X144577529Y-57548097D01*
X144487235Y-57443891D01*
X144487234Y-57443890D01*
X144487233Y-57443889D01*
X144480423Y-57437988D01*
X144481917Y-57436263D01*
X144443658Y-57392106D01*
X144433557Y-57321831D01*
X144463053Y-57257252D01*
X144522781Y-57218870D01*
X144569261Y-57214248D01*
X144579863Y-57215175D01*
X144579869Y-57215177D01*
X144604893Y-57212987D01*
X144619165Y-57211740D01*
X144624657Y-57211500D01*
X147325346Y-57211500D01*
X147330838Y-57211740D01*
X147347243Y-57213174D01*
X147370131Y-57215177D01*
X147408233Y-57204966D01*
X147413569Y-57203783D01*
X147422011Y-57202294D01*
X147492564Y-57210163D01*
X147547669Y-57254929D01*
X147569823Y-57322381D01*
X147551993Y-57391102D01*
X147539114Y-57408888D01*
X147522472Y-57428094D01*
X147522470Y-57428097D01*
X147465192Y-57553519D01*
X147465190Y-57553526D01*
X147445569Y-57689996D01*
X147445569Y-57690003D01*
X147465190Y-57826473D01*
X147465192Y-57826480D01*
X147522471Y-57951903D01*
X147612765Y-58056109D01*
X147612766Y-58056110D01*
X147628325Y-58066109D01*
X147728760Y-58130654D01*
X147861058Y-58169500D01*
X147861061Y-58169500D01*
X147998939Y-58169500D01*
X147998942Y-58169500D01*
X148131240Y-58130654D01*
X148247235Y-58056109D01*
X148337529Y-57951903D01*
X148374932Y-57870003D01*
X149705569Y-57870003D01*
X149725190Y-58006473D01*
X149725192Y-58006480D01*
X149782471Y-58131903D01*
X149823712Y-58179498D01*
X149872766Y-58236110D01*
X149930762Y-58273381D01*
X149988760Y-58310654D01*
X150121058Y-58349500D01*
X150121061Y-58349500D01*
X150258939Y-58349500D01*
X150258942Y-58349500D01*
X150391240Y-58310654D01*
X150507235Y-58236109D01*
X150597529Y-58131903D01*
X150654808Y-58006480D01*
X150674431Y-57870000D01*
X150674431Y-57869996D01*
X150654809Y-57733526D01*
X150654808Y-57733525D01*
X150654808Y-57733520D01*
X150597529Y-57608097D01*
X150590516Y-57600003D01*
X154855569Y-57600003D01*
X154875190Y-57736473D01*
X154875192Y-57736480D01*
X154932471Y-57861903D01*
X155005757Y-57946480D01*
X155022766Y-57966110D01*
X155041420Y-57978098D01*
X155138760Y-58040654D01*
X155271058Y-58079500D01*
X155271061Y-58079500D01*
X155408939Y-58079500D01*
X155408942Y-58079500D01*
X155541240Y-58040654D01*
X155657235Y-57966109D01*
X155747529Y-57861903D01*
X155804808Y-57736480D01*
X155810054Y-57699996D01*
X155824431Y-57600003D01*
X155824431Y-57599996D01*
X155804809Y-57463526D01*
X155804808Y-57463525D01*
X155804808Y-57463520D01*
X155747529Y-57338097D01*
X155657235Y-57233891D01*
X155657234Y-57233890D01*
X155657233Y-57233889D01*
X155541240Y-57159346D01*
X155408947Y-57120501D01*
X155408944Y-57120500D01*
X155408942Y-57120500D01*
X155271058Y-57120500D01*
X155271056Y-57120500D01*
X155271052Y-57120501D01*
X155138759Y-57159346D01*
X155022766Y-57233889D01*
X154932470Y-57338098D01*
X154875192Y-57463519D01*
X154875190Y-57463526D01*
X154855569Y-57599996D01*
X154855569Y-57600003D01*
X150590516Y-57600003D01*
X150507235Y-57503891D01*
X150507234Y-57503890D01*
X150507233Y-57503889D01*
X150391240Y-57429346D01*
X150258947Y-57390501D01*
X150258944Y-57390500D01*
X150258942Y-57390500D01*
X150121058Y-57390500D01*
X150121056Y-57390500D01*
X150121052Y-57390501D01*
X149988759Y-57429346D01*
X149872766Y-57503889D01*
X149782470Y-57608098D01*
X149725192Y-57733519D01*
X149725190Y-57733526D01*
X149705569Y-57869996D01*
X149705569Y-57870003D01*
X148374932Y-57870003D01*
X148394808Y-57826480D01*
X148397177Y-57810003D01*
X148414431Y-57690003D01*
X148414431Y-57689996D01*
X148394809Y-57553526D01*
X148394808Y-57553525D01*
X148394808Y-57553520D01*
X148337529Y-57428097D01*
X148311459Y-57398010D01*
X148281967Y-57333431D01*
X148292072Y-57263157D01*
X148338565Y-57209501D01*
X148406685Y-57189500D01*
X148548939Y-57189500D01*
X148548942Y-57189500D01*
X148681240Y-57150654D01*
X148797235Y-57076109D01*
X148887529Y-56971903D01*
X148944808Y-56846480D01*
X148949180Y-56816067D01*
X148978673Y-56751488D01*
X149038399Y-56713104D01*
X149073898Y-56708000D01*
X157543358Y-56708000D01*
X157548850Y-56708240D01*
X157565255Y-56709674D01*
X157588143Y-56711677D01*
X157626262Y-56701461D01*
X157631583Y-56700282D01*
X157670440Y-56693432D01*
X157670441Y-56693431D01*
X157670443Y-56693431D01*
X157677163Y-56690984D01*
X157689973Y-56685679D01*
X157696461Y-56682653D01*
X157696466Y-56682652D01*
X157728791Y-56660017D01*
X157733389Y-56657087D01*
X157767560Y-56637360D01*
X157767560Y-56637359D01*
X157769259Y-56636379D01*
X157832256Y-56619500D01*
X157878939Y-56619500D01*
X157878942Y-56619500D01*
X158011240Y-56580654D01*
X158127235Y-56506109D01*
X158217529Y-56401903D01*
X158274808Y-56276480D01*
X158284455Y-56209383D01*
X158294431Y-56140003D01*
X158294431Y-56139996D01*
X158274809Y-56003526D01*
X158274808Y-56003525D01*
X158274808Y-56003520D01*
X158217529Y-55878097D01*
X158127235Y-55773891D01*
X158127234Y-55773890D01*
X158127233Y-55773889D01*
X158011240Y-55699346D01*
X157878947Y-55660501D01*
X157878944Y-55660500D01*
X157878942Y-55660500D01*
X157741058Y-55660500D01*
X157741056Y-55660500D01*
X157741052Y-55660501D01*
X157608759Y-55699346D01*
X157492766Y-55773889D01*
X157402470Y-55878098D01*
X157376563Y-55934827D01*
X157349943Y-55993118D01*
X157347557Y-55998342D01*
X157301064Y-56051998D01*
X157232943Y-56072000D01*
X155328055Y-56072000D01*
X155259934Y-56051998D01*
X155213441Y-55998342D01*
X155203337Y-55928068D01*
X155232829Y-55863490D01*
X155277529Y-55811903D01*
X155334808Y-55686480D01*
X155341764Y-55638098D01*
X155354431Y-55550003D01*
X155354431Y-55549996D01*
X155334809Y-55413526D01*
X155334808Y-55413525D01*
X155334808Y-55413520D01*
X155277529Y-55288097D01*
X155187235Y-55183891D01*
X155187234Y-55183890D01*
X155187233Y-55183889D01*
X155071240Y-55109346D01*
X154938947Y-55070501D01*
X154938944Y-55070500D01*
X154938942Y-55070500D01*
X154938939Y-55070500D01*
X154892410Y-55070500D01*
X154824289Y-55050498D01*
X154803315Y-55033595D01*
X154401621Y-54631901D01*
X153913113Y-54143393D01*
X153909409Y-54139350D01*
X153904490Y-54133488D01*
X153884060Y-54109140D01*
X153884059Y-54109139D01*
X153869277Y-54100604D01*
X153849895Y-54089414D01*
X153845275Y-54086470D01*
X153812968Y-54063849D01*
X153806529Y-54060847D01*
X153793624Y-54055501D01*
X153786937Y-54053067D01*
X153748102Y-54046219D01*
X153742735Y-54045029D01*
X153704644Y-54034823D01*
X153704643Y-54034823D01*
X153665350Y-54038260D01*
X153659858Y-54038500D01*
X149874657Y-54038500D01*
X149869165Y-54038260D01*
X149834516Y-54035229D01*
X149829869Y-54034823D01*
X149829868Y-54034823D01*
X149829863Y-54034823D01*
X149791776Y-54045029D01*
X149786411Y-54046218D01*
X149747575Y-54053066D01*
X149740905Y-54055494D01*
X149727969Y-54060852D01*
X149721545Y-54063848D01*
X149689245Y-54086463D01*
X149684613Y-54089414D01*
X149650452Y-54109139D01*
X149625101Y-54139350D01*
X149621387Y-54143403D01*
X149459697Y-54305095D01*
X149397385Y-54339120D01*
X149370601Y-54342000D01*
X144891910Y-54342000D01*
X144823789Y-54321998D01*
X144777296Y-54268342D01*
X144767192Y-54198068D01*
X144796686Y-54133488D01*
X144802815Y-54126905D01*
X144853315Y-54076405D01*
X144915627Y-54042379D01*
X144942410Y-54039500D01*
X145028939Y-54039500D01*
X145028942Y-54039500D01*
X145161240Y-54000654D01*
X145277235Y-53926109D01*
X145367529Y-53821903D01*
X145424808Y-53696480D01*
X145441056Y-53583474D01*
X145444431Y-53560003D01*
X154635569Y-53560003D01*
X154655190Y-53696473D01*
X154655192Y-53696480D01*
X154712471Y-53821903D01*
X154738550Y-53852000D01*
X154802766Y-53926110D01*
X154845427Y-53953526D01*
X154918760Y-54000654D01*
X155051058Y-54039500D01*
X155051061Y-54039500D01*
X155188939Y-54039500D01*
X155188942Y-54039500D01*
X155321240Y-54000654D01*
X155437235Y-53926109D01*
X155527529Y-53821903D01*
X155584808Y-53696480D01*
X155601056Y-53583474D01*
X155604431Y-53560003D01*
X155604431Y-53559996D01*
X155584809Y-53423526D01*
X155584808Y-53423525D01*
X155584808Y-53423520D01*
X155527529Y-53298097D01*
X155437235Y-53193891D01*
X155437234Y-53193890D01*
X155437233Y-53193889D01*
X155321240Y-53119346D01*
X155188947Y-53080501D01*
X155188944Y-53080500D01*
X155188942Y-53080500D01*
X155051058Y-53080500D01*
X155051056Y-53080500D01*
X155051052Y-53080501D01*
X154918759Y-53119346D01*
X154802766Y-53193889D01*
X154712470Y-53298098D01*
X154655192Y-53423519D01*
X154655190Y-53423526D01*
X154635569Y-53559996D01*
X154635569Y-53560003D01*
X145444431Y-53560003D01*
X145444431Y-53559996D01*
X145424809Y-53423526D01*
X145424808Y-53423525D01*
X145424808Y-53423520D01*
X145367529Y-53298097D01*
X145277235Y-53193891D01*
X145277234Y-53193890D01*
X145277233Y-53193889D01*
X145270423Y-53187988D01*
X145271381Y-53186881D01*
X145231240Y-53140555D01*
X145221137Y-53070281D01*
X145250630Y-53005700D01*
X145277733Y-52982215D01*
X145287235Y-52976109D01*
X145377529Y-52871903D01*
X145434808Y-52746480D01*
X145435098Y-52744460D01*
X145445804Y-52670003D01*
X150065569Y-52670003D01*
X150085190Y-52806473D01*
X150085192Y-52806480D01*
X150125110Y-52893889D01*
X150142471Y-52931903D01*
X150232765Y-53036109D01*
X150232766Y-53036110D01*
X150261365Y-53054489D01*
X150348760Y-53110654D01*
X150481058Y-53149500D01*
X150481061Y-53149500D01*
X150618939Y-53149500D01*
X150618942Y-53149500D01*
X150751240Y-53110654D01*
X150867235Y-53036109D01*
X150957529Y-52931903D01*
X151014808Y-52806480D01*
X151023436Y-52746473D01*
X151034431Y-52670003D01*
X151034431Y-52669996D01*
X151014809Y-52533526D01*
X151014808Y-52533525D01*
X151014808Y-52533520D01*
X150957529Y-52408097D01*
X150867235Y-52303891D01*
X150867234Y-52303890D01*
X150867233Y-52303889D01*
X150798946Y-52260004D01*
X164945768Y-52260004D01*
X164964654Y-52463819D01*
X165017626Y-52649996D01*
X165020672Y-52660701D01*
X165111912Y-52843935D01*
X165111913Y-52843936D01*
X165235266Y-53007284D01*
X165386536Y-53145185D01*
X165560566Y-53252940D01*
X165560568Y-53252940D01*
X165560573Y-53252944D01*
X165751444Y-53326888D01*
X165952653Y-53364500D01*
X165952655Y-53364500D01*
X166157345Y-53364500D01*
X166157347Y-53364500D01*
X166358556Y-53326888D01*
X166549427Y-53252944D01*
X166723462Y-53145186D01*
X166734566Y-53135063D01*
X167490500Y-53135063D01*
X167490501Y-53135073D01*
X167505265Y-53209300D01*
X167561516Y-53293484D01*
X167645697Y-53349733D01*
X167645699Y-53349734D01*
X167719933Y-53364500D01*
X169470066Y-53364499D01*
X169470069Y-53364498D01*
X169470073Y-53364498D01*
X169519326Y-53354701D01*
X169544301Y-53349734D01*
X169628484Y-53293484D01*
X169684734Y-53209301D01*
X169699500Y-53135067D01*
X169699499Y-51384934D01*
X169699498Y-51384930D01*
X169699498Y-51384926D01*
X169684734Y-51310699D01*
X169655571Y-51267054D01*
X169628484Y-51226516D01*
X169621959Y-51222156D01*
X169544302Y-51170266D01*
X169470067Y-51155500D01*
X167719936Y-51155500D01*
X167719926Y-51155501D01*
X167645699Y-51170265D01*
X167561515Y-51226516D01*
X167505266Y-51310697D01*
X167490500Y-51384930D01*
X167490500Y-53135063D01*
X166734566Y-53135063D01*
X166874732Y-53007285D01*
X166879586Y-53000858D01*
X166925117Y-52940564D01*
X166998088Y-52843935D01*
X167089328Y-52660701D01*
X167145345Y-52463821D01*
X167155565Y-52353532D01*
X167164232Y-52260004D01*
X167164232Y-52259995D01*
X167145345Y-52056180D01*
X167137355Y-52028097D01*
X167089328Y-51859299D01*
X166998088Y-51676065D01*
X166949634Y-51611901D01*
X166874733Y-51512715D01*
X166723463Y-51374814D01*
X166549433Y-51267059D01*
X166549428Y-51267057D01*
X166549427Y-51267056D01*
X166513359Y-51253083D01*
X166358559Y-51193113D01*
X166358560Y-51193113D01*
X166358557Y-51193112D01*
X166358556Y-51193112D01*
X166157347Y-51155500D01*
X165952653Y-51155500D01*
X165751444Y-51193112D01*
X165751439Y-51193113D01*
X165560577Y-51267054D01*
X165560566Y-51267059D01*
X165386536Y-51374814D01*
X165235266Y-51512715D01*
X165111913Y-51676063D01*
X165020671Y-51859301D01*
X164964654Y-52056180D01*
X164945768Y-52259995D01*
X164945768Y-52260004D01*
X150798946Y-52260004D01*
X150751240Y-52229346D01*
X150618947Y-52190501D01*
X150618944Y-52190500D01*
X150618942Y-52190500D01*
X150481058Y-52190500D01*
X150481056Y-52190500D01*
X150481052Y-52190501D01*
X150348759Y-52229346D01*
X150232766Y-52303889D01*
X150142470Y-52408098D01*
X150085192Y-52533519D01*
X150085190Y-52533526D01*
X150065569Y-52669996D01*
X150065569Y-52670003D01*
X145445804Y-52670003D01*
X145454431Y-52610003D01*
X145454431Y-52609996D01*
X145434809Y-52473526D01*
X145434808Y-52473525D01*
X145434808Y-52473520D01*
X145377529Y-52348097D01*
X145287235Y-52243891D01*
X145287234Y-52243890D01*
X145287233Y-52243889D01*
X145171240Y-52169346D01*
X145038947Y-52130501D01*
X145038944Y-52130500D01*
X145038942Y-52130500D01*
X144901058Y-52130500D01*
X144901056Y-52130500D01*
X144901052Y-52130501D01*
X144768759Y-52169346D01*
X144652766Y-52243889D01*
X144562470Y-52348098D01*
X144505192Y-52473519D01*
X144505190Y-52473526D01*
X144485569Y-52609996D01*
X144485569Y-52610003D01*
X144505190Y-52746473D01*
X144505192Y-52746480D01*
X144562471Y-52871903D01*
X144648028Y-52970642D01*
X144652766Y-52976110D01*
X144659577Y-52982012D01*
X144658617Y-52983119D01*
X144698757Y-53029440D01*
X144708863Y-53099714D01*
X144679372Y-53164295D01*
X144652270Y-53187781D01*
X144642768Y-53193888D01*
X144642766Y-53193889D01*
X144552470Y-53298098D01*
X144495192Y-53423519D01*
X144495190Y-53423526D01*
X144482425Y-53512311D01*
X144452932Y-53576892D01*
X144446804Y-53583474D01*
X144215185Y-53815095D01*
X144152873Y-53849120D01*
X144126089Y-53852000D01*
X142854362Y-53852000D01*
X142786241Y-53831998D01*
X142739748Y-53778342D01*
X142729644Y-53708068D01*
X142759138Y-53643488D01*
X142771849Y-53630776D01*
X142777227Y-53626113D01*
X142777235Y-53626109D01*
X142867529Y-53521903D01*
X142924808Y-53396480D01*
X142927131Y-53380326D01*
X142944431Y-53260003D01*
X142944431Y-53259996D01*
X142924809Y-53123526D01*
X142924808Y-53123525D01*
X142924808Y-53123520D01*
X142867529Y-52998097D01*
X142777235Y-52893891D01*
X142777234Y-52893890D01*
X142777233Y-52893889D01*
X142661240Y-52819346D01*
X142528947Y-52780501D01*
X142528944Y-52780500D01*
X142528942Y-52780500D01*
X142391058Y-52780500D01*
X142391056Y-52780500D01*
X142391052Y-52780501D01*
X142258759Y-52819346D01*
X142142766Y-52893889D01*
X142052470Y-52998098D01*
X141995192Y-53123519D01*
X141995190Y-53123526D01*
X141975569Y-53259996D01*
X141975569Y-53260003D01*
X141995190Y-53396473D01*
X141995192Y-53396480D01*
X142052471Y-53521903D01*
X142142765Y-53626109D01*
X142142768Y-53626111D01*
X142148151Y-53630776D01*
X142186534Y-53690502D01*
X142186534Y-53761499D01*
X142148150Y-53821225D01*
X142083569Y-53850718D01*
X142065638Y-53852000D01*
X138809398Y-53852000D01*
X138741277Y-53831998D01*
X138720303Y-53815095D01*
X137605211Y-52700003D01*
X140595569Y-52700003D01*
X140615190Y-52836473D01*
X140615192Y-52836480D01*
X140672471Y-52961903D01*
X140754813Y-53056932D01*
X140762766Y-53066110D01*
X140815056Y-53099714D01*
X140878760Y-53140654D01*
X141011058Y-53179500D01*
X141011061Y-53179500D01*
X141148939Y-53179500D01*
X141148942Y-53179500D01*
X141281240Y-53140654D01*
X141397235Y-53066109D01*
X141487529Y-52961903D01*
X141544808Y-52836480D01*
X141564431Y-52700000D01*
X141564431Y-52699996D01*
X141544809Y-52563526D01*
X141544808Y-52563525D01*
X141544808Y-52563520D01*
X141487529Y-52438097D01*
X141397235Y-52333891D01*
X141397234Y-52333890D01*
X141397233Y-52333889D01*
X141281240Y-52259346D01*
X141148947Y-52220501D01*
X141148944Y-52220500D01*
X141148942Y-52220500D01*
X141011058Y-52220500D01*
X141011056Y-52220500D01*
X141011052Y-52220501D01*
X140878759Y-52259346D01*
X140762766Y-52333889D01*
X140672470Y-52438098D01*
X140615192Y-52563519D01*
X140615190Y-52563526D01*
X140595569Y-52699996D01*
X140595569Y-52700003D01*
X137605211Y-52700003D01*
X137505528Y-52600320D01*
X137471502Y-52538008D01*
X137476567Y-52467193D01*
X137480001Y-52458900D01*
X137494808Y-52426480D01*
X137504151Y-52361499D01*
X137514431Y-52290003D01*
X137514431Y-52289996D01*
X137494809Y-52153526D01*
X137494808Y-52153525D01*
X137494808Y-52153520D01*
X137437529Y-52028097D01*
X137347235Y-51923891D01*
X137347234Y-51923890D01*
X137347233Y-51923889D01*
X137231240Y-51849346D01*
X137098947Y-51810501D01*
X137098944Y-51810500D01*
X137098942Y-51810500D01*
X136961058Y-51810500D01*
X136956752Y-51811119D01*
X136952448Y-51810500D01*
X136952047Y-51810500D01*
X136952047Y-51810442D01*
X136886478Y-51801013D01*
X136849728Y-51775496D01*
X136560705Y-51486473D01*
X136237625Y-51163393D01*
X136233921Y-51159350D01*
X136230691Y-51155501D01*
X136208572Y-51129140D01*
X136208571Y-51129139D01*
X136181542Y-51113534D01*
X136174407Y-51109414D01*
X136169787Y-51106470D01*
X136137480Y-51083849D01*
X136131041Y-51080847D01*
X136118136Y-51075501D01*
X136111449Y-51073067D01*
X136072614Y-51066219D01*
X136067247Y-51065029D01*
X136029156Y-51054823D01*
X136029155Y-51054823D01*
X135989862Y-51058260D01*
X135984370Y-51058500D01*
X131210142Y-51058500D01*
X131204650Y-51058260D01*
X131169630Y-51055196D01*
X131165357Y-51054823D01*
X131165356Y-51054823D01*
X131165351Y-51054823D01*
X131127264Y-51065029D01*
X131121899Y-51066218D01*
X131083063Y-51073066D01*
X131076393Y-51075494D01*
X131063457Y-51080852D01*
X131057033Y-51083848D01*
X131024733Y-51106463D01*
X131020101Y-51109414D01*
X130985940Y-51129139D01*
X130960584Y-51159356D01*
X130956874Y-51163405D01*
X129986683Y-52133596D01*
X129924373Y-52167620D01*
X129897590Y-52170500D01*
X129851058Y-52170500D01*
X129851056Y-52170500D01*
X129851052Y-52170501D01*
X129718759Y-52209346D01*
X129602766Y-52283889D01*
X129512470Y-52388098D01*
X129455192Y-52513519D01*
X129455190Y-52513526D01*
X129435569Y-52649996D01*
X129435569Y-52650003D01*
X129455190Y-52786473D01*
X129455192Y-52786480D01*
X129460968Y-52799127D01*
X129471071Y-52869401D01*
X129441578Y-52933982D01*
X129381852Y-52972365D01*
X129310855Y-52972365D01*
X129257259Y-52940564D01*
X128067419Y-51750725D01*
X128051029Y-51730542D01*
X128045068Y-51721418D01*
X128045067Y-51721417D01*
X128029698Y-51709455D01*
X128016768Y-51699391D01*
X128010923Y-51694229D01*
X128008113Y-51691419D01*
X128008112Y-51691418D01*
X128008111Y-51691417D01*
X128008109Y-51691416D01*
X127988906Y-51677705D01*
X127945120Y-51643625D01*
X127938140Y-51639848D01*
X127930977Y-51636346D01*
X127877818Y-51620520D01*
X127825326Y-51602499D01*
X127817504Y-51601194D01*
X127809589Y-51600207D01*
X127754175Y-51602500D01*
X108340250Y-51602500D01*
X108272129Y-51582498D01*
X108225636Y-51528842D01*
X108215328Y-51460053D01*
X108219285Y-51430000D01*
X108200228Y-51285246D01*
X108144355Y-51150358D01*
X108055474Y-51034526D01*
X108055472Y-51034524D01*
X108055471Y-51034523D01*
X107939649Y-50945649D01*
X107939641Y-50945644D01*
X107804752Y-50889771D01*
X107660000Y-50870715D01*
X107515247Y-50889771D01*
X107447802Y-50917708D01*
X107380358Y-50945645D01*
X107380357Y-50945646D01*
X107380356Y-50945646D01*
X107264526Y-51034526D01*
X107175646Y-51150356D01*
X107175645Y-51150358D01*
X107149483Y-51213519D01*
X107119771Y-51285247D01*
X107100715Y-51429999D01*
X107104672Y-51460053D01*
X107093733Y-51530201D01*
X107046606Y-51583300D01*
X106979750Y-51602500D01*
X95131384Y-51602500D01*
X95063263Y-51582498D01*
X95042289Y-51565595D01*
X94795308Y-51318614D01*
X94761282Y-51256302D01*
X94759689Y-51247470D01*
X94754808Y-51213520D01*
X94697529Y-51088097D01*
X94607235Y-50983891D01*
X94607234Y-50983890D01*
X94607233Y-50983889D01*
X94491240Y-50909346D01*
X94358947Y-50870501D01*
X94358944Y-50870500D01*
X94358942Y-50870500D01*
X94221058Y-50870500D01*
X94221056Y-50870500D01*
X94221052Y-50870501D01*
X94088759Y-50909346D01*
X93972766Y-50983889D01*
X93882470Y-51088098D01*
X93825192Y-51213519D01*
X93825190Y-51213526D01*
X93805569Y-51349996D01*
X93805569Y-51350003D01*
X93300500Y-51350003D01*
X93300500Y-51253094D01*
X93300804Y-51246915D01*
X93308353Y-51170265D01*
X93312724Y-51125881D01*
X93317540Y-51101666D01*
X93350147Y-50994177D01*
X93359589Y-50971380D01*
X93412542Y-50872313D01*
X93426259Y-50851787D01*
X93497506Y-50764972D01*
X93514972Y-50747506D01*
X93601787Y-50676259D01*
X93622313Y-50662542D01*
X93721380Y-50609589D01*
X93744177Y-50600147D01*
X93851666Y-50567540D01*
X93875881Y-50562724D01*
X93964809Y-50553966D01*
X93996915Y-50550804D01*
X94003094Y-50550500D01*
X94047595Y-50550500D01*
X175452405Y-50550500D01*
X175496905Y-50550500D01*
X175503084Y-50550804D01*
G37*
%TD.AperFunction*%
D19*
X176500000Y-51250000D02*
G75*
G03*
X175499999Y-50250000I-1000000J0D01*
G01*
X93000000Y-51250000D02*
X93000000Y-74250001D01*
X94000000Y-50250000D02*
G75*
G03*
X93000000Y-51250000I0J-1000000D01*
G01*
X176499999Y-74249999D02*
X176500000Y-51250000D01*
X92999999Y-74250001D02*
G75*
G03*
X94000000Y-75250001I1000001J1D01*
G01*
X94000000Y-50250000D02*
X175499999Y-50250000D01*
X175499999Y-75249999D02*
X94000000Y-75250001D01*
X175499999Y-75249999D02*
G75*
G03*
X176499999Y-74249999I1J999999D01*
G01*
D20*
X134254819Y-63561904D02*
X135064342Y-63561904D01*
X135064342Y-63561904D02*
X135159580Y-63514285D01*
X135159580Y-63514285D02*
X135207200Y-63466666D01*
X135207200Y-63466666D02*
X135254819Y-63371428D01*
X135254819Y-63371428D02*
X135254819Y-63180952D01*
X135254819Y-63180952D02*
X135207200Y-63085714D01*
X135207200Y-63085714D02*
X135159580Y-63038095D01*
X135159580Y-63038095D02*
X135064342Y-62990476D01*
X135064342Y-62990476D02*
X134254819Y-62990476D01*
X134254819Y-62085714D02*
X134254819Y-62276190D01*
X134254819Y-62276190D02*
X134302438Y-62371428D01*
X134302438Y-62371428D02*
X134350057Y-62419047D01*
X134350057Y-62419047D02*
X134492914Y-62514285D01*
X134492914Y-62514285D02*
X134683390Y-62561904D01*
X134683390Y-62561904D02*
X135064342Y-62561904D01*
X135064342Y-62561904D02*
X135159580Y-62514285D01*
X135159580Y-62514285D02*
X135207200Y-62466666D01*
X135207200Y-62466666D02*
X135254819Y-62371428D01*
X135254819Y-62371428D02*
X135254819Y-62180952D01*
X135254819Y-62180952D02*
X135207200Y-62085714D01*
X135207200Y-62085714D02*
X135159580Y-62038095D01*
X135159580Y-62038095D02*
X135064342Y-61990476D01*
X135064342Y-61990476D02*
X134826247Y-61990476D01*
X134826247Y-61990476D02*
X134731009Y-62038095D01*
X134731009Y-62038095D02*
X134683390Y-62085714D01*
X134683390Y-62085714D02*
X134635771Y-62180952D01*
X134635771Y-62180952D02*
X134635771Y-62371428D01*
X134635771Y-62371428D02*
X134683390Y-62466666D01*
X134683390Y-62466666D02*
X134731009Y-62514285D01*
X134731009Y-62514285D02*
X134826247Y-62561904D01*
D21*
X109297723Y-71457167D02*
X160297723Y-71457167D01*
X109297723Y-53957167D02*
X160297723Y-53957167D01*
M02*
