%TF.GenerationSoftware,KiCad,Pcbnew,7.0.9*%
%TF.CreationDate,2023-12-26T17:46:22-06:00*%
%TF.ProjectId,shim,7368696d-2e6b-4696-9361-645f70636258,rev?*%
%TF.SameCoordinates,Original*%
%TF.FileFunction,Soldermask,Bot*%
%TF.FilePolarity,Negative*%
%FSLAX46Y46*%
G04 Gerber Fmt 4.6, Leading zero omitted, Abs format (unit mm)*
G04 Created by KiCad (PCBNEW 7.0.9) date 2023-12-26 17:46:22*
%MOMM*%
%LPD*%
G01*
G04 APERTURE LIST*
%ADD10C,1.500000*%
G04 APERTURE END LIST*
D10*
%TO.C,J\u002A\u002A*%
X119320000Y-101490000D03*
X121480000Y-101490000D03*
X123640000Y-101490000D03*
X125800000Y-101490000D03*
X127960000Y-101490000D03*
X130120000Y-101490000D03*
X132280000Y-101490000D03*
X134440000Y-101490000D03*
X136600000Y-101490000D03*
X138760000Y-101490000D03*
X140920000Y-101490000D03*
X143080000Y-101490000D03*
X145240000Y-101490000D03*
X147400000Y-101490000D03*
X149560000Y-101490000D03*
X151720000Y-101490000D03*
X153880000Y-101490000D03*
X156040000Y-101490000D03*
X158200000Y-101490000D03*
X160360000Y-101490000D03*
X162520000Y-101490000D03*
X164680000Y-101490000D03*
X166840000Y-101490000D03*
X169000000Y-101490000D03*
X171160000Y-101490000D03*
X119320000Y-105780000D03*
X121480000Y-105780000D03*
X123640000Y-105780000D03*
X125800000Y-105780000D03*
X127960000Y-105780000D03*
X130120000Y-105780000D03*
X132280000Y-105780000D03*
X134440000Y-105780000D03*
X136600000Y-105780000D03*
X138760000Y-105780000D03*
X140920000Y-105780000D03*
X143080000Y-105780000D03*
X145240000Y-105780000D03*
X147400000Y-105780000D03*
X149560000Y-105780000D03*
X151720000Y-105780000D03*
X153880000Y-105780000D03*
X156040000Y-105780000D03*
X158200000Y-105780000D03*
X160360000Y-105780000D03*
X162520000Y-105780000D03*
X164680000Y-105780000D03*
X166840000Y-105780000D03*
X169000000Y-105780000D03*
X171160000Y-105780000D03*
%TD*%
M02*
